<svg version="1.2" xmlns="http://www.w3.org/2000/svg" viewBox="0 0 621 218" width="621" height="218"><style>.a{fill:#e65300}.b{fill:#3d3935}</style><path class="a" d="m103.2 202.8c0.1 0.4 0.1 0.8 0 1.1-0.3 1-1.2 1.7-2.3 1.7q-0.5 0-0.9 0h-0.3c-0.2-0.1-0.4-0.2-0.6-0.4-0.5-0.6-0.7-1.2-0.6-1.9 0-0.5 0.2-1 0.6-1.4 0.3 0 0.3 0 0.3 0h0.3c0.4-0.2 0.9-0.3 1.3-0.3 1.2 0 2.3 0.9 2.4 2.2"/><path class="a" d="m92.8 207.5c0 0.5-0.1 1.1-0.4 1.5-0.4 0.5-1.1 0.8-1.8 0.8h-0.6c-0.5-0.1-1.1-0.4-1.4-0.8-0.3-0.5-0.5-1.1-0.4-1.7v-0.5c0-0.3 0-0.3 0-0.3q0-0.1 0-0.3c0.4-0.7 1.2-1.1 2.1-1.1 1.1-0.1 2.1 0.6 2.4 1.7 0 0.1 0 0.3 0 0.4"/><path class="a" d="m129.3 200.3c-1.2 0-2.2-0.8-2.4-1.9v-0.4c-0.1-0.6 0.1-1.2 0.5-1.7 0.5-0.6 1.3-0.9 2.1-0.9 1.1 0 2 0.6 2.3 1.6v0.3q0 0.1 0 0.3c0 0.7-0.2 1.4-0.6 1.9-0.5 0.5-1.2 0.8-2 0.8"/><path class="a" d="m102.6 41.2c0.5-0.5 1.3-0.8 2-0.8 1 0 2 0.6 2.4 1.5 0.4 1 0.2 2.1-0.5 2.8-0.6 0.5-1.3 0.8-2 0.8-1.3 0.1-2.4-0.9-2.5-2.2 0-0.6 0.2-1.3 0.6-1.8"/><path class="a" d="m105.2 47.5c1.3 0 2.4 0.9 2.5 2.2 0.1 0.7-0.1 1.4-0.6 1.9-0.5 0.5-1.3 0.8-2 0.8-1.2 0-2.3-0.9-2.4-2.2 0-0.7 0.2-1.4 0.6-1.9 0.5-0.6 1.2-0.8 1.9-0.8z"/><path class="a" d="m105.9 53.6c1.3 0 2.4 0.9 2.5 2.2 0 0.7-0.2 1.4-0.6 1.9-0.5 0.5-1.2 0.8-2 0.8-0.9 0-1.8-0.5-2.2-1.4-0.4-0.9-0.3-1.9 0.3-2.6 0.5-0.6 1.2-0.8 2-0.9z"/><path class="a" d="m103 24.8c1.3-0.1 2.4 0.9 2.5 2.2 0 0.6-0.2 1.3-0.6 1.8-0.5 0.5-1.3 0.8-2 0.8-1.3 0-2.4-0.9-2.5-2.2 0-0.7 0.2-1.4 0.6-1.9 0.6-0.5 1.3-0.8 2-0.7z"/><path class="a" d="m103.9 33.1c1.2 0 2.3 0.9 2.4 2.2 0 0.7-0.2 1.4-0.6 1.9-0.5 0.5-1.3 0.8-2 0.8-1.2 0-2.3-0.9-2.4-2.2 0-0.7 0.2-1.4 0.6-1.9 0.5-0.5 1.2-0.8 2-0.8z"/><path class="a" d="m99.6 18c-0.1-0.6 0.1-1.3 0.6-1.8 0.5-0.5 1.3-0.8 2-0.8 1.2 0 2.3 0.9 2.4 2.2 0 0.7-0.2 1.4-0.6 1.9-0.5 0.5-1.3 0.8-2 0.8-1.3 0-2.3-1-2.4-2.3z"/><path class="a" d="m108.8 61.2c0.1 0.6-0.1 1.3-0.6 1.8-0.5 0.5-1.3 0.8-2 0.8-1.2 0.1-2.3-0.9-2.4-2.2-0.1-0.6 0.2-1.3 0.6-1.8 0.5-0.5 1.3-0.8 2-0.8 1.3 0 2.4 1 2.4 2.2z"/><path class="a" d="m100.5 46.7c0.4 0.9 0.3 1.9-0.3 2.6-0.5 0.6-1.3 0.9-2.1 0.9-1.2 0-2.2-0.8-2.4-2-0.1-0.7 0-1.5 0.5-2 0.5-0.7 1.3-1 2.1-1 0.9 0 1.7 0.5 2.2 1.5z"/><path class="a" d="m99.5 51.7c1.2 0 2.2 0.8 2.4 1.9 0.2 0.7 0 1.4-0.4 2-0.5 0.6-1.3 0.9-2.1 0.9-0.9-0.1-1.8-0.6-2.2-1.4-0.4-0.8-0.3-1.8 0.2-2.5 0.5-0.6 1.3-1 2.1-0.9z"/><path class="a" d="m98.2 60.1c-0.1-0.7 0-1.4 0.5-2 0.5-0.6 1.3-0.9 2.1-0.9 1 0 1.8 0.6 2.2 1.4 0.4 0.9 0.3 1.9-0.3 2.6-0.5 0.5-1.3 0.9-2.1 0.9-1.2 0.1-2.2-0.8-2.4-2z"/><path class="a" d="m95.1 30.5c1.2 0 2.2 0.8 2.4 1.9 0.2 0.7 0 1.4-0.4 2-0.5 0.6-1.3 0.9-2.1 0.9-1.2 0-2.2-0.8-2.4-1.9-0.1-0.7 0-1.4 0.5-2 0.5-0.6 1.3-1 2-0.9z"/><path class="a" d="m96.9 38.2c1 0 1.8 0.6 2.2 1.4 0.4 0.9 0.3 1.9-0.3 2.6-0.5 0.6-1.3 0.9-2.1 0.9-1.2 0-2.2-0.8-2.4-2-0.1-0.7 0.1-1.5 0.5-2q0.7-0.9 2.1-0.9z"/><path class="a" d="m93.4 21.8c1.2-0.1 2.2 0.8 2.4 1.9 0.2 0.7 0 1.4-0.4 2-0.5 0.6-1.3 0.9-2.1 0.9-1.2 0-2.2-0.9-2.4-2-0.2-0.7 0-1.5 0.4-2 0.6-0.6 1.3-1 2.1-0.8z"/><path class="a" d="m93 45c0.3 0.8 0.1 1.6-0.3 2.2-0.5 0.7-1.3 1.1-2.2 1.1-1.1 0-2-0.7-2.3-1.7-0.2-0.7-0.1-1.5 0.3-2.1 0.5-0.7 1.3-1.1 2.2-1.1 1 0 1.9 0.7 2.3 1.6z"/><path class="a" d="m92.7 49.9c1.1 0 2 0.7 2.3 1.7 0.3 0.7 0.2 1.5-0.3 2.1-0.5 0.7-1.3 1.1-2.2 1.1-1.1 0-2-0.7-2.3-1.7-0.3-0.7-0.2-1.5 0.3-2.1 0.6-0.7 1.4-1.1 2.2-1.1z"/><path class="a" d="m92.1 59.1c-0.2-0.8-0.1-1.6 0.3-2.2 0.5-0.7 1.3-1.1 2.2-1.1 0.9 0 1.7 0.5 2.1 1.3 0.4 0.8 0.4 1.8-0.1 2.5-0.5 0.7-1.3 1.1-2.2 1.1-1.1 0-2-0.7-2.3-1.6z"/><path class="a" d="m85.8 28.1c0.9 0 1.7 0.5 2.1 1.3 0.4 0.8 0.4 1.8-0.1 2.5-0.5 0.7-1.3 1.1-2.2 1.1-1.1 0-2-0.7-2.3-1.7-0.2-0.7-0.1-1.5 0.3-2.1 0.5-0.7 1.3-1 2.2-1.1z"/><path class="a" d="m88.3 36.4c0.9 0 1.7 0.5 2.1 1.3 0.4 0.8 0.4 1.8-0.1 2.5-0.5 0.7-1.3 1.1-2.2 1.1-1.1 0-2-0.7-2.3-1.7-0.3-0.7-0.1-1.5 0.3-2.1 0.5-0.7 1.4-1.1 2.2-1.1z"/><path class="a" d="m80.4 22.4c-0.2-0.7-0.1-1.5 0.3-2.1 0.5-0.7 1.3-1.1 2.2-1.1 0.9 0 1.7 0.5 2.1 1.3 0.4 0.8 0.4 1.8-0.1 2.5-0.5 0.7-1.3 1.1-2.2 1.1-1.1 0-2-0.7-2.3-1.7z"/><path class="a" d="m93.8 64.6c-0.4-0.8-0.4-1.8 0.1-2.5 0.5-0.7 1.3-1.1 2.2-1.1 1 0 1.8 0.5 2.2 1.3 0.4 0.8 0.3 1.8-0.2 2.5-0.5 0.7-1.3 1.1-2.2 1.1-0.9 0-1.7-0.5-2.1-1.3z"/><path class="a" d="m87.6 50.7c0.4 0.7 0.4 1.5 0 2.2-0.5 0.7-1.4 1.2-2.3 1.2-1 0-1.9-0.6-2.2-1.5-0.4-0.7-0.4-1.5 0-2.2 0.5-0.8 1.4-1.2 2.3-1.2 0.9-0.1 1.8 0.5 2.2 1.5z"/><path class="a" d="m88 55.3c1-0.1 1.8 0.5 2.2 1.4 0.4 0.6 0.4 1.5 0 2.2-0.5 0.7-1.4 1.2-2.3 1.2-1 0-1.8-0.6-2.2-1.5-0.4-0.6-0.4-1.5 0-2.2 0.5-0.8 1.3-1.2 2.3-1.1z"/><path class="a" d="m89.9 65.4c-0.9 0.1-1.8-0.5-2.1-1.4-0.4-0.7-0.4-1.5 0-2.2 0.5-0.8 1.4-1.2 2.3-1.2 1-0.1 1.9 0.5 2.2 1.4 0.4 0.7 0.4 1.5 0 2.2-0.5 0.7-1.4 1.2-2.4 1.2z"/><path class="a" d="m79.3 35.4c1-0.1 1.8 0.5 2.2 1.4 0.4 0.6 0.4 1.5 0 2.2-0.5 0.8-1.4 1.2-2.3 1.2-1 0.1-1.8-0.5-2.2-1.4-0.4-0.7-0.4-1.5 0-2.2 0.5-0.8 1.3-1.2 2.3-1.2z"/><path class="a" d="m84.5 43.9c0.4 0.7 0.4 1.6 0 2.4-0.5 0.7-1.4 1.2-2.3 1.2-0.9-0.1-1.7-0.6-2.1-1.3-0.4-0.7-0.4-1.7 0.1-2.4 0.5-0.7 1.4-1.2 2.3-1.2 0.9 0 1.6 0.5 2 1.3z"/><path class="a" d="m75.7 27.1c1-0.1 1.8 0.5 2.2 1.4 0.4 0.7 0.4 1.5 0 2.2-0.5 0.7-1.4 1.2-2.3 1.2-1 0.1-1.8-0.5-2.2-1.4-0.4-0.7-0.4-1.5 0-2.2 0.6-0.7 1.4-1.2 2.3-1.2z"/><path class="a" d="m71.4 23.1c-0.8-0.1-1.6-0.5-2-1.3-0.4-0.7-0.4-1.7 0-2.4 0.5-0.7 1.4-1.2 2.3-1.2 0.9 0 1.8 0.6 2.1 1.5 0.4 0.7 0.4 1.5 0 2.2-0.5 0.8-1.4 1.2-2.3 1.2"/><path class="a" d="m91.5 16.8c-1 0.1-1.8-0.5-2.2-1.4-0.4-0.7-0.4-1.5 0-2.2 0.5-0.7 1.4-1.2 2.3-1.2 0.9 0.2 1.6 0.8 1.9 1.6 0.4 0.6 0.4 1.5 0 2.2-0.5 0.8-1.4 1.2-2.3 1.2"/><path class="a" d="m79.5 50.2c0.4 0.8 0.4 1.7 0 2.4-0.6 0.8-1.4 1.3-2.4 1.3-0.9 0-1.7-0.4-2.1-1.2-0.4-0.7-0.4-1.6 0-2.3 0.5-0.9 1.4-1.4 2.4-1.4 0.9 0 1.7 0.5 2.1 1.2z"/><path class="a" d="m78.6 56.4c0.5-0.9 1.4-1.4 2.4-1.4 0.8 0 1.6 0.4 2 1.2 0.4 0.8 0.4 1.7 0 2.4-0.5 0.8-1.5 1.3-2.5 1.2-0.8 0-1.6-0.4-2-1.2-0.4-0.7-0.4-1.6 0-2.3"/><path class="a" d="m83.6 65.2c-0.9 0-1.7-0.5-2.1-1.2-0.4-0.8-0.4-1.7 0-2.4 0.6-0.8 1.4-1.3 2.4-1.3 0.9 0 1.7 0.4 2.1 1.2 0.4 0.8 0.4 1.7 0 2.4-0.5 0.8-1.4 1.3-2.4 1.3z"/><path class="a" d="m67.2 36.5c0.5-0.9 1.4-1.4 2.4-1.4 0.9 0 1.7 0.4 2.1 1.2 0.4 0.8 0.4 1.7 0 2.4-0.6 0.8-1.4 1.3-2.4 1.3-0.9 0.1-1.7-0.4-2.1-1.2-0.5-0.7-0.5-1.6 0-2.3z"/><path class="a" d="m75.8 43.7c0.4 0.8 0.4 1.7 0 2.4-0.6 0.8-1.4 1.3-2.4 1.3-0.9 0.1-1.7-0.4-2.1-1.2-0.4-0.8-0.4-1.7 0-2.4 0.6-0.8 1.4-1.3 2.4-1.3 0.8 0 1.6 0.4 2.1 1.2z"/><path class="a" d="m62.4 30.6c-0.4-0.7-0.4-1.6 0-2.3 0.5-0.9 1.4-1.4 2.4-1.4 0.9 0 1.7 0.5 2.1 1.2 0.4 0.8 0.4 1.7 0 2.4-0.5 0.9-1.3 1.4-2.3 1.4-0.9 0-1.7-0.5-2.2-1.3z"/><path class="a" d="m84.3 68.8c-0.4-0.8-0.4-1.7 0-2.4 0.6-0.8 1.4-1.3 2.4-1.3 0.9-0.1 1.7 0.4 2.1 1.2 0.4 0.8 0.4 1.7 0 2.4-0.6 0.8-1.4 1.3-2.4 1.3-0.9 0-1.7-0.4-2.1-1.2z"/><path class="a" d="m75.3 59.2c-0.5 0.9-1.4 1.5-2.4 1.5-0.7 0-1.5-0.4-1.9-1-0.5-0.8-0.5-1.7 0-2.5 0.5-0.9 1.4-1.5 2.4-1.5 0.8 0.1 1.6 0.5 2 1.2 0.5 0.7 0.5 1.6 0.2 2.3"/><path class="a" d="m76.8 66.1c-0.8-0.1-1.5-0.5-1.9-1.1-0.5-0.8-0.5-1.8 0-2.5 0.5-0.8 1.4-1.4 2.4-1.4 0.8 0.1 1.6 0.5 2 1.2 0.4 0.7 0.5 1.6 0.1 2.3-0.5 0.9-1.4 1.5-2.4 1.5"/><path class="a" d="m80.5 70.8c-0.8-0.1-1.5-0.5-1.9-1.1-0.6-0.7-0.7-1.7-0.3-2.5 0.5-0.8 1.4-1.4 2.4-1.4 0.7 0 1.5 0.4 1.9 1 0.5 0.7 0.6 1.7 0.2 2.5-0.5 0.9-1.4 1.5-2.3 1.5z"/><path class="a" d="m62.6 47.4c-0.6-0.7-0.7-1.7-0.3-2.5 0.5-0.9 1.4-1.5 2.4-1.5 0.8 0 1.5 0.4 1.9 1.1 0.5 0.7 0.6 1.7 0.2 2.5-0.5 0.8-1.4 1.4-2.4 1.4-0.8 0-1.5-0.3-1.8-1z"/><path class="a" d="m69 49.9c0.7 0 1.5 0.4 1.9 1 0.6 0.7 0.7 1.7 0.3 2.5-0.5 0.9-1.4 1.5-2.4 1.5-0.8 0-1.5-0.4-1.9-1.1-0.5-0.8-0.5-1.8 0-2.5 0.5-0.8 1.4-1.4 2.4-1.4"/><path class="a" d="m57.2 40.1c-0.5-0.7-0.6-1.7-0.2-2.5 0.5-0.9 1.4-1.5 2.4-1.5 0.8 0 1.5 0.4 1.9 1.1 0.5 0.7 0.6 1.6 0.2 2.4-0.5 0.9-1.4 1.5-2.4 1.5-0.7 0-1.4-0.4-1.9-1z"/><path class="a" d="m53.7 33.2c-0.8-0.1-1.6-0.5-2-1.2-0.4-0.7-0.5-1.6-0.1-2.3 0.5-0.9 1.4-1.5 2.4-1.5 0.8 0.1 1.5 0.5 1.9 1.1 0.5 0.8 0.5 1.8 0 2.5-0.5 0.8-1.4 1.4-2.4 1.4"/><path class="a" d="m65.7 57.1c0.7 0 1.4 0.3 1.8 0.8 0.7 0.6 0.8 1.6 0.4 2.5-0.4 1-1.4 1.6-2.4 1.6-0.7 0.1-1.4-0.3-1.8-0.8-0.6-0.7-0.8-1.7-0.4-2.5 0.4-1 1.4-1.6 2.4-1.6z"/><path class="a" d="m70.1 67.3c-0.8 0-1.6-0.4-2-1.1-0.4-0.7-0.5-1.6-0.2-2.3 0.4-0.9 1.4-1.5 2.4-1.6 0.8 0 1.6 0.4 2 1.1 0.4 0.7 0.5 1.6 0.2 2.3-0.4 1-1.4 1.6-2.4 1.6z"/><path class="a" d="m74.2 71.9c-0.7 0-1.4-0.3-1.8-0.8-0.6-0.6-0.8-1.6-0.4-2.5 0.4-1 1.4-1.6 2.4-1.6 0.7 0 1.4 0.3 1.8 0.8 0.6 0.7 0.8 1.7 0.4 2.5-0.4 0.9-1.4 1.6-2.4 1.6z"/><path class="a" d="m56.8 46c0.6 0.6 0.8 1.6 0.4 2.5-0.4 0.9-1.4 1.5-2.4 1.6-0.7 0-1.4-0.3-1.8-0.8-0.6-0.6-0.8-1.6-0.4-2.5 0.4-0.9 1.4-1.5 2.4-1.6 0.7 0 1.3 0.3 1.8 0.8z"/><path class="a" d="m62.6 52.6c0.4 0.7 0.5 1.6 0.2 2.3-0.4 0.9-1.4 1.5-2.4 1.6-0.8 0-1.6-0.4-2-1.1-0.4-0.7-0.5-1.6-0.2-2.3 0.4-0.9 1.4-1.5 2.4-1.6 0.9 0.1 1.6 0.5 2 1.1z"/><path class="a" d="m46.8 42.3c-0.6-0.6-0.8-1.6-0.4-2.5 0.4-0.9 1.4-1.5 2.4-1.6 0.8 0 1.6 0.4 2 1.1 0.4 0.7 0.5 1.6 0.2 2.3-0.4 0.9-1.4 1.5-2.4 1.6-0.7 0-1.4-0.3-1.8-0.9z"/><path class="a" d="m75.9 75c-0.4-0.7-0.5-1.6-0.2-2.3 0.4-0.9 1.4-1.5 2.4-1.6 0.8 0 1.6 0.4 2 1.1 0.4 0.7 0.5 1.6 0.2 2.3-0.4 0.9-1.3 1.6-2.4 1.6-0.8-0.1-1.6-0.5-2-1.1z"/><path class="a" d="m63.1 64.6c0.6 0 1.2 0.3 1.6 0.7 0.8 0.6 1.1 1.7 0.7 2.6-0.4 1-1.3 1.6-2.4 1.7-0.6 0-1.2-0.3-1.6-0.7-0.7-0.6-1-1.7-0.6-2.6 0.3-1 1.3-1.7 2.3-1.7z"/><path class="a" d="m69.5 69.7c0.8 0.6 1.1 1.7 0.7 2.6-0.4 1-1.3 1.7-2.4 1.7-0.6 0-1.2-0.2-1.6-0.6-0.7-0.6-1-1.7-0.6-2.6 0.4-1 1.3-1.7 2.4-1.7 0.6 0 1.2 0.2 1.5 0.6z"/><path class="a" d="m72 77.9c-0.6-0.1-1.2-0.3-1.6-0.7-0.7-0.6-1-1.7-0.6-2.6 0.3-1 1.3-1.7 2.4-1.7 0.6 0 1.2 0.3 1.6 0.7 0.8 0.6 1.1 1.7 0.7 2.6-0.4 1-1.4 1.7-2.5 1.7z"/><path class="a" d="m52.1 54.4c0.6 0 1.2 0.3 1.6 0.7 0.7 0.6 1 1.7 0.6 2.6-0.4 1-1.3 1.7-2.4 1.7-0.8 0-1.5-0.4-2-1-0.4-0.6-0.6-1.5-0.3-2.2 0.4-1 1.3-1.7 2.5-1.8z"/><path class="a" d="m57.9 59.8c0.6 0 1.2 0.3 1.6 0.7 0.7 0.6 1 1.7 0.6 2.6-0.4 1-1.3 1.7-2.4 1.7-0.6 0-1.2-0.3-1.6-0.7-0.7-0.6-1-1.7-0.6-2.6 0.4-1 1.3-1.7 2.4-1.7z"/><path class="a" d="m43.5 52.7c-0.7-0.6-1-1.7-0.6-2.6 0.4-1 1.3-1.6 2.4-1.7 0.6 0 1.2 0.3 1.6 0.7 0.8 0.6 1.1 1.7 0.7 2.6-0.4 1-1.3 1.6-2.4 1.7-0.6 0-1.2-0.3-1.7-0.7z"/><path class="a" d="m36.3 46.2c-0.7-0.6-1-1.7-0.6-2.6 0.4-1 1.3-1.7 2.4-1.7 0.6 0 1.2 0.2 1.6 0.6 0.7 0.6 1 1.7 0.6 2.6-0.4 1-1.3 1.7-2.4 1.7-0.6 0-1.2-0.2-1.6-0.6z"/><path class="a" d="m53.6 69.6c0.3-1 1.3-1.8 2.4-1.8 0.7 0 1.5 0.4 1.9 1 0.5 0.6 0.6 1.4 0.4 2.1-0.3 1-1.3 1.7-2.4 1.8-0.6 0-1.1-0.2-1.5-0.5-0.9-0.6-1.3-1.7-0.8-2.6z"/><path class="a" d="m61.4 76.8c-0.5 0-1.1-0.2-1.5-0.5-0.9-0.6-1.2-1.7-0.9-2.7 0.3-1.1 1.3-1.8 2.4-1.9 0.6 0 1.1 0.2 1.5 0.5 0.9 0.6 1.2 1.7 0.9 2.7-0.4 1.1-1.3 1.8-2.4 1.9z"/><path class="a" d="m68.8 78.6c-0.3 1-1.3 1.7-2.4 1.8-0.6 0-1.1-0.2-1.5-0.5-0.9-0.5-1.2-1.6-0.9-2.6 0.3-1.1 1.3-1.8 2.4-1.9 0.6 0 1.1 0.2 1.5 0.5 0.8 0.6 1.2 1.7 0.9 2.7z"/><path class="a" d="m41.6 62.7c-0.9-0.6-1.2-1.6-0.9-2.6 0.3-1.1 1.3-1.9 2.4-1.9 0.6 0 1.1 0.2 1.5 0.5 0.8 0.6 1.1 1.7 0.7 2.6-0.3 1.1-1.3 1.8-2.4 1.9-0.6 0-1.1-0.2-1.5-0.5"/><path class="a" d="m49.7 63.2c0.6 0 1.1 0.2 1.5 0.5 0.9 0.6 1.2 1.6 0.9 2.6-0.3 1.1-1.3 1.8-2.4 1.9-0.6 0-1.1-0.2-1.5-0.5-0.9-0.6-1.2-1.7-0.9-2.7 0.3-1 1.3-1.7 2.4-1.8z"/><path class="a" d="m32.9 54.5c0.3-1.1 1.3-1.9 2.4-1.9 0.6 0 1.1 0.2 1.5 0.5 0.9 0.6 1.2 1.7 0.9 2.7-0.3 1-1.3 1.7-2.4 1.8-0.6 0-1.1-0.2-1.5-0.5-0.9-0.5-1.3-1.6-0.9-2.6z"/><path class="a" d="m68.5 80.5c0.3-1 1.3-1.7 2.4-1.8 0.6 0 1.1 0.2 1.5 0.5 0.9 0.5 1.2 1.6 0.9 2.6-0.3 1.1-1.3 1.9-2.4 1.9-0.6 0-1.1-0.2-1.5-0.5-0.9-0.6-1.3-1.7-0.9-2.7z"/><path class="a" d="m52.6 77.2c0.3-1.1 1.2-1.9 2.4-2 0.4 0 0.8 0.2 1.2 0.4 1 0.5 1.5 1.6 1.2 2.7-0.3 1.1-1.2 1.9-2.4 2-0.5 0-0.9-0.2-1.3-0.4-1-0.5-1.5-1.6-1.1-2.7z"/><path class="a" d="m63 81.8c-0.3 1.2-1.3 2-2.4 2-0.5 0-0.9-0.1-1.3-0.3-1-0.5-1.4-1.6-1.1-2.7 0.3-1.1 1.3-1.9 2.4-2 0.5 0 0.9 0.2 1.3 0.4 0.9 0.5 1.4 1.6 1.1 2.6z"/><path class="a" d="m68 84.8c-0.3 1.1-1.2 1.9-2.4 2-0.5 0-0.9-0.2-1.3-0.4-1-0.5-1.4-1.7-1.1-2.7 0.3-1.1 1.2-1.9 2.4-2 0.5 0 0.9 0.2 1.3 0.4 1 0.5 1.4 1.6 1.1 2.7z"/><path class="a" d="m44.2 71c-0.3 1.2-1.3 2-2.4 2-0.5 0-0.9-0.2-1.3-0.4-1-0.5-1.4-1.7-1.1-2.7 0.3-1.2 1.3-2 2.4-2 0.5 0 0.9 0.1 1.3 0.3 1 0.5 1.5 1.6 1.1 2.8z"/><path class="a" d="m48.8 71.9c0.5 0 0.9 0.1 1.3 0.3 1 0.5 1.4 1.7 1.1 2.7-0.3 1.1-1.2 2-2.4 2-0.4 0-0.8-0.2-1.2-0.4-1-0.5-1.5-1.6-1.2-2.7 0.2-1.1 1.2-1.9 2.4-1.9z"/><path class="a" d="m31.6 65.3c0.3-1.1 1.3-1.9 2.4-2 0.5 0 0.9 0.1 1.3 0.3 1 0.5 1.4 1.6 1.1 2.7-0.3 1.2-1.3 2-2.4 2-0.4 0-0.8-0.2-1.2-0.4-0.9-0.5-1.4-1.6-1.2-2.6z"/><path class="a" d="m23.6 60.7c0.3-1.1 1.3-1.9 2.4-2 0.5 0 0.9 0.1 1.3 0.3 1 0.5 1.4 1.6 1.1 2.7-0.3 1.2-1.3 2-2.4 2-0.5 0-0.9-0.2-1.3-0.4-0.9-0.5-1.4-1.6-1.1-2.6z"/><path class="a" d="m46.1 82c0.2-1.2 1.2-2.1 2.4-2.1 0.4 0.1 0.8 0.1 1.1 0.3 1.1 0.4 1.7 1.6 1.4 2.7-0.2 1.2-1.2 2.1-2.4 2.1-0.4 0-0.8-0.1-1.1-0.3-1.1-0.4-1.7-1.6-1.4-2.7z"/><path class="a" d="m52.5 84.9c0.2-1.2 1.2-2 2.4-2.1 0.7 0 1.4 0.3 1.9 0.9 0.4 0.5 0.6 1.3 0.5 2-0.3 1.2-1.2 2-2.4 2.1-0.4 0-0.8-0.1-1.1-0.3-1.1-0.4-1.7-1.6-1.3-2.6z"/><path class="a" d="m59.3 90.1c-1.1-0.4-1.7-1.6-1.4-2.7 0.2-1.2 1.2-2 2.4-2.1 0.4 0 0.8 0.1 1.1 0.3 1.1 0.4 1.7 1.6 1.4 2.7-0.2 1.1-1.2 2-2.4 2-0.3 0-0.7-0.1-1.1-0.2z"/><path class="a" d="m32.8 78.3c-1.1-0.4-1.7-1.6-1.4-2.7 0.3-1.1 1.2-1.9 2.4-2 0.4-0.1 0.7-0.1 1.1 0 1.1 0.4 1.7 1.6 1.4 2.7-0.2 1.2-1.2 2-2.4 2.1-0.4 0-0.8-0.1-1.1-0.3"/><path class="a" d="m39 78.8c0.2-1.2 1.2-2 2.4-2.1 0.4 0 0.8 0.1 1.1 0.3 1.1 0.4 1.7 1.6 1.4 2.7-0.2 1.2-1.2 2-2.4 2.1-0.3 0-0.7-0.1-1-0.3-1-0.4-1.6-1.5-1.5-2.7z"/><path class="a" d="m22.8 71.5c0.2-1.2 1.2-2 2.4-2.1 0.4 0.1 0.8 0.1 1.1 0.3 1.1 0.4 1.7 1.6 1.4 2.7-0.2 1.2-1.2 2-2.4 2.1-0.4 0-0.8-0.1-1.1-0.3-1.1-0.4-1.7-1.6-1.4-2.7z"/><path class="a" d="m63 89.7c0.2-1.2 1.2-2 2.4-2.1 0.4 0.1 0.8 0.1 1.1 0.3 1.1 0.4 1.7 1.6 1.4 2.7-0.2 1.2-1.2 2-2.4 2.1-0.4 0-0.8-0.1-1.1-0.3-1-0.5-1.6-1.6-1.4-2.7z"/><path class="a" d="m51.6 90.5c-0.2 1.2-1.2 2.1-2.4 2.2h-0.9c-1.1-0.3-1.8-1.5-1.6-2.7 0.2-1.2 1.2-2.1 2.4-2.2q0.5 0 0.9 0c1.2 0.4 1.9 1.5 1.6 2.7z"/><path class="a" d="m54.5 94.8c-1.1-0.3-1.9-1.5-1.6-2.7 0.2-1.2 1.2-2.1 2.4-2.2q0.5-0.1 0.9 0c1.2 0.4 1.9 1.5 1.7 2.7-0.2 1.2-1.2 2.1-2.4 2.2z"/><path class="a" d="m63.3 94.5c-0.2 1.2-1.2 2.1-2.4 2.2q-0.5 0.2-0.9 0c-1.1-0.4-1.8-1.5-1.6-2.7 0.2-1.2 1.2-2.1 2.4-2.2q0.5 0 0.9 0c1.1 0.3 1.8 1.4 1.6 2.7z"/><path class="a" d="m34 87.9c-1.1-0.4-1.8-1.5-1.6-2.7 0.2-1.2 1.2-2.1 2.4-2.2q0.5 0 0.9 0c1.1 0.4 1.8 1.5 1.6 2.7-0.2 1.2-1.2 2.1-2.4 2.2q-0.3 0.2-0.9 0z"/><path class="a" d="m44.8 88.2c-0.2 1.2-1.2 2.1-2.4 2.2q-0.4 0.2-0.9 0c-1.1-0.4-1.8-1.5-1.6-2.7 0.2-1.2 1.2-2.1 2.4-2.2q0.5 0 0.9 0c1.2 0.3 1.9 1.5 1.6 2.7z"/><path class="a" d="m28.7 82.9c-0.2 1.2-1.2 2.1-2.4 2.2q-0.4 0-0.9 0c-1.1-0.4-1.8-1.5-1.6-2.7 0.2-1.2 1.2-2.1 2.4-2.2h0.9c1.2 0.3 1.9 1.4 1.6 2.7z"/><path class="a" d="m14.6 79.1c0.2-1.2 1.2-2.2 2.4-2.2 0.3 0 0.5 0 0.8 0 1.2 0.4 1.9 1.5 1.7 2.7-0.2 1.2-1.2 2.1-2.4 2.2q-0.4 0-0.9 0c-1.2-0.3-1.9-1.5-1.6-2.7z"/><path class="a" d="m46.5 96.5c-0.1 1.3-1.1 2.3-2.4 2.3h-0.6c-1.3-0.3-2.1-1.5-1.9-2.7 0.1-1.3 1.1-2.2 2.4-2.3h0.6c1.2 0.3 2 1.4 1.9 2.7z"/><path class="a" d="m51.1 95.3c1.2 0.2 2.1 1.4 1.9 2.6-0.1 1.3-1.1 2.3-2.4 2.3h-0.6c-1.2-0.3-2.1-1.4-1.9-2.7 0.1-1.3 1.1-2.2 2.4-2.3z"/><path class="a" d="m56.6 101.4h-0.6c-1.2-0.2-2.1-1.4-1.9-2.6 0.1-1.3 1.1-2.3 2.4-2.3h0.6c1.3 0.3 2.1 1.5 1.9 2.7-0.1 1.2-1.1 2.2-2.4 2.2z"/><path class="a" d="m28.6 90.4c1.2 0.2 2.1 1.4 1.9 2.6-0.1 1.3-1.1 2.3-2.4 2.3h-0.6c-1.3-0.3-2.1-1.5-1.9-2.7 0.1-1.2 1.2-2.2 2.4-2.2z"/><path class="a" d="m34.1 94.2c0.1-1.2 1.1-2.2 2.4-2.2h0.6c1.2 0.3 2.1 1.4 1.9 2.7-0.1 1.2-1.2 2.2-2.4 2.2h-0.6c-1.3-0.2-2.1-1.4-1.9-2.7z"/><path class="a" d="m19.5 88.4c1.3 0.2 2.1 1.4 1.9 2.6-0.1 1.3-1.1 2.3-2.4 2.3h-0.6c-1.2-0.2-2.1-1.4-1.9-2.6 0.1-1.3 1.1-2.3 2.4-2.3z"/><path class="a" d="m61.5 102.6c-1.3-0.3-2.1-1.5-1.9-2.7 0.1-1.2 1.2-2.2 2.4-2.2h0.6c1.2 0.2 2.1 1.4 1.9 2.6-0.1 1.3-1.1 2.3-2.4 2.3z"/><path class="a" d="m44.5 101.8c0.5-0.5 1.2-0.7 1.9-0.6 0.6 0 1.2 0.3 1.6 0.8 0.4 0.4 0.6 1.1 0.5 1.7 0 1.3-1.1 2.4-2.4 2.4h-0.3c-0.6 0-1.2-0.3-1.6-0.8-0.4-0.4-0.6-1.1-0.5-1.7 0.1-0.7 0.4-1.4 0.8-1.8z"/><path class="a" d="m55.2 104.6c0 1.3-1.1 2.4-2.4 2.4h-0.3c-0.6 0-1.2-0.3-1.6-0.8-0.4-0.4-0.6-1.1-0.5-1.7 0-1.3 1.1-2.4 2.4-2.4 1.3 0 2.4 1.1 2.4 2.4"/><path class="a" d="m60.4 103.3c0.4 0.4 0.6 1.1 0.5 1.7 0 1.3-1.1 2.4-2.4 2.4h-0.3c-0.6 0-1.2-0.4-1.6-0.8-0.4-0.4-0.6-1.1-0.5-1.7 0-0.7 0.3-1.3 0.8-1.8 0.5-0.5 1.2-0.7 1.9-0.6 0.7 0.1 1.3 0.4 1.6 0.8z"/><path class="a" d="m29.4 100.2c0.5-0.5 1.2-0.7 1.9-0.6 1.4 0.1 2.3 1.3 2.2 2.6 0 1.3-1.1 2.3-2.4 2.3h-0.3c-0.6 0-1.2-0.3-1.6-0.8-0.4-0.5-0.6-1.2-0.5-1.8 0-0.7 0.3-1.3 0.7-1.7z"/><path class="a" d="m39 100.5h0.4c0.6 0 1.2 0.3 1.6 0.8 0.4 0.4 0.6 1.1 0.5 1.7 0 1.3-1.1 2.4-2.4 2.4h-0.3c-1.3-0.1-2.3-1.3-2.2-2.6 0-1.3 1.1-2.4 2.4-2.3z"/><path class="a" d="m19.7 101.2c0-1.3 1.1-2.4 2.4-2.4 1.3 0 2.4 1.1 2.4 2.4 0 1.3-1.1 2.4-2.4 2.4h-0.3c-0.6 0-1.2-0.3-1.6-0.8-0.4-0.5-0.6-1.1-0.5-1.7"/><path class="a" d="m10.8 101.6c-0.4-0.4-0.6-1.1-0.5-1.7 0-0.7 0.3-1.3 0.8-1.8 0.5-0.5 1.2-0.7 1.9-0.6 0.6 0 1.2 0.4 1.6 0.8 0.4 0.4 0.6 1.1 0.5 1.7 0 1.3-1.1 2.4-2.4 2.4h-0.3c-0.6 0-1.2-0.4-1.6-0.8z"/><path class="a" d="m39.7 110.4c0-1.4 1.1-2.5 2.5-2.5 0.7 0 1.3 0.2 1.8 0.7 0.5 0.5 0.7 1.1 0.7 1.8 0 0.7-0.2 1.3-0.7 1.8-0.5 0.5-1.1 0.7-1.8 0.7-1.4 0-2.6-1.2-2.5-2.5z"/><path class="a" d="m51.5 110.4c0 1.4-1.1 2.5-2.5 2.5-0.7 0-1.3-0.2-1.8-0.7-0.5-0.5-0.7-1.1-0.7-1.8 0-0.7 0.2-1.3 0.7-1.8 0.5-0.5 1.1-0.7 1.8-0.7 1.4 0 2.6 1.1 2.5 2.5z"/><path class="a" d="m57 112.1c-0.5 0.5-1.1 0.7-1.8 0.7-1.3 0-2.4-1.1-2.4-2.4 0-1.3 1-2.4 2.4-2.4 1.4 0 2.5 1.1 2.5 2.4 0 0.7-0.2 1.3-0.7 1.7z"/><path class="a" d="m28.2 110.3c0 1.3-0.9 2.3-2.2 2.5-1.3-0.2-2.2-1.2-2.2-2.5 0-1.3 0.9-2.3 2.2-2.5 1.3 0.2 2.2 1.2 2.2 2.5z"/><path class="a" d="m33.6 107.9c1-0.4 2.1-0.1 2.8 0.6 0.7 0.8 0.9 1.9 0.5 2.8-0.4 0.9-1.4 1.5-2.4 1.5-0.7 0-1.3-0.2-1.8-0.7q-0.6-0.7-0.6-1.8c0-1 0.6-1.9 1.5-2.4z"/><path class="a" d="m18.3 108.5c0.5 0.5 0.7 1.1 0.7 1.8 0 0.7-0.2 1.3-0.7 1.8-0.5 0.5-1.1 0.7-1.8 0.7-0.7 0-1.3-0.2-1.8-0.7q-0.6-0.7-0.6-1.8c0-0.7 0.2-1.3 0.7-1.8 0.5-0.5 1.1-0.7 1.8-0.7 0.7 0 1.3 0.2 1.7 0.7z"/><path class="a" d="m62.6 112.2c-0.5 0.5-1.1 0.7-1.8 0.7-1.4 0-2.5-1-2.5-2.4 0-1.4 1.1-2.5 2.5-2.5 1.4 0 2.5 1 2.5 2.4 0 0.7-0.2 1.3-0.7 1.8z"/><path class="a" d="m43.5 117.2c0-0.6 0.1-1.2 0.6-1.7 0.5-0.5 1.1-0.8 1.7-0.8 0.7-0.1 1.4 0.1 1.9 0.6 0.5 0.5 0.8 1.1 0.8 1.8 0 0.6-0.2 1.2-0.6 1.7-0.4 0.5-1 0.8-1.6 0.8h-0.3c-1.3 0.1-2.4-1-2.5-2.4z"/><path class="a" d="m55.3 116.5c0.1 0.6-0.1 1.2-0.5 1.7-0.4 0.5-1 0.8-1.6 0.8h-0.5c-1.3 0-2.4-1.1-2.4-2.4-0.1-0.6 0.1-1.2 0.5-1.7 0.4-0.5 1-0.8 1.6-0.8 0.7-0.1 1.4 0.1 1.9 0.6 0.5 0.5 0.8 1.1 0.8 1.8"/><path class="a" d="m57.9 113.6c0.7-0.1 1.4 0.1 1.9 0.6 0.5 0.5 0.8 1.1 0.8 1.8 0.1 0.6-0.1 1.2-0.5 1.7-0.4 0.4-1 0.7-1.6 0.8h-0.3c-1.3-0.2-2.2-1.2-2.2-2.5 0-1.3 0.9-2.3 2.2-2.5"/><path class="a" d="m28.5 118.6c0-1.3 1.1-2.4 2.4-2.4 1.3 0 2.4 1.1 2.4 2.4 0.1 0.7-0.1 1.3-0.5 1.8-0.4 0.5-1 0.8-1.6 0.8h-0.3c-1.3 0-2.4-1.1-2.4-2.4"/><path class="a" d="m37 116.4c0.4-0.4 1-0.7 1.6-0.8 0.7-0.1 1.4 0.1 1.9 0.6 0.5 0.5 0.8 1.1 0.8 1.8 0.1 0.6-0.1 1.2-0.5 1.7-0.4 0.4-1 0.7-1.6 0.8h-0.3c-1.3 0-2.4-1.1-2.4-2.4-0.1-0.6 0.1-1.2 0.5-1.7z"/><path class="a" d="m23.8 121.2c-0.4 0.4-1 0.7-1.6 0.8h-0.3c-1.3-0.1-2.2-1.1-2.3-2.4-0.1-1.3 0.8-2.4 2.1-2.6h0.3c1.3 0 2.4 1.1 2.4 2.4 0.1 0.6-0.1 1.3-0.6 1.8z"/><path class="a" d="m11.7 118.2c1.4-0.1 2.5 0.9 2.6 2.2 0.1 1.3-0.8 2.5-2.1 2.7h-0.3c-1.3-0.2-2.2-1.2-2.2-2.5 0-1.3 0.9-2.3 2.2-2.5"/><path class="a" d="m44.1 127h-0.6c-1.3 0-2.3-1-2.4-2.3-0.2-1.2 0.7-2.4 1.9-2.6h0.6c1.3 0 2.4 1 2.4 2.3 0.2 1.2-0.7 2.4-1.9 2.6z"/><path class="a" d="m52.3 124.7c-0.3 0.5-0.9 0.8-1.5 0.9h-0.6c-1.3 0-2.3-1-2.4-2.3-0.1-0.6 0.1-1.2 0.4-1.7 0.3-0.5 0.9-0.8 1.5-0.9h0.6c1.3 0 2.3 1 2.4 2.3 0.1 0.6-0.1 1.2-0.4 1.7z"/><path class="a" d="m58.8 121.7c0.2 1.2-0.7 2.3-1.9 2.6h-0.6c-1.3 0-2.4-1-2.4-2.3-0.2-1.2 0.6-2.4 1.9-2.6h0.6c1.3 0.1 2.3 1.1 2.4 2.3z"/><path class="a" d="m30.2 127.6c0.1 0.6 0 1.2-0.4 1.7-0.3 0.5-0.9 0.8-1.5 0.9h-0.6c-1.3 0-2.3-1-2.4-2.3-0.2-1.2 0.6-2.4 1.9-2.6h0.6c1.3 0.1 2.3 1.1 2.4 2.3z"/><path class="a" d="m36.5 128.5h-0.6c-1.3 0-2.3-1-2.4-2.3-0.1-1.2 0.7-2.4 2-2.6h0.6c1.3 0 2.4 1 2.4 2.3 0.2 1.2-0.7 2.4-2 2.6z"/><path class="a" d="m20.9 129.5c0.1 0.6 0 1.2-0.4 1.7-0.3 0.5-0.9 0.8-1.5 0.9h-0.5c-1.3 0-2.3-1-2.4-2.3-0.2-1.2 0.6-2.4 1.9-2.6h0.6c1.3 0.1 2.3 1.1 2.3 2.3z"/><path class="a" d="m62.3 123.2h-0.6c-1.3 0-2.3-1-2.4-2.3-0.2-1.2 0.7-2.4 1.9-2.6h0.6c1.3 0.1 2.3 1 2.4 2.3 0.2 1.2-0.6 2.4-1.9 2.6z"/><path class="a" d="m46.4 130.7c-0.2-1.2 0.5-2.4 1.7-2.7 0.3 0 0.5 0 0.8 0 1.3 0 2.3 1 2.4 2.2 0.2 1.2-0.5 2.4-1.7 2.7-0.3 0-0.5 0-0.8 0-1.2-0.1-2.2-1-2.4-2.2z"/><path class="a" d="m54.3 126.1h0.8c1.2 0.1 2.3 1 2.4 2.2 0.2 1.2-0.5 2.4-1.7 2.7-0.3 0.1-0.5 0.1-0.8 0-1.2 0-2.3-1-2.4-2.2-0.2-1.2 0.6-2.3 1.7-2.7z"/><path class="a" d="m63.1 126.3c0.2 1.2-0.5 2.4-1.7 2.7-0.7 0.2-1.5 0.1-2.1-0.3-0.6-0.4-1-1.1-1.1-1.8-0.2-1.2 0.5-2.4 1.7-2.7 0.3-0.1 0.5-0.1 0.8 0 1.2 0 2.3 1 2.4 2.2"/><path class="a" d="m31.9 135.3c-0.2-1.2 0.5-2.4 1.7-2.7 0.3-0.1 0.5-0.1 0.8 0 1.3 0 2.3 1 2.4 2.2 0.3 1.2-0.4 2.4-1.6 2.7q-0.4 0-0.9 0c-1.3-0.1-2.3-1-2.4-2.2z"/><path class="a" d="m42.9 134.9h-0.8c-1.2-0.1-2.2-1-2.4-2.2-0.2-1.2 0.5-2.4 1.7-2.7h0.8c1.2 0.1 2.3 1 2.4 2.2 0.2 1.2-0.5 2.4-1.7 2.7z"/><path class="a" d="m28.1 137.3c0.2 1.2-0.5 2.4-1.7 2.7h-0.8c-1.2 0-2.3-1-2.4-2.2-0.2-1.2 0.5-2.4 1.7-2.7h0.8c1.3 0 2.3 1 2.4 2.2z"/><path class="a" d="m19 140.3c0.2 1.2-0.5 2.4-1.7 2.7h-0.8c-1.2 0-2.3-1-2.4-2.2-0.2-1.2 0.5-2.4 1.7-2.7h0.8c1.2 0 2.3 1 2.4 2.2z"/><path class="a" d="m45.3 138.6c-0.3-1.1 0.3-2.3 1.4-2.7 0.4-0.2 0.7-0.3 1.1-0.3 1.2 0.1 2.2 0.9 2.4 2.1 0.3 1.1-0.3 2.3-1.4 2.7-0.3 0.2-0.6 0.3-1 0.3-1.2-0.1-2.2-1-2.5-2.1z"/><path class="a" d="m51.8 135.8c-0.3-1.1 0.3-2.3 1.4-2.7 0.3-0.1 0.7-0.1 1 0 1.2 0.1 2.2 0.9 2.4 2.1 0.3 1.1-0.3 2.3-1.4 2.7-0.4 0.1-0.7 0.1-1.1 0-1.2-0.1-2.1-0.9-2.3-2.1z"/><path class="a" d="m57.5 133.4c-0.3-1.1 0.3-2.3 1.4-2.7 0.3-0.2 0.6-0.3 1-0.3 1.2 0 2.2 0.9 2.4 2.1 0.1 0.7-0.1 1.4-0.6 2-0.5 0.5-1.2 0.9-1.9 0.9-1.2 0-2.2-0.9-2.3-2z"/><path class="a" d="m30.6 145c-0.1-0.7 0.1-1.4 0.6-2 0.5-0.5 1.2-0.9 1.9-0.9 1.2 0 2.2 0.9 2.4 2.1 0.3 1.1-0.3 2.3-1.4 2.7-0.3 0.1-0.6 0.2-1 0.2-1.2-0.1-2.2-1-2.5-2.1z"/><path class="a" d="m40.8 143.8c-1.2-0.1-2.2-0.9-2.4-2.1-0.1-0.7 0.1-1.4 0.6-2 0.5-0.5 1.2-0.9 1.9-0.9 1.2 0 2.2 0.9 2.4 2.1 0.3 1.1-0.3 2.3-1.4 2.7-0.4 0.1-0.7 0.1-1.1 0"/><path class="a" d="m22 148.7c-0.3-1.1 0.3-2.3 1.4-2.7 0.3-0.1 0.6-0.2 1-0.2 1.2 0.1 2.2 0.9 2.4 2.1 0.3 1.1-0.3 2.3-1.4 2.7-0.3 0.1-0.6 0.2-1 0.2-1.2 0-2.2-0.9-2.4-2.1z"/><path class="a" d="m67.2 130.6c0.3 1.1-0.3 2.3-1.4 2.7-0.3 0.1-0.7 0.1-1 0-1.2-0.1-2.2-0.9-2.4-2.1-0.3-1.1 0.3-2.3 1.4-2.7 0.4-0.2 0.7-0.3 1.1-0.3 1.2 0.1 2.2 1 2.4 2.1"/><path class="a" d="m51.8 143.3c-0.3-1.1 0.2-2.2 1.2-2.7 0.3-0.2 0.8-0.3 1.2-0.3 1.1 0.1 2.1 0.9 2.4 2 0.3 1-0.2 2.2-1.2 2.7-0.3 0.2-0.8 0.3-1.2 0.3-1.2-0.1-2.2-0.9-2.4-2z"/><path class="a" d="m62.4 138.9c0.3 1.1-0.2 2.2-1.2 2.7-0.3 0.3-0.8 0.4-1.2 0.4-1.2-0.1-2.1-0.9-2.4-2-0.3-1 0.2-2.2 1.2-2.7 0.3-0.2 0.8-0.3 1.2-0.3 1.1 0.1 2.1 0.9 2.4 1.9z"/><path class="a" d="m67.4 136.2c0.3 1.1-0.2 2.2-1.2 2.7-0.3 0.2-0.8 0.3-1.2 0.3-1.2-0.1-2.1-0.9-2.4-2-0.3-1 0.2-2.2 1.2-2.7 0.3-0.2 0.8-0.3 1.2-0.3 1.2 0 2.1 0.8 2.4 2z"/><path class="a" d="m38.6 150.7c-0.3-1.1 0.2-2.2 1.2-2.7 0.3-0.2 0.8-0.3 1.2-0.3 1.2 0.1 2.1 0.9 2.4 2 0.3 1.1-0.2 2.2-1.2 2.7-0.3 0.3-0.8 0.4-1.2 0.4-1.2-0.1-2.1-0.9-2.4-2.1z"/><path class="a" d="m45.5 146.8c-0.3-1 0.2-2.2 1.2-2.7 0.3-0.2 0.8-0.3 1.2-0.3 1.2 0.1 2.1 0.9 2.4 2 0.3 1.1-0.2 2.2-1.2 2.7-0.3 0.2-0.8 0.3-1.2 0.3-1.1-0.1-2.1-0.9-2.4-2z"/><path class="a" d="m33.1 157.1c-1.1-0.1-2.1-0.9-2.4-2-0.2-1 0.2-2.2 1.2-2.7 0.4-0.2 0.9-0.3 1.3-0.3 1.2 0.1 2.1 0.9 2.4 2 0.3 1.1-0.2 2.2-1.2 2.7-0.4 0.2-0.8 0.4-1.3 0.3z"/><path class="a" d="m27 159c0.3 1.1-0.2 2.2-1.2 2.7-0.3 0.2-0.8 0.3-1.2 0.3-1.1-0.1-2.1-0.9-2.4-2-0.3-1 0.2-2.2 1.2-2.7 0.3-0.2 0.8-0.3 1.2-0.3 1.2 0 2.1 0.9 2.4 2z"/><path class="a" d="m52.4 151.3c-0.3-1 0-2.1 0.9-2.7 0.5-0.3 1-0.5 1.5-0.5 1.1 0.1 2.1 0.8 2.4 1.9 0.2 0.7 0.1 1.5-0.4 2.1-0.4 0.6-1.1 1-1.9 1-1.1 0-2-0.8-2.5-1.8z"/><path class="a" d="m60.5 144c1.1 0.1 2.1 0.8 2.4 1.9 0.3 1 0 2.1-0.9 2.7-0.4 0.3-0.9 0.5-1.4 0.5-1.1-0.1-2.1-0.8-2.4-1.9-0.3-1 0-2 0.9-2.6 0.4-0.3 0.9-0.5 1.4-0.6z"/><path class="a" d="m67.9 142.4c0.4 1 0 2.1-0.9 2.7-0.5 0.3-1 0.5-1.5 0.5-1.1-0.1-2.1-0.8-2.4-1.9-0.4-1 0-2.1 0.9-2.7 0.5-0.3 1-0.5 1.5-0.5 1.1 0.1 2.1 0.8 2.4 1.9z"/><path class="a" d="m41.9 162.3c-1.1 0-2.1-0.7-2.4-1.8-0.2-0.7 0-1.5 0.4-2.1 0.4-0.6 1.1-1 1.9-1 1.1 0.1 2.1 0.8 2.4 1.9 0.4 1 0 2.1-0.9 2.7-0.4 0.3-0.9 0.4-1.4 0.3z"/><path class="a" d="m46.4 155.5c-0.3-0.9 0-2 0.9-2.6 0.4-0.3 0.9-0.5 1.4-0.5 1.1 0.1 2.1 0.8 2.4 1.9 0.4 1 0 2.1-0.9 2.7-0.4 0.3-0.9 0.5-1.4 0.5-1.1 0-2.1-0.8-2.4-2z"/><path class="a" d="m35.7 167.4c-0.4 0.3-0.9 0.5-1.4 0.5-1.1 0-2.1-0.7-2.4-1.8-0.3-1 0-2.1 0.9-2.7 0.4-0.3 0.9-0.5 1.4-0.5 1.1 0.1 2.1 0.8 2.4 1.9 0.3 1-0.1 2.1-0.9 2.6z"/><path class="a" d="m72.6 139.1c0.4 1 0 2.1-0.9 2.7-0.4 0.3-0.9 0.5-1.4 0.5-1.1-0.1-2.1-0.8-2.4-1.9-0.3-1 0-2 0.9-2.6 0.4-0.3 0.9-0.5 1.4-0.5 1.1 0 2.1 0.8 2.4 1.8z"/><path class="a" d="m62.2 156.3c-1.1 0-2-0.7-2.4-1.7-0.4-0.9-0.1-2 0.7-2.6 0.4-0.4 1-0.6 1.6-0.6 1 0 2 0.7 2.4 1.7 0.3 0.9 0.1 2-0.7 2.6-0.5 0.4-1.1 0.6-1.6 0.6z"/><path class="a" d="m69.4 148.7c0.3 0.9 0.1 2-0.7 2.6-0.4 0.4-1 0.6-1.6 0.6-1.1 0-2-0.7-2.4-1.7-0.4-0.9-0.1-2 0.7-2.6 0.4-0.4 1-0.6 1.6-0.6 1.1 0 2 0.7 2.4 1.7z"/><path class="a" d="m73.6 144.7c0.3 0.8 0.1 1.6-0.3 2.2-0.4 0.7-1.1 1.1-1.9 1.1-1.1 0-2-0.7-2.4-1.7-0.3-0.9-0.1-2 0.7-2.6 0.4-0.4 1-0.6 1.6-0.6 1.1 0.1 2.1 0.7 2.3 1.6z"/><path class="a" d="m48.4 164.6c-0.4-0.9-0.1-2 0.7-2.6 0.4-0.4 1-0.6 1.6-0.6 1.1 0 2 0.7 2.4 1.7 0.3 0.9 0.1 2-0.7 2.6-0.4 0.4-1 0.6-1.6 0.6-1.1 0-2-0.7-2.4-1.7z"/><path class="a" d="m54.3 159.3c-0.4-0.9-0.1-2 0.7-2.6 0.4-0.4 1-0.6 1.6-0.6 1 0 2 0.7 2.4 1.7 0.3 0.9 0.1 2-0.7 2.6-0.4 0.4-1 0.6-1.6 0.6-1 0-2-0.7-2.4-1.7z"/><path class="a" d="m46.1 171.1c-0.5 0.7-1.2 1.1-2 1.1-1.1 0-2-0.7-2.4-1.7-0.4-0.9-0.1-2 0.7-2.6 0.4-0.4 1-0.6 1.6-0.6 1 0 2 0.7 2.4 1.7 0.2 0.8 0.1 1.6-0.3 2.1z"/><path class="a" d="m39.4 175.2c0.3 0.9 0.1 2-0.7 2.6-0.6 0.5-1.5 0.7-2.3 0.5-0.8-0.2-1.4-0.8-1.7-1.6-0.4-0.9-0.1-2 0.7-2.6 0.4-0.4 1-0.6 1.6-0.6 1.1 0.1 2.1 0.7 2.4 1.7z"/><path class="a" d="m62.1 162c-0.4-0.8-0.2-1.8 0.4-2.5 0.5-0.5 1.1-0.8 1.8-0.8 1.1 0.1 2 0.7 2.4 1.7 0.3 0.7 0.2 1.5-0.2 2.2-0.5 0.7-1.2 1.1-2 1.1-1.1 0-2-0.6-2.4-1.7z"/><path class="a" d="m71.3 155.4c0.3 0.7 0.3 1.5-0.2 2.2-0.5 0.7-1.2 1.1-2 1.1-1 0-2-0.7-2.4-1.6-0.3-0.8-0.2-1.6 0.2-2.3 0.5-0.6 1.2-1.1 2-1.1 1.1 0 2 0.7 2.4 1.7z"/><path class="a" d="m73.1 149.1c1 0 2 0.6 2.4 1.6 0.4 0.9 0.2 1.9-0.5 2.6-0.5 0.5-1.1 0.8-1.8 0.8-1 0-2-0.7-2.4-1.6-0.4-0.8-0.2-1.8 0.5-2.5q0.8-0.7 1.8-0.9z"/><path class="a" d="m51.1 173.9c-0.4-0.8-0.2-1.8 0.5-2.5 0.5-0.5 1.1-0.8 1.8-0.8 1.1 0.1 2 0.7 2.4 1.7 0.4 0.8 0.2 1.8-0.4 2.5-0.5 0.5-1.1 0.8-1.8 0.8-1 0-2-0.7-2.5-1.7z"/><path class="a" d="m57 167.7c-0.4-0.8-0.2-1.8 0.5-2.5 0.5-0.5 1.1-0.8 1.8-0.8 1 0 2 0.6 2.4 1.6 0.4 0.8 0.2 1.8-0.5 2.5-0.5 0.5-1.1 0.8-1.8 0.8-1.1 0-2-0.6-2.4-1.6z"/><path class="a" d="m49.3 181.3c-0.5 0.7-1.2 1.1-2 1.1-1.1 0-2-0.6-2.4-1.6-0.5-0.8-0.3-1.8 0.4-2.5 0.5-0.5 1.1-0.8 1.8-0.8 1 0 2 0.6 2.4 1.6 0.3 0.8 0.2 1.6-0.2 2.2z"/><path class="a" d="m79.1 146.7c0.4 0.8 0.3 1.8-0.4 2.5-0.5 0.5-1.1 0.8-1.8 0.8-1.1 0-2-0.6-2.4-1.6-0.4-0.8-0.2-1.8 0.5-2.5 0.5-0.5 1.1-0.8 1.8-0.8 1.1 0 2 0.6 2.3 1.6z"/><path class="a" d="m72.1 160.5c1 0 1.9 0.6 2.4 1.5 0.3 0.8 0.2 1.8-0.3 2.5-0.4 0.6-1.1 1-1.9 1-1 0-1.9-0.6-2.4-1.5-0.3-0.8-0.2-1.8 0.3-2.5 0.5-0.7 1.2-1 1.9-1z"/><path class="a" d="m78.3 156.7c0.4 0.8 0.3 1.8-0.3 2.5-0.4 0.6-1.1 1-1.9 1-1 0-1.9-0.6-2.4-1.5-0.4-0.8-0.3-1.8 0.3-2.5 0.4-0.6 1.1-1 1.9-1 1 0 1.9 0.6 2.4 1.5z"/><path class="a" d="m81.7 152c0.4 0.8 0.3 1.8-0.3 2.5-0.4 0.6-1.1 1-1.9 1-1 0-1.9-0.6-2.4-1.5-0.3-0.8-0.2-1.8 0.3-2.5 0.4-0.6 1.1-1 1.9-1 1 0 2 0.6 2.4 1.5z"/><path class="a" d="m60.8 176c-0.3-0.8-0.2-1.8 0.3-2.5 0.4-0.6 1.1-1 1.9-1 1 0 1.9 0.6 2.4 1.5 0.3 0.8 0.2 1.8-0.3 2.5-0.4 0.6-1.1 1-1.9 1-1 0-1.9-0.6-2.4-1.5z"/><path class="a" d="m65.5 169.6c-0.4-0.8-0.3-1.8 0.3-2.5 0.4-0.6 1.1-1 1.9-1 1 0 1.9 0.6 2.4 1.5 0.4 0.8 0.3 1.8-0.3 2.5-0.4 0.6-1.1 1-1.9 1-1 0-1.9-0.6-2.4-1.5z"/><path class="a" d="m60 181.3c0.3 0.8 0.2 1.8-0.3 2.5-0.4 0.6-1.1 1-1.9 1-1 0-1.9-0.6-2.4-1.5-0.3-0.8-0.2-1.8 0.3-2.5 0.4-0.6 1.1-1 1.9-1 1 0 1.9 0.6 2.4 1.5z"/><path class="a" d="m54.2 189.2c0.4 0.8 0.3 1.8-0.3 2.5-0.4 0.6-1.1 1-1.9 1-1 0-1.9-0.6-2.4-1.5-0.4-0.8-0.3-1.8 0.3-2.5 0.4-0.6 1.1-1 1.9-1 1 0 1.9 0.6 2.4 1.5z"/><path class="a" d="m76.7 172.6c-1-0.1-1.9-0.6-2.4-1.4-0.4-0.8-0.4-1.7 0-2.4 0.5-0.7 1.2-1.2 2.1-1.2 1 0.1 1.9 0.6 2.4 1.4 0.4 0.7 0.4 1.6 0 2.3-0.4 0.7-1.2 1.2-2.1 1.3z"/><path class="a" d="m77.6 162.9c0.4-0.7 1.2-1.2 2.1-1.2 1 0 1.9 0.5 2.4 1.3 0.4 0.8 0.4 1.7 0 2.4-0.5 0.7-1.2 1.2-2.1 1.2-1-0.1-1.9-0.6-2.4-1.4-0.4-0.7-0.4-1.6 0-2.3z"/><path class="a" d="m82.8 156.3c1 0.1 1.9 0.6 2.4 1.4 0.4 0.7 0.4 1.6 0 2.3-0.4 0.7-1.2 1.2-2.1 1.2-1 0-1.9-0.5-2.4-1.3-0.4-0.8-0.4-1.7 0-2.4 0.4-0.7 1.2-1.2 2.1-1.2z"/><path class="a" d="m68.5 186.4c-1-0.1-1.9-0.6-2.4-1.4-0.4-0.8-0.5-1.7 0-2.4 0.5-0.7 1.2-1.2 2.1-1.2 1 0.1 1.9 0.6 2.4 1.4 0.4 0.8 0.4 1.7 0 2.4-0.5 0.7-1.3 1.2-2.1 1.2z"/><path class="a" d="m70.3 177.8c-0.4-0.8-0.4-1.7 0-2.4 0.4-0.7 1.2-1.2 2.1-1.2 1 0.1 1.9 0.6 2.4 1.4 0.4 0.7 0.4 1.6 0 2.3-0.4 0.7-1.2 1.2-2.1 1.2-0.9 0-1.8-0.5-2.4-1.3z"/><path class="a" d="m66 190.9c0.4 0.8 0.4 1.7 0 2.4-0.5 0.7-1.3 1.2-2.1 1.2-1 0-1.9-0.5-2.4-1.3-0.4-0.8-0.5-1.7 0-2.4 0.5-0.7 1.2-1.2 2.1-1.2 1 0 1.8 0.5 2.4 1.3z"/><path class="a" d="m88 152.8c0.4 0.8 0.5 1.7 0 2.4-0.5 0.7-1.3 1.2-2.1 1.2-1 0-1.9-0.5-2.4-1.3-0.4-0.8-0.4-1.7 0-2.4 0.5-0.7 1.2-1.2 2.1-1.2 0.9 0 1.8 0.6 2.4 1.3z"/><path class="a" d="m86.7 171.1c-0.4 0.8-1.2 1.4-2.2 1.4-0.9 0-1.8-0.4-2.3-1.2-0.4-0.7-0.4-1.6 0-2.4 0.4-0.8 1.2-1.3 2.1-1.3 0.9 0 1.8 0.4 2.3 1.2 0.4 0.6 0.4 1.5 0 2.2"/><path class="a" d="m87.1 166.5c-0.9 0-1.8-0.5-2.3-1.2-0.4-0.7-0.4-1.5 0-2.2 0.4-0.8 1.2-1.4 2.2-1.4 0.9 0 1.8 0.5 2.3 1.2 0.4 0.6 0.4 1.5 0 2.2-0.4 0.8-1.2 1.4-2.2 1.4z"/><path class="a" d="m91.5 157.5c0.4 0.7 0.4 1.5 0 2.2-0.4 0.8-1.2 1.4-2.2 1.4-0.9 0-1.8-0.5-2.3-1.2-0.4-0.6-0.4-1.5 0-2.2 0.4-0.8 1.2-1.4 2.2-1.4 0.9 0 1.7 0.5 2.3 1.2z"/><path class="a" d="m78.3 186.2c-0.9 0-1.8-0.5-2.3-1.2-0.4-0.7-0.4-1.5 0-2.2 0.3-0.8 1.2-1.4 2.1-1.4 0.9 0 1.8 0.4 2.3 1.2 0.4 0.7 0.4 1.5 0 2.2-0.3 0.9-1.2 1.5-2.1 1.4z"/><path class="a" d="m79.2 177.8c-0.4-0.6-0.4-1.5 0-2.2 0.4-0.8 1.2-1.4 2.2-1.4 0.9 0 1.8 0.5 2.3 1.2 0.4 0.7 0.4 1.5 0 2.2-0.4 0.8-1.2 1.4-2.2 1.4-1 0-1.8-0.5-2.3-1.2z"/><path class="a" d="m76.9 190.7c0.4 0.7 0.4 1.5 0 2.2-0.4 0.8-1.2 1.4-2.2 1.4-0.9 0-1.8-0.5-2.3-1.2-0.4-0.6-0.4-1.5 0-2.2 0.3-0.8 1.2-1.4 2.1-1.4 0.9 0.1 1.8 0.5 2.4 1.2z"/><path class="a" d="m72.4 199.7c0.4 0.7 0.4 1.5 0 2.2-0.3 0.8-1.2 1.4-2.1 1.4-0.9 0-1.8-0.4-2.3-1.2-0.4-0.7-0.4-1.5 0-2.2 0.4-0.8 1.2-1.4 2.2-1.4 0.9 0 1.8 0.4 2.2 1.2z"/><path class="a" d="m87.4 177.1c-0.5-0.8-0.5-1.7-0.1-2.5 0.4-0.8 1.2-1.3 2.1-1.3 0.8 0 1.7 0.4 2.2 1.1 0.4 0.7 0.6 1.5 0.3 2.2-0.3 1-1.2 1.7-2.3 1.7-0.9 0-1.7-0.4-2.2-1.2z"/><path class="a" d="m91.7 171.8c-0.9 0-1.7-0.4-2.2-1.1-0.5-0.8-0.5-1.7-0.1-2.5 0.4-0.8 1.2-1.3 2.1-1.3 0.9 0 1.7 0.4 2.2 1.1 0.4 0.6 0.6 1.4 0.3 2.1-0.3 1-1.2 1.7-2.3 1.7z"/><path class="a" d="m93.4 161.1c0.9 0 1.7 0.4 2.2 1.1 0.5 0.6 0.6 1.4 0.3 2.1-0.3 1-1.2 1.7-2.3 1.7-0.8-0.1-1.7-0.4-2.2-1.1-0.5-0.6-0.6-1.4-0.3-2.1 0.3-1 1.2-1.7 2.3-1.7z"/><path class="a" d="m86.6 189.9c0.5 0.8 0.5 1.7 0.1 2.5-0.4 0.8-1.2 1.3-2.1 1.3-0.8 0-1.7-0.4-2.2-1.1-0.4-0.7-0.6-1.5-0.3-2.2 0.3-1 1.3-1.7 2.3-1.7 0.9-0.1 1.7 0.3 2.2 1.2z"/><path class="a" d="m87.2 185.5c-0.9 0-1.7-0.4-2.2-1.1-0.5-0.8-0.5-1.7-0.1-2.5 0.4-0.8 1.2-1.3 2.1-1.3 0.8 0 1.7 0.4 2.2 1.1 0.4 0.7 0.6 1.5 0.3 2.2-0.3 1-1.2 1.6-2.3 1.6z"/><path class="a" d="m83.7 198.7c0.5 0.8 0.5 1.7 0.1 2.5-0.4 0.8-1.2 1.3-2.1 1.3-0.9 0-1.7-0.4-2.2-1.1-0.4-0.6-0.5-1.4-0.3-2.1 0.3-1 1.2-1.7 2.3-1.7 0.9 0 1.7 0.4 2.2 1.1z"/><path class="a" d="m97.3 156.8c0.5 0.7 0.6 1.5 0.3 2.2-0.3 1-1.3 1.7-2.3 1.7-0.9 0-1.7-0.4-2.2-1.1-0.5-0.6-0.6-1.4-0.3-2.1 0.3-1 1.2-1.7 2.3-1.7 0.9 0 1.7 0.4 2.2 1z"/><path class="a" d="m97.1 171.8c0.8 0 1.6 0.3 2.1 0.9 0.4 0.6 0.6 1.3 0.4 2-0.2 1.1-1.2 2-2.4 1.9-0.8 0-1.6-0.3-2.1-0.9-0.4-0.6-0.6-1.3-0.4-2 0.2-1.1 1.2-1.9 2.4-1.9z"/><path class="a" d="m98.7 170.4c-0.8 0-1.6-0.4-2.1-1-0.5-0.6-0.7-1.3-0.5-2 0.2-1.1 1.2-1.9 2.4-1.9 0.8 0 1.6 0.3 2.1 0.9 0.4 0.5 0.6 1.3 0.4 2-0.1 1.1-1.2 1.9-2.3 2z"/><path class="a" d="m99.9 164.6c-0.8 0-1.6-0.3-2.1-0.9-0.6-0.8-0.7-1.8-0.3-2.6 0.4-0.8 1.3-1.4 2.2-1.4 0.8 0 1.6 0.4 2.1 1 0.4 0.6 0.6 1.3 0.4 2-0.2 1.1-1.2 1.9-2.3 1.9z"/><path class="a" d="m96.1 187.4c0.5 0.7 0.6 1.6 0.2 2.5-0.4 0.9-1.3 1.4-2.2 1.4-0.8 0-1.6-0.3-2.1-0.9-0.5-0.7-0.6-1.7-0.2-2.5 0.4-0.8 1.2-1.4 2.1-1.4 0.9 0 1.6 0.4 2.2 0.9z"/><path class="a" d="m97.7 179.7c0.4 0.6 0.6 1.3 0.4 2-0.2 1.1-1.2 1.9-2.4 1.9-0.8 0-1.6-0.3-2.1-0.9-0.4-0.5-0.6-1.3-0.4-2 0.2-1.1 1.2-1.9 2.4-1.9 0.8-0.1 1.6 0.3 2.1 0.9z"/><path class="a" d="m94.2 196.2c0.5 0.7 0.6 1.7 0.2 2.5-0.4 0.8-1.2 1.4-2.1 1.4-0.8 0-1.6-0.3-2.1-0.9-0.5-0.7-0.6-1.7-0.2-2.5 0.4-0.8 1.2-1.4 2.1-1.4q1.2 0 2.1 0.9z"/><path class="a" d="m103.5 176.7c0.8-0.1 1.5 0.2 2 0.8q0.8 0.8 0.6 1.8c-0.1 1.3-1.1 2.2-2.4 2.2-0.7 0-1.5-0.3-2-0.8-0.8-0.7-1-1.8-0.6-2.8 0.4-1 1.4-1.6 2.4-1.5"/><path class="a" d="m106.3 170.5q0.8 0.8 0.6 1.8c0 1.3-1.1 2.2-2.4 2.2-0.8 0-1.5-0.3-2-0.8-0.5-0.5-0.7-1.2-0.6-1.9 0.1-1.3 1.2-2.3 2.5-2.2 0.8 0 1.5 0.3 1.9 0.9z"/><path class="a" d="m106.8 164.3q0.8 0.8 0.6 1.8c-0.1 1.3-1.1 2.2-2.4 2.2-0.8 0-1.5-0.3-2-0.8-0.7-0.7-0.8-1.7-0.4-2.6 0.4-0.9 1.3-1.4 2.3-1.4 0.7 0 1.4 0.3 1.9 0.8z"/><path class="a" d="m103.9 193.1q0.8 0.8 0.6 1.8c0 1.3-1.1 2.2-2.4 2.2-0.8 0-1.5-0.3-2-0.8q-0.8-0.7-0.6-1.8c0-1.3 1.1-2.2 2.4-2.2 0.7 0 1.4 0.4 2 0.8z"/><path class="a" d="m104.8 184.9q0.7 0.7 0.6 1.8c-0.1 1.3-1.2 2.3-2.5 2.2-0.8 0-1.5-0.3-2-0.8-0.5-0.6-0.7-1.2-0.6-1.9 0.1-1.3 1.1-2.2 2.4-2.2q1.2 0 2.1 0.9z"/><path class="a" d="m107.3 158.8c0.5 0.6 0.7 1.2 0.6 1.9-0.1 1.3-1.1 2.2-2.4 2.2-0.8 0.1-1.5-0.2-2-0.8q-0.7-0.7-0.6-1.8c0.1-0.6 0.3-1.2 0.8-1.6 0.5-0.4 1.1-0.6 1.7-0.6 0.7-0.1 1.5 0.2 1.9 0.7z"/><path class="a" d="m112.4 173.9c0.5 0.5 0.7 1.1 0.7 1.8 0.1 0.6-0.2 1.2-0.6 1.7-0.5 0.4-1.1 0.7-1.8 0.7-0.9 0.1-1.9-0.3-2.4-1.1-0.5-0.8-0.5-1.8 0-2.6 0.5-0.8 1.4-1.2 2.4-1.1 0.6 0 1.3 0.2 1.7 0.6z"/><path class="a" d="m110.8 166.5c1 0 2 0.6 2.4 1.5 0.4 1 0.2 2.1-0.6 2.8-0.5 0.4-1.1 0.7-1.8 0.7q-1.1 0.1-1.8-0.6c-0.5-0.5-0.7-1.1-0.7-1.8 0-0.6 0.2-1.3 0.7-1.7 0.4-0.5 1.1-0.7 1.8-0.7"/><path class="a" d="m110.7 165.6c-1 0-1.9-0.6-2.3-1.5-0.4-0.9-0.1-2 0.6-2.7 0.5-0.4 1.2-0.6 1.8-0.6 1 0 2 0.5 2.4 1.5 0.4 1 0.2 2.1-0.6 2.8-0.5 0.5-1.2 0.7-1.9 0.7"/><path class="a" d="m112.7 189c0.4 0.5 0.7 1.1 0.7 1.8 0 0.6-0.3 1.2-0.7 1.7-0.5 0.4-1.1 0.7-1.8 0.7-0.7 0-1.3-0.2-1.8-0.7-0.5-0.5-0.7-1.1-0.7-1.8-0.1-0.6 0.2-1.2 0.6-1.7 0.5-0.4 1.1-0.7 1.8-0.7 0.6 0 1.5 0.2 1.9 0.7z"/><path class="a" d="m108.9 184.6c-0.4-0.5-0.7-1.1-0.7-1.8 0-0.6 0.3-1.2 0.7-1.7 0.5-0.4 1.1-0.7 1.8-0.7 0.7 0 1.3 0.2 1.8 0.7 0.4 0.5 0.7 1.1 0.7 1.8 0 0.6-0.3 1.2-0.7 1.7-0.5 0.4-1.1 0.7-1.8 0.7-0.7 0-1.3-0.2-1.8-0.7z"/><path class="a" d="m109.4 200.8c-0.3 0-0.3 0-0.3 0-0.5-0.5-0.7-1.1-0.7-1.7 0-0.6 0.3-1.2 0.7-1.7 0.5-0.5 1.1-0.7 1.8-0.7 1.2 0 2.3 0.9 2.4 2.2 0 0.7-0.2 1.4-0.6 1.9-0.5 0.5-1.3 0.8-2 0.8-0.3 0.1-0.7 0.1-1 0h-0.2-0.3"/><path class="a" d="m112.5 207.4c0.5 0.5 0.7 1.1 0.7 1.8 0.1 0.6-0.2 1.2-0.6 1.7-0.5 0.5-1.1 0.7-1.8 0.7q-1.1 0.1-1.8-0.6c-0.5-0.5-0.7-1.1-0.7-1.8 0-0.6 0.2-1.3 0.7-1.7 0.5-0.4 1.1-0.7 1.8-0.7 0.7 0 1.3 0.2 1.7 0.6z"/><path fill-rule="evenodd" class="a" d="m107.6 159.6c0-0.7 0.3-1.3 0.8-1.8 0.3-0.3 0.7-0.5 1.1-0.6-1.1-0.1-2-1.1-1.9-2.3 0-0.2 0-0.5 0-0.7-0.2-0.3-0.6-0.3-0.9-0.1-0.2 0.2-0.3 0.6-0.2 0.9 0.1 0.3 0.5 0.5 0.8 0.4q0.8 0.7 0.6 1.8c-0.1 0.6-0.3 1.2-0.8 1.6-0.5 0.4-1.1 0.6-1.7 0.6-0.8 0-1.5-0.3-2-0.8-0.5-0.5-0.7-1.2-0.6-1.9 0-1.1 0.8-1.9 1.8-2.1-0.3-0.2-0.6-0.4-0.8-0.6q0 0.1 0 0.3c-0.3 1.1-1.3 1.9-2.4 1.9 0.3 0.2 0.6 0.4 0.9 0.7 0.6 0.8 0.7 1.8 0.3 2.6-0.4 0.8-1.3 1.4-2.2 1.4-0.8 0-1.6-0.4-2.1-1-0.4-0.6-0.6-1.3-0.4-2 1.1 0 2.1-0.8 2.3-1.9 0.2-1.1-0.4-2.2-1.4-2.7 0-0.2 0.1-0.4 0.2-0.6-0.4 0.2-0.9 0.3-1.3 0.3 0.3 0.2 0.4 0.4 0.6 0.6 0.5 0.6 0.6 1.4 0.3 2.1-0.3 1-1.2 1.7-2.3 1.7-0.8 0-1.7-0.4-2.2-1.1-0.4-0.6-0.5-1.4-0.3-2.1 0.3-1.1 1.2-1.7 2.3-1.7-0.2-0.2-0.4-0.4-0.5-0.6-0.1-0.2-0.2-0.3-0.3-0.5q0 0.3 0 0.6c-0.3 0.8-1.2 1.4-2.1 1.4h-0.6c0.3 0.2 0.5 0.4 0.7 0.7 0.4 0.7 0.4 1.5 0 2.2-0.3 0.9-1.1 1.5-2.1 1.5-0.9 0-1.8-0.4-2.3-1.2-0.4-0.7-0.4-1.5 0-2.2 0.4-0.8 1.2-1.4 2.2-1.4h0.6c-0.3-0.2-0.5-0.4-0.7-0.7-0.4-0.7-0.4-1.5 0-2.2 0.1-0.2 0.2-0.4 0.4-0.6-0.3 0-1.1 0-1.4 0 0.1 0.1 0.2 0.2 0.3 0.4 0.4 0.7 0.4 1.6 0 2.3-0.4 0.8-1.2 1.3-2.1 1.3-1-0.1-1.9-0.6-2.4-1.4-0.4-0.8-0.4-1.7 0-2.4 0.5-0.7 1.2-1.2 2.1-1.2h0.6c-0.1-0.1-0.2-0.2-0.3-0.4-0.4-0.8-0.4-1.7 0-2.4 0.1-0.2 0.3-0.4 0.5-0.6-0.2 0-1.1 0-1.3 0 0.4 0.8 0.4 1.8-0.2 2.5-0.4 0.6-1.1 1-1.9 1-0.3 0-0.7-0.1-1-0.3 0.2 0.2 0.3 0.4 0.4 0.6 0.4 0.8 0.3 1.8-0.3 2.5-0.4 0.6-1.1 1-1.9 1-1 0-1.9-0.6-2.4-1.5-0.4-0.8-0.3-1.8 0.3-2.5 0.4-0.6 1.1-1 1.9-1 0.4 0 0.8 0.1 1.1 0.3-0.1-0.2-0.3-0.4-0.4-0.6-0.3-0.8-0.2-1.8 0.3-2.5 0.2-0.2 0.3-0.4 0.5-0.5h-0.3c-0.4-0.1-0.7-0.2-1-0.3 0 0.3 0 0.3 0 0.3 0.4 0.8 0.3 1.8-0.4 2.5-0.5 0.5-1.1 0.8-1.8 0.8-1 0-2-0.7-2.4-1.6-0.3-0.8-0.2-1.6 0.2-2.3 0.5-0.6 1.2-1.1 2-1.1 0.4 0 0.7 0.1 1 0.3v-0.3c-0.1-0.4-0.1-0.7 0-1.1-0.1 0.2-0.2 0.4-0.4 0.5-0.4 0.4-1 0.6-1.6 0.6-0.5 0-1-0.2-1.4-0.5 0 0.1 0 0.3 0 0.4 0.4 0.9 0.1 2-0.7 2.6-0.4 0.4-1 0.6-1.6 0.6-1 0-2-0.7-2.4-1.7-0.3-0.9-0.1-2 0.7-2.6 0.4-0.4 1-0.6 1.6-0.6 0.5 0 1 0.2 1.4 0.5 0-0.1 0-0.3 0-0.4-0.4-0.9-0.1-2 0.7-2.6 0.2-0.2 0.4-0.3 0.6-0.4-0.4-0.1-0.8-0.2-1.2-0.5 0.3 0.9-0.1 2-0.9 2.6-0.5 0.3-1 0.5-1.5 0.5-1.1-0.1-2.1-0.8-2.4-1.9-0.4-1 0-2.1 0.9-2.7 0.4-0.3 0.9-0.5 1.4-0.5 0.5 0 1 0.2 1.4 0.5-0.1-0.5-0.1-1 0-1.4l-0.5 0.4c-0.3 0.2-0.8 0.3-1.2 0.3-0.7 0-1.4-0.3-1.8-0.8 0.3 1.1-0.2 2.2-1.2 2.7-0.3 0.2-0.8 0.3-1.2 0.3-1.2-0.1-2.1-0.9-2.4-2-0.3-1 0.2-2.2 1.2-2.7 0.3-0.2 0.8-0.3 1.2-0.3 0.7 0 1.4 0.3 1.8 0.8-0.3-1.1 0.2-2.2 1.2-2.7q0.3-0.3 0.6-0.3c-0.5-0.1-0.8-0.4-1.1-0.7 0.1 1-0.5 2-1.5 2.4-0.4 0.1-0.7 0.2-1.1 0.2-1.2-0.1-2.2-1-2.4-2.1-0.3-1.1 0.3-2.3 1.4-2.7 0.3-0.1 0.6-0.2 1-0.2 0 0.5 0.3 0.8 0.7 1 0.4 0.1 0.8 0.1 1.1-0.3 0.3-0.4 0.3-0.8 0.1-1.2l-0.5 0.2c-0.3 0.1-0.5 0.1-0.8 0-0.8 0-1.6-0.5-2-1.2 0.1 1.1-0.6 2.2-1.7 2.5q-0.4 0-0.9 0c-1.3 0-2.3-1-2.4-2.2-0.2-1.2 0.5-2.4 1.7-2.7 0.3 0 0.5 0 0.8 0 0.6-0.3 1.4-0.3 2.1 0.1-0.1-0.6 0.1-1.2 0.5-1.7q-0.4 0.3-0.9 0.4h-0.6c-1.3 0-2.3-1-2.4-2.3-0.1-0.6 0.1-1.2 0.4-1.7 0.3-0.5 0.9-0.8 1.5-0.9h0.6c0.8 0 1.6 0.5 2 1.2q0.1-0.6 0.6-1.2c-0.2 0-0.6 0-0.8 0-1.1 0-2-0.7-2.3-1.7-0.1 1.2-1 2.1-2.2 2.2h-0.3c-1.3-0.1-2.2-1.1-2.3-2.4-0.1-1.3 0.8-2.4 2.1-2.6h0.3c0.4 0.9 1.3 1.4 2.3 1.3 1-0.1 1.8-0.8 2-1.8h0.6c-0.3-0.3-0.6-0.7-0.7-1.1-0.3 1-1.3 1.6-2.3 1.6-0.7 0-1.3-0.2-1.8-0.7-0.4-0.5-0.7-1.1-0.6-1.8 0-0.7 0.2-1.3 0.7-1.8 0.5-0.5 1.1-0.7 1.8-0.7 1.1-0.1 2 0.6 2.3 1.6 0.1-0.4 0.4-0.8 0.7-1.1h-0.6c-0.2-1-1-1.8-2-1.9-1-0.1-1.9 0.5-2.3 1.4h-0.3c-0.6 0-1.2-0.4-1.6-0.8-0.4-0.4-0.6-1.1-0.5-1.7 0-0.7 0.3-1.3 0.8-1.8 0.5-0.5 1.2-0.7 1.9-0.6 1.2 0.1 2.1 1 2.2 2.1 0.3-1.1 1.5-1.8 2.6-1.6h0.6c-0.3-0.3-0.4-0.8-0.5-1.2-0.4 0.7-1.2 1.2-2 1.2h-0.6c-1.2-0.3-2.1-1.4-1.9-2.7 0.1-1.3 1.1-2.3 2.4-2.3h0.6c1 0.2 1.8 1.1 1.9 2.1 0.3-0.6 0.9-1 1.5-1.1q-0.5 0-0.9 0c-1.1-0.3-1.8-1.4-1.6-2.5-0.5 0.7-1.2 1.2-2.1 1.2-0.3 0-0.5 0-0.8 0-1.2-0.4-1.9-1.5-1.7-2.7 0.2-1.2 1.2-2.1 2.4-2.2q0.5 0 0.9 0c1.1 0.3 1.8 1.4 1.6 2.5 0.5-0.7 1.2-1.2 2.1-1.2 0.3 0 0.5 0 0.8 0q0.3 0.1 0.6 0.3c-0.1-0.4-0.1-0.9 0-1.3-0.5 0.5-1.1 0.8-1.7 0.8-0.3 0-0.7-0.1-1-0.3-1.1-0.5-1.7-1.6-1.4-2.7 0.2-1.1 1-1.9 2.1-2.1q-0.4-0.1-0.8-0.3c-1-0.5-1.5-1.6-1.2-2.7 0.2-1.2 1.2-2 2.4-2q0.6 0 1.2 0.3c1 0.5 1.5 1.6 1.2 2.7 0.4-0.5 1-0.8 1.7-0.8 0.5 0 0.9 0.2 1.3 0.4l0.6 0.4c-0.1-0.4-0.1-0.9 0-1.3-0.4 0.2-0.9 0.4-1.4 0.4-0.6 0-1.1-0.2-1.5-0.5-0.9-0.6-1.2-1.7-0.9-2.7 0.3-1.1 1.3-1.8 2.4-1.9 0.6 0 1.1 0.2 1.5 0.5 0.9 0.6 1.3 1.7 0.9 2.7 0.4-0.3 0.8-0.5 1.3-0.5l-0.5-0.3c-0.8-0.6-1.1-1.7-0.7-2.6v-0.3c-0.4 0.3-0.9 0.5-1.4 0.5-0.6 0-1.2-0.3-1.6-0.7-0.7-0.6-1-1.7-0.6-2.6 0.4-1 1.3-1.6 2.4-1.7 0.6 0 1.2 0.3 1.6 0.7 0.8 0.6 1.1 1.7 0.7 2.6v0.3c0.4-0.2 0.9-0.4 1.4-0.4 0.6 0 1.2 0.2 1.6 0.6 0.1 0.2 0.3 0.4 0.4 0.6-0.1-0.4-0.1-0.8 0-1.1q0-0.2 0-0.3c-0.3 0.1-0.7 0.2-1 0.2-0.7 0-1.3-0.3-1.8-0.8-0.6-0.7-0.8-1.7-0.4-2.6 0.4-1 1.4-1.6 2.4-1.6 0.7 0 1.4 0.3 1.8 0.8 0.7 0.6 0.8 1.6 0.4 2.5 0.3-0.1 0.7-0.1 1 0h0.5l-0.4-0.4c-0.5-0.8-0.5-1.8 0-2.5 0.1-0.2 0.2-0.4 0.4-0.6-0.4 0.1-0.7 0.2-1.1 0.2-0.7 0-1.5-0.4-1.9-1-0.5-0.8-0.5-1.8 0-2.5 0.5-0.9 1.4-1.5 2.4-1.5 0.8 0.1 1.5 0.5 1.9 1.1 0.5 0.8 0.5 1.8 0 2.5-0.1 0.2-0.2 0.4-0.4 0.6 0.4-0.2 0.7-0.3 1.1-0.3 0.8 0 1.5 0.4 1.9 1.1q0.1 0.3 0.3 0.6c0.1-0.3 0.2-0.6 0.3-0.8l0.4-0.5q-0.3 0-0.6 0c-0.9 0-1.7-0.4-2.1-1.2-0.4-0.8-0.4-1.7 0-2.4 0.6-0.8 1.4-1.3 2.4-1.3 0.9 0 1.7 0.5 2.1 1.2 0.4 0.8 0.4 1.7 0 2.4l-0.3 0.4h0.5q0.4-0.2 0.9 0c-0.3-0.2-0.3-0.6-0.3-0.6-0.4-0.7-0.4-1.5 0-2.2 0.2-0.3 0.4-0.5 0.7-0.7h-0.6c-1 0.1-1.8-0.5-2.2-1.4-0.4-0.7-0.4-1.6 0-2.3 0.5-0.8 1.4-1.2 2.3-1.2 1 0 1.9 0.6 2.2 1.5 0.4 0.7 0.4 1.5 0 2.2-0.2 0.3-0.4 0.5-0.7 0.7h0.6c1-0.1 1.9 0.5 2.2 1.4 0.1 0.2 0.1 0.4 0.2 0.6 0.1-0.2 0.2-0.4 0.3-0.5 0.2-0.3 0.4-0.4 0.6-0.6-1.1 0-2-0.7-2.3-1.7-0.2-0.7-0.1-1.5 0.3-2.1 0.5-0.7 1.3-1.1 2.2-1.1 1.1 0 2 0.7 2.3 1.7 0.2 0.7 0.1 1.5-0.3 2.1-0.2 0.2-0.4 0.4-0.6 0.5 0.4 0 0.8 0.2 1.2 0.4q0-0.3 0-0.6c-0.2-0.7 0-1.4 0.4-2 0.2-0.3 0.5-0.5 0.9-0.7-0.9-0.1-1.7-0.6-2.1-1.4-0.4-0.8-0.3-1.8 0.2-2.5 0.5-0.6 1.3-1 2.1-1 1.2 0 2.2 0.8 2.4 2 0.1 0.7 0 1.4-0.5 2-0.2 0.3-0.6 0.5-0.9 0.7 1.2 0 2.2 0.9 2.4 2 0 0.2 0 0.1 0 0.3q0.5-0.5 0.9-0.6c-1.1-0.2-1.8-1.1-1.9-2.1-0.1-0.7 0.1-1.4 0.6-1.9 0.5-0.5 1.3-0.8 2-0.8 0.8 0 1.5 0.3 2 0.8-0.2-0.5-0.1-1.1 0.1-1.6 0.4-1 1.4-1.6 2.5-1.5 0.6 0 1.3 0.2 1.8 0.7 0.5 0.5 0.7 1.1 0.7 1.7 0 1.1-0.8 2.1-1.9 2.3 0.4 0.1 0.9 0.4 1.2 0.7 0.5 0.5 0.7 1.1 0.7 1.7 0 0.2 0 0.5 0 0.7q0.6-0.5 1.2-0.6c-0.3-0.2-0.6-0.4-0.8-0.6-0.5-0.5-0.7-1.2-0.6-1.9 0.1-1.3 1.1-2.2 2.4-2.2 0.8-0.1 1.5 0.2 2 0.8 0.5 0.5 0.7 1.2 0.6 1.9-0.1 1.1-0.9 1.9-1.9 2.1 0.4 0.2 0.6 0.4 0.9 0.6q0-0.2 0-0.3c0.3-1.1 1.3-1.9 2.4-1.9-0.3-0.2-0.6-0.4-0.9-0.7-0.4-0.5-0.6-1.3-0.4-2 0.2-1.2 1.3-2 2.4-1.9 0.8 0 1.6 0.3 2.1 0.9 0.5 0.7 0.6 1.7 0.2 2.5-0.4 0.8-1.2 1.4-2.1 1.4 0.3 0.1 0.6 0.4 0.9 0.7 0.4 0.6 0.6 1.3 0.4 2l-0.3 0.6c0.4-0.3 0.8-0.4 1.3-0.4-0.2-0.1-0.4-0.3-0.6-0.5-0.5-0.8-0.5-1.7-0.1-2.5 0.4-0.7 1.2-1.3 2.1-1.3 0.9 0 1.7 0.4 2.2 1.1 0.5 0.6 0.6 1.4 0.3 2.1-0.3 1.1-1.2 1.7-2.3 1.7l0.6 0.6c0.2 0.1 0.2 0.3 0.3 0.5q0-0.3 0-0.6c0.3-0.8 1.2-1.4 2.1-1.4h0.6c-0.3-0.2-0.5-0.4-0.7-0.7-0.4-0.7-0.4-1.6 0-2.3 0.3-0.9 1.2-1.4 2.1-1.4 0.9 0 1.8 0.4 2.3 1.2 0.4 0.7 0.4 1.6 0 2.3-0.4 0.9-1.3 1.4-2.2 1.4h-0.6c0.3 0.2 0.5 0.4 0.7 0.7 0.4 0.7 0.4 1.5 0 2.2-0.1 0.2-0.2 0.4-0.4 0.6 0.3-0.1 0.5-0.1 0.8 0h0.6l-0.3-0.4c-0.4-0.8-0.4-1.7 0-2.4 0.4-0.7 1.2-1.2 2.1-1.2 1 0.1 1.9 0.6 2.4 1.4 0.4 0.8 0.4 1.7 0 2.4-0.5 0.7-1.2 1.2-2.1 1.2h-0.7c0.1 0.1 0.2 0.2 0.3 0.4 0.2 0.3 0.3 0.5 0.3 0.8 0.1-0.2 0.2-0.3 0.3-0.5 0.4-0.6 1.1-1 1.9-1 0.4 0 0.8 0.1 1.1 0.3-0.1-0.2-0.3-0.4-0.4-0.6-0.4-0.8-0.3-1.8 0.3-2.5 0.4-0.6 1.1-1 1.9-1 1 0 1.9 0.6 2.4 1.5 0.4 0.8 0.3 1.8-0.3 2.5-0.4 0.6-1.1 1-1.9 1 0-0.2 0-0.4-0.2-0.6-0.1-0.2-0.4-0.2-0.6-0.1-0.2 0.1-0.3 0.4-0.3 0.6 0 0.3 0.2 0.4 0.4 0.5 0.4 0.8 0.3 1.8-0.3 2.5l-0.3 0.3c0.3-0.1 0.7-0.1 1 0-0.4-0.8-0.2-1.8 0.5-2.5 0.5-0.5 1.1-0.8 1.8-0.8 1.1 0 2 0.6 2.4 1.6 0.3 0.7 0.2 1.5-0.2 2.2-0.5 0.7-1.2 1.1-2 1.1-0.3 0.1-0.7 0.1-1 0 0.1 0.4 0.1 0.8 0 1.1l0.5-0.5c0.4-0.4 1-0.6 1.6-0.6 0.6 0 1.1 0.2 1.5 0.5q0-0.2 0-0.3c-0.4-0.9-0.1-2 0.7-2.6 0.4-0.4 1-0.7 1.6-0.7 1.1 0.1 2 0.8 2.4 1.8 0.4 0.9 0.1 2-0.7 2.6-0.4 0.4-1 0.6-1.6 0.6-0.6 0-1.1-0.2-1.5-0.5v0.3c0.3 0.7 0.2 1.6-0.3 2.2-0.5 0.6-1.2 1-2 1h-1.4c0.2 0.6 0.1 1.3-0.2 1.8-0.2 0.3-0.4 0.6-0.7 0.9-0.5 0.5-1.2 0.8-1.9 0.8-0.6 0-1.1-0.2-1.6-0.5l-0.6-0.5q0-0.2 0-0.3c-0.1-0.1-0.2-0.3-0.3-0.4l-1.3-1.3-0.6-0.5-0.8-0.7-0.6-0.5-0.8-0.7-0.5-0.4-0.9-0.7-1.5-1-0.7-0.4-0.9-0.5-1.6-0.8c-0.2-0.2-0.5-0.3-0.8-0.4l-0.8-0.4-0.9-0.4-0.8-0.3-1-0.3-0.7-0.3-1.2-0.3h-2.3l-1-0.2h-6.3c-15.9 0.1-29.8 10.7-33.8 26-4 15.3 2.8 31.4 16.6 39.2 13.8 7.8 31.2 5.4 42.4-5.8l0.4-0.5c0.2-0.2 0.3-0.3 0.5-0.4 0.5-0.4 1.1-0.6 1.7-0.6 0.8 0 1.5 0.3 2 0.8 0.3 0.2 0.5 0.5 0.7 0.9 0.2 0.6 0.2 1.3 0 1.9q0.3 0 0.6 0c0.6 0 1.2 0.3 1.6 0.7 0.8 0.6 1.1 1.7 0.7 2.6v0.3c0.4-0.3 0.9-0.5 1.4-0.5 0.8 0 1.5 0.4 2 1 0.4 0.6 0.5 1.5 0.3 2.2-0.4 1-1.3 1.6-2.4 1.7-0.6 0-1.2-0.2-1.6-0.6-0.7-0.6-1-1.7-0.6-2.6v-0.3c-0.4 0.2-0.9 0.4-1.4 0.4-0.6 0-1.2-0.2-1.6-0.6l-0.4-0.5c0.1 0.3 0.1 0.7 0 1v0.3c0.3-0.1 0.7-0.2 1-0.2 0.7 0 1.4 0.3 1.8 0.8 0.6 0.7 0.8 1.7 0.4 2.6-0.4 1-1.4 1.6-2.4 1.6q-0.5 0-1-0.2c0.3 0.2 0.6 0.4 0.8 0.7 0.6 0.7 0.7 1.7 0.3 2.5-0.5 0.8-1.4 1.4-2.4 1.4-0.7 0-1.5-0.4-1.9-1-0.5-0.8-0.5-1.7 0-2.5 0.1-0.3 0.2-0.4 0.4-0.6-1.1 0.5-2.3 0.2-3-0.8q-0.1-0.3-0.3-0.6c-0.1 0.3-0.2 0.6-0.3 0.8-0.1 0.2-0.2 0.4-0.3 0.5q0.3 0 0.6 0c0.8 0 1.6 0.5 2 1.2 0.4 0.7 0.4 1.6 0 2.3-0.5 0.9-1.3 1.4-2.3 1.4-0.9 0-1.7-0.4-2.1-1.2-0.4-0.7-0.4-1.6 0-2.3 0-0.2 0.2-0.4 0.3-0.5-0.3 0-1.1 0-1.4 0 0.1 0.2 0.2 0.3 0.3 0.5 0.4 0.7 0.4 1.6 0 2.3-0.2 0.2-0.4 0.4-0.7 0.6h0.6c0.9 0 1.7 0.5 2.1 1.4 0.4 0.7 0.4 1.6 0 2.3-0.5 0.8-1.4 1.2-2.3 1.2-1 0.1-1.8-0.5-2.2-1.4-0.4-0.7-0.4-1.5 0-2.2 0.2-0.3 0.4-0.5 0.7-0.7h-0.6c-1 0-1.8-0.5-2.2-1.4q0-0.3 0-0.6l-0.3 0.5c-0.2 0.2-0.4 0.4-0.6 0.5 0.9 0 1.7 0.5 2.1 1.3 0.4 0.8 0.4 1.8-0.1 2.5-0.5 0.7-1.3 1.1-2.2 1.1-1.1 0-2-0.7-2.3-1.7-0.2-0.7-0.1-1.5 0.3-2.1 0.2-0.2 0.4-0.4 0.6-0.5-0.4 0-0.9-0.1-1.3-0.4 0.1 0.2 0.2 0.4 0.2 0.6 0.2 0.7 0 1.4-0.4 2-0.2 0.3-0.6 0.5-0.9 0.7 0.9 0.1 1.7 0.6 2.1 1.4 0.4 0.8 0.3 1.8-0.2 2.5-0.5 0.6-1.3 0.9-2.1 0.9-0.9-0.1-1.8-0.6-2.2-1.4-0.4-0.8-0.3-1.8 0.2-2.5 0.3-0.3 0.6-0.5 0.9-0.7-0.7 0-1.4-0.3-1.9-0.8q0.4 0.5 0.5 1.2c0.1 0.7-0.1 1.4-0.6 1.9-0.5 0.5-1.3 0.8-2 0.8-1.3 0-2.4-0.9-2.5-2.2-0.1-0.7 0.1-1.4 0.6-1.9 0.2-0.3 0.5-0.5 0.8-0.6q-0.8-0.1-1.2-0.6 0 0.3 0 0.6c0.1 0.6-0.2 1.2-0.6 1.7-0.7 0-1.3 0.4-1.5 1-0.2 0.6-0.1 1.3 0.4 1.7 0.5 0.4 1.2 0.5 1.8 0.2 0.1 0.6-0.2 1.2-0.6 1.7-0.5 0.5-1.2 0.7-1.9 0.7-0.7 0-1.3-0.2-1.8-0.7-0.5-0.5-0.7-1.1-0.7-1.8zm9.8-5.4q-0.3-0.4-0.4-0.9c0-0.2 0-0.2 0-0.4q-0.5 0.5-0.9 0.6c0.5 0.1 1 0.4 1.3 0.7zm21.9-7.1q-0.3-0.2-0.6-0.5c-0.4-0.3-0.6-0.7-0.7-1.1q0.1 0.6-0.2 1.1l-0.4 0.6c0.3-0.2 0.6-0.3 1-0.3q0.5 0 0.9 0.2zm-1.3-2q0-0.5 0.2-1v-0.3c-0.3 0.1-0.7 0.1-1 0l0.3 0.3q0.4 0.5 0.5 1zm-27.6-80.9c0.3 0.9 0 1.9-0.7 2.6q-0.5 0.5-0.9 0.6 0.7 0.2 1.2 0.6 0-0.3 0-0.6c0-1.1 0.8-2.1 1.9-2.3-0.4 0-0.9-0.3-1.2-0.6q-0.2-0.1-0.3-0.3zm-0.1-0.2q-0.2-0.4-0.4-0.7 0.1 0.5 0.5 0.9-0.1-0.1-0.1-0.2zm-39.3 24.9q0.2 0 0.4 0-0.2-0.1-0.5-0.1-0.2 0-0.3 0 0.2 0.1 0.4 0.1zm0.4 0q0.3 0 0.6 0.2 0.6 0.3 1 0.8c-0.3-0.6-0.4-1.2-0.2-1.8q-0.6 0.6-1.4 0.8zm1.8 1.2c0.2 0.4 0.3 0.9 0.2 1.4 0.3-0.3 0.7-0.6 1.1-0.7h-0.5q-0.5-0.3-0.8-0.7zm-4.3 30.8q0.3-0.2 0.7-0.3c0.2 0 0.5 0 0.7 0q-0.6-0.3-0.9-0.9-0.1 0.7-0.5 1.2zm48.6 33.5q0-0.1-0.1-0.2 0.1 0.1 0.1 0.2zm22-7.2q-0.1-0.1-0.2-0.1 0.1 0 0.2 0.1zm-1.5-1.7q0-0.2 0-0.4 0 0.2 0 0.4zm-65-55.6q0.1 0.1 0.2 0.2-0.1-0.1-0.2-0.2zm-4.6 31.5q0.3-0.2 0.5-0.5-0.3 0.2-0.5 0.5zm49.2-50.2q0 0.2 0 0.3c0 0.2 0 0.3 0 0.5 0.2-0.1 0.4-0.2 0.6-0.2zm18.6 8.4h-0.6c0 0.2 0 0.3 0 0.5 0.1-0.1 0.2-0.3 0.3-0.4zm-6.7-4.1c0.1-0.2 0.2-0.3 0.3-0.4q-0.5 0-0.9 0 0 0.2 0 0.3l0.2 0.4c0-0.1 0-0.3 0-0.4zm-7.9-3.1q0 0 0 0 0 0 0 0zm0 0.1q-0.2 0-0.4 0l0.4 0.4c0-0.2 0-0.3 0-0.4zm0.1 0l0.2 0.1c0-0.2 0.1-0.3 0.2-0.4q-0.2 0.2-0.4 0.3zm-11.7-1.6c0 0.1 0 0.6 0 0.7l0.6-0.3c-0.2-0.1-0.4-0.3-0.6-0.4zm-7.7 1.2c-0.2-0.1-0.5-0.2-0.7-0.3q0 0.2 0 0.3c0 0.2 0 0.3 0 0.5l0.5-0.4zm-8.2 3h0.1l0.3-0.3c-0.3 0-0.6-0.1-0.9-0.2l0.3 0.4c0.1 0.2 0.1 0.3 0.2 0.5 0-0.3 0-0.4 0-0.4zm-18.7 17h0.3l0.4 0.2q0-0.3 0-0.6zm-1.6 4.5l-0.3-0.2c0 0.3 0 0.5 0 0.8 0.2-0.2 0.4-0.3 0.6-0.4h-0.5zm-1.7 8.3h-0.9c0.2 0.3 0.3 0.5 0.4 0.8 0.1-0.3 0.3-0.4 0.5-0.6zm-0.4 11.7v-0.1c-0.1-0.2-0.3-0.4-0.4-0.6 0 0.3-0.2 0.5-0.4 0.7zm1.3 7.2c0 0.2 0 0.5 0 0.7h0.8c-0.2-0.1-0.3-0.2-0.5-0.4zm2.1 5.3h-0.4c0.3 0.1 0.6 0.2 0.8 0.4 0-0.3 0-0.5 0-0.8-0.1 0.1-0.2 0.2-0.4 0.2zm5 7.1l-0.4 0.3-0.4 0.2q0.5-0.1 0.9 0c-0.1-0.3-0.1-0.5 0-0.8zm60.8-53.3l-0.2 0.3h0.2c0-0.1 0-0.3 0-0.3zm-6.8-5.4q0 0.2 0 0.3c-0.3 0.1-0.3 0.3-0.3 0.3h0.6q-0.3-0.3-0.3-0.6zm-7.8-3.6c-0.1-0.2-0.2-0.3-0.3-0.5 0 0.1 0 0.3 0 0.4 0 0.1 0 0.3 0 0.4h0.7v-0.3zm-13.3-3c0-0.1 0-0.3 0-0.4-0.2 0.2-0.4 0.4-0.7 0.5 0.2 0.1 0.4 0.2 0.6 0.4v-0.6zm-8.1 0.5v-0.4l-0.5 0.4zm-8.7 2.3c0-0.2 0 0.1 0-0.1l-0.3 0.3c0.3 0 0.5 0 0.8 0 0-0.1 0-0.3 0-0.4zm-8.1 3.8q0 0.2 0 0.3h0.8c-0.1-0.1-0.2-0.3-0.3-0.4zm-2.7 1.7h0.1zm0.1 0l0.1 0.1 0.3 0.4c0-0.2 0-0.3 0-0.5zm-0.1-0.1l0.2-0.1h-0.3zm-3.9 3.2c-0.1-0.1-0.2-0.2-0.3-0.4q0.2 0.5 0 0.9c0.3-0.1 0.5-0.1 0.8 0zm-1.8 2.2q0 0.2 0 0.4c0.1 0 0.2 0 0.3 0zm0 0.4c0 0-0.1 0-0.3 0q0.2 0.2 0.3 0.3 0-0.1 0-0.3zm-3.6 4c0.1 0.2 0.1 0.5 0 0.8l0.7-0.3-0.4-0.3zm-6.2 18.8q0.2 0.3 0.3 0.6c0.2-0.2 0.4-0.4 0.4-0.6zm0.3 0.6q0 0-0.1 0h0.1q0 0 0 0zm0 4.9c0.3 0.2 0.5 0.4 0.6 0.7 0-0.3 0.1-0.5 0.3-0.7zm1.7 8.7h-0.4c0.3 0.2 0.5 0.4 0.7 0.6 0-0.3 0.1-0.6 0.2-0.8h-0.5zm4.2 10.1c0.1 0.3 0.1 0.5 0 0.8h0.3c0.1-0.2 0.2-0.3 0.4-0.3-0.2 0-0.4-0.2-0.6-0.3zm5 6.7q0.2 0 0.4 0 0 0 0-0.2zm0.4 0c0 0.1 0 0.2 0 0.3l0.3-0.3q-0.1 0-0.3 0zm3.7 3.7l-0.3 0.3h1c0-0.2 0-0.5 0-0.7l-0.3 0.4zm7.2 4.5c-0.1 0.2-0.2 0.3-0.3 0.4q0.5 0 0.9 0zm7.8 3q0 0 0 0 0 0 0 0zm0 0q0.2-0.1 0.4-0.1c-0.1-0.1-0.3-0.2-0.4-0.4 0 0.2 0 0.3 0 0.5zm0 0l-0.4-0.2c0 0.1 0 0.3 0 0.4q0.1-0.1 0.4-0.2zm19 0c0.3 0 0.6 0.1 0.8 0.3 0-0.2 0-0.7 0-0.9-0.1 0.2-0.3 0.4-0.5 0.5zm7.5-2.8h0.8v-0.3c0-0.1 0 0 0-0.1q-0.2 0.2-0.3 0.3zm7.4-4.3c-0.1-0.1-0.1-0.2-0.2-0.3v0.4h0.5zm-23.5 8.7c0-0.1 0-0.7 0-0.8-0.2 0.2-0.4 0.3-0.6 0.4 0.1 0.1 0.4 0.3 0.6 0.4zm5.1-0.9v0.4l0.5-0.5c-0.2 0-0.5-0.1-0.7-0.3v0.5zm8.5-2.5l0.3-0.3c-0.3 0-0.5 0-0.8 0 0.1 0.2 0.2 0.3 0.2 0.5zm8-3.8q0-0.2 0-0.3h-0.8c0.1 0.1 0.2 0.2 0.3 0.4zm6.9-4.9c0-0.1 0-0.3 0-0.4h-0.3zm-44 8.5l0.2 0.4q0-0.1 0-0.3c0-0.1 0-0.3 0-0.4h-0.6v0.3zm8.6 3c0-0.1 0-0.3 0-0.4 0-0.1 0-0.3 0-0.4h-0.7l0.4 0.4zm5 0.8c0.2-0.2 0.4-0.4 0.7-0.5-0.2-0.1-0.4-0.2-0.6-0.4 0 0.2 0 0.3 0 0.5-0.1 0.1-0.1 0.2-0.1 0.4zm-37.8-52h0.9l0.6 0.3q-0.3-0.4-0.3-0.9-0.5 0.5-1.2 0.6z"/><path class="a" d="m119.9 180.3c-0.5 0.5-1.3 0.8-2 0.8-1.3 0-2.4-0.9-2.5-2.2 0-0.7 0.2-1.4 0.6-1.9 0.5-0.5 1.2-0.8 2-0.8 1 0 2 0.5 2.4 1.5 0.4 1 0.2 2.1-0.6 2.8"/><path class="a" d="m117 174.5c-1.2 0-2.3-1-2.4-2.2 0-0.7 0.2-1.4 0.6-1.9 0.5-0.5 1.3-0.8 2-0.8 1.3 0 2.4 0.9 2.5 2.2 0 0.7-0.2 1.4-0.6 1.9-0.5 0.6-1.3 0.9-2.1 0.8z"/><path class="a" d="m116.4 168.5c-1.2 0-2.3-0.9-2.4-2.2-0.1-0.7 0.1-1.4 0.6-1.9 0.5-0.5 1.3-0.8 2-0.8 1.2-0.1 2.3 0.9 2.4 2.1 0.1 0.7-0.1 1.4-0.6 1.9-0.5 0.6-1.2 0.9-2 0.9z"/><path class="a" d="m119.5 197.2c-1.2 0-2.3-1-2.4-2.2 0-0.7 0.2-1.4 0.6-1.9 0.5-0.5 1.2-0.8 2-0.8 1.2 0 2.3 1 2.4 2.2 0.1 0.7-0.1 1.4-0.6 1.9-0.5 0.6-1.2 0.9-2 0.8z"/><path class="a" d="m116.2 186.7c-0.1-0.7 0.1-1.4 0.6-1.9 0.5-0.5 1.2-0.8 2-0.8 1.2 0 2.3 1 2.4 2.2 0 0.7-0.2 1.4-0.6 1.9-0.5 0.5-1.2 0.8-2 0.8-1.2 0-2.3-0.9-2.4-2.2z"/><path class="a" d="m123.1 205c-0.1 0.3-0.3 0.6-0.5 0.8-0.6 0.5-1.3 0.8-2 0.8-1.3 0-2.4-0.9-2.5-2.2-0.1-0.5 0-1 0.3-1.4l0.3-0.5c0.5-0.5 1.3-0.8 2-0.8 1.2 0 2.3 0.9 2.4 2.2-0.1 0.3-0.1 0.7 0 1.1z"/><path class="a" d="m115.7 162.9c-1.2 0-2.3-0.9-2.4-2.2 0-0.7 0.2-1.4 0.6-1.9 0.5-0.5 1.3-0.8 2-0.8 1.3 0 2.4 0.9 2.5 2.2 0.1 0.7-0.1 1.4-0.6 1.9-0.5 0.6-1.2 0.8-2.1 0.8z"/><path class="a" d="m121.9 175.3c-0.4-0.8-0.3-1.8 0.2-2.5 0.5-0.6 1.3-1 2.1-1 1.2 0 2.2 0.8 2.4 2 0.2 0.7 0 1.5-0.4 2-0.5 0.7-1.3 1-2.1 1-0.9-0.1-1.7-0.6-2.2-1.5z"/><path class="a" d="m120.5 168.4c-0.2-0.7 0-1.4 0.4-2 0.5-0.6 1.3-0.9 2.1-0.9 1.2 0 2.2 0.8 2.4 1.9 0.2 0.7 0 1.4-0.4 2-0.5 0.6-1.3 0.9-2.1 0.9-1.2 0.1-2.2-0.7-2.4-1.9z"/><path class="a" d="m124.1 161.7c0.2 0.7 0 1.4-0.4 2-0.5 0.6-1.3 0.9-2.1 0.9-1.2 0.1-2.2-0.8-2.4-1.9-0.2-0.7 0-1.4 0.4-2 0.5-0.6 1.3-0.9 2.1-0.9 1.2 0 2.2 0.8 2.4 1.9z"/><path class="a" d="m125 189.5c-0.2-0.7 0-1.4 0.4-2 0.5-0.6 1.3-0.9 2.1-0.9 0.9 0.1 1.7 0.6 2.1 1.4 0.4 0.8 0.3 1.8-0.2 2.5-0.5 0.6-1.3 1-2.1 1-1.1 0-2.1-0.8-2.3-2z"/><path class="a" d="m125.7 183.7c-1.2 0.1-2.2-0.8-2.4-1.9-0.2-0.7 0-1.4 0.4-2 0.5-0.6 1.3-0.9 2.1-0.9 0.9 0.1 1.7 0.6 2.1 1.4 0.4 0.8 0.3 1.8-0.2 2.5-0.5 0.6-1.3 0.9-2 0.9z"/><path class="a" d="m133.8 206.9c0.2 0.7 0 1.4-0.4 2-0.5 0.6-1.3 0.9-2.1 0.9-1.2 0-2.2-0.8-2.4-1.9-0.2-0.7-0.1-1.4 0.4-2 0.5-0.6 1.3-0.9 2.1-0.9 1.2-0.1 2.2 0.7 2.4 1.9z"/><path class="a" d="m129.6 176.6c-0.2-0.7-0.1-1.5 0.3-2.1 0.5-0.7 1.3-1.1 2.2-1.1 1.1 0 2 0.7 2.3 1.7 0.3 0.8 0.2 1.6-0.3 2.2-0.5 0.7-1.3 1.1-2.2 1.1-1.1 0.1-2-0.6-2.3-1.8z"/><path class="a" d="m127.4 170.1c-0.2-0.7-0.1-1.5 0.3-2.1 0.5-0.7 1.3-1.1 2.2-1.1 1.1 0 2 0.7 2.3 1.7 0.3 0.8 0.1 1.6-0.3 2.2-0.5 0.7-1.3 1.1-2.2 1.1-1 0.1-1.9-0.6-2.3-1.8z"/><path class="a" d="m127.9 166.1c-1.1 0-2-0.7-2.3-1.7-0.2-0.7-0.1-1.5 0.3-2.1 0.5-0.7 1.3-1.1 2.2-1.1 1.1 0 2 0.7 2.3 1.7 0.3 0.7 0.1 1.5-0.3 2.1-0.5 0.7-1.3 1.1-2.2 1.1z"/><path class="a" d="m136.9 193.7c-1.1 0-2-0.7-2.3-1.7-0.3-0.7-0.2-1.5 0.3-2.1 0.5-0.7 1.3-1.1 2.2-1.1 0.9 0 1.7 0.5 2.1 1.3 0.4 0.8 0.4 1.7-0.1 2.5-0.5 0.6-1.3 1.1-2.2 1.1z"/><path class="a" d="m134.3 185.7c-1.1 0-2-0.7-2.3-1.7-0.3-0.8-0.2-1.6 0.3-2.2 0.5-0.7 1.3-1.1 2.2-1.1 0.9 0 1.7 0.5 2.1 1.3 0.5 0.8 0.4 1.8-0.1 2.5-0.6 0.7-1.4 1.1-2.2 1.2z"/><path class="a" d="m140.1 197.5c1.1 0 2 0.7 2.3 1.7 0.3 0.7 0.2 1.5-0.3 2.1-0.1 0.1-0.2 0.3-0.3 0.4-0.5 0.5-1.3 0.8-2 0.8-1.2 0.1-2.3-0.9-2.4-2.2-0.1-0.6 0.2-1.3 0.6-1.8 0.5-0.5 1.3-0.8 2-0.8"/><path class="a" d="m123.8 159.2c-0.3-0.8-0.2-1.6 0.3-2.2 0.5-0.7 1.3-1.1 2.2-1.1 1.1 0 2 0.7 2.3 1.7 0.2 0.8 0.1 1.6-0.3 2.2-0.5 0.7-1.3 1.1-2.2 1.1-1.1 0-2-0.7-2.3-1.7z"/><path class="a" d="m135 171.4c-0.4-0.7-0.4-1.7 0-2.4 0.5-0.7 1.4-1.2 2.3-1.2 0.9 0.1 1.7 0.6 2.1 1.3 0.4 0.7 0.4 1.7 0 2.4-0.5 0.7-1.4 1.2-2.3 1.2-0.9-0.1-1.6-0.6-2.1-1.3z"/><path class="a" d="m134.4 166.6c-0.9 0-1.8-0.5-2.1-1.4-0.4-0.7-0.4-1.5 0-2.2 0.5-0.8 1.4-1.2 2.3-1.2 1-0.1 1.8 0.5 2.2 1.4 0.4 0.7 0.4 1.5 0 2.2q-0.9 1.2-2.4 1.2z"/><path class="a" d="m132.3 156.4c1 0 1.8 0.5 2.2 1.4 0.4 0.7 0.4 1.6 0 2.3-0.5 0.7-1.4 1.2-2.3 1.2-0.9 0.1-1.8-0.5-2.1-1.4-0.4-0.6-0.4-1.5 0-2.2 0.5-0.8 1.3-1.2 2.2-1.3z"/><path class="a" d="m143.2 186.4c-0.9 0.1-1.8-0.5-2.1-1.4-0.4-0.6-0.4-1.5 0-2.2 0.5-0.7 1.4-1.2 2.3-1.2 1-0.1 1.8 0.5 2.2 1.4 0.4 0.7 0.4 1.5 0 2.2-0.5 0.7-1.4 1.2-2.4 1.2z"/><path class="a" d="m137.8 177.8c-0.4-0.6-0.4-1.5 0-2.2 0.5-0.7 1.4-1.2 2.3-1.2 1-0.1 1.8 0.5 2.2 1.4 0.4 0.7 0.4 1.5 0 2.2-0.5 0.7-1.4 1.2-2.3 1.2-0.9 0-1.8-0.6-2.2-1.4z"/><path class="a" d="m149.4 193.3c-0.5 0.7-1.4 1.2-2.3 1.2-1 0.1-1.8-0.5-2.2-1.4-0.4-0.7-0.4-1.5 0-2.2 0.5-0.7 1.4-1.2 2.3-1.2 0.8 0.1 1.6 0.5 2 1.3 0.4 0.7 0.4 1.7 0 2.4"/><path class="a" d="m151.1 198.2c0.9 0 1.8 0.5 2.1 1.4 0.4 0.6 0.4 1.5 0 2.2-0.5 0.7-1.4 1.2-2.3 1.2-0.9-0.1-1.7-0.6-2.1-1.3-0.4-0.7-0.4-1.7 0-2.4 0.5-0.7 1.4-1.2 2.3-1.2"/><path class="a" d="m142.9 171.5c-0.4-0.8-0.4-1.7 0-2.4 0.5-0.9 1.4-1.4 2.4-1.4 0.9 0 1.7 0.4 2.1 1.2 0.4 0.8 0.4 1.7 0 2.4-0.5 0.9-1.4 1.4-2.4 1.4-0.9 0-1.7-0.4-2.1-1.2z"/><path class="a" d="m143.9 163.2c0.4 0.8 0.4 1.7 0 2.4-0.6 0.8-1.4 1.3-2.4 1.3-0.9 0-1.7-0.5-2.1-1.2-0.4-0.8-0.4-1.7 0-2.4 0.5-0.9 1.4-1.4 2.4-1.4 0.8 0 1.5 0.5 2.1 1.3z"/><path class="a" d="m138.8 156.6c0.8 0 1.6 0.4 2 1.2 0.4 0.7 0.4 1.6 0 2.3-0.6 0.9-1.4 1.4-2.4 1.4-0.9 0-1.7-0.5-2.1-1.2-0.4-0.8-0.4-1.7 0-2.4 0.6-0.8 1.5-1.3 2.5-1.3z"/><path class="a" d="m155.4 185.1c-0.5 0.9-1.4 1.4-2.4 1.4-0.9 0-1.7-0.4-2.1-1.2-0.4-0.8-0.4-1.7 0-2.4 0.6-0.8 1.4-1.3 2.4-1.3 0.9 0 1.7 0.5 2.1 1.2 0.4 0.8 0.4 1.7 0 2.3z"/><path class="a" d="m146.7 178.1c-0.4-0.7-0.4-1.6 0-2.3 0.6-0.9 1.4-1.4 2.4-1.4 0.9 0 1.7 0.4 2.1 1.2 0.4 0.7 0.4 1.6 0 2.3-0.5 0.9-1.4 1.4-2.4 1.4-0.9 0-1.7-0.5-2.1-1.2z"/><path class="a" d="m160.1 190.9c0.4 0.8 0.4 1.7 0 2.4-0.5 0.9-1.4 1.4-2.4 1.4-0.9 0-1.7-0.4-2.1-1.2-0.4-0.8-0.4-1.7 0-2.4 0.5-0.9 1.4-1.4 2.4-1.4 1 0 1.8 0.5 2.1 1.2z"/><path class="a" d="m137.9 153.1c0.4 0.8 0.4 1.7 0 2.4-0.6 0.8-1.4 1.3-2.4 1.3-0.8 0-1.6-0.5-2-1.2-0.4-0.8-0.4-1.7 0-2.4 0.6-0.9 1.4-1.4 2.4-1.4 0.7 0 1.6 0.5 2 1.3z"/><path class="a" d="m147 165c-0.6-0.7-0.7-1.7-0.3-2.5 0.5-0.9 1.4-1.5 2.4-1.5 0.8 0 1.5 0.4 1.9 1 0.6 0.7 0.7 1.7 0.3 2.5-0.5 0.9-1.4 1.5-2.4 1.5-0.8 0-1.5-0.4-1.9-1z"/><path class="a" d="m145.3 160.6c-0.8 0-1.5-0.4-1.9-1-0.6-0.7-0.7-1.7-0.3-2.5 0.5-0.9 1.4-1.5 2.4-1.5 0.7 0 1.5 0.4 1.9 1 0.5 0.8 0.5 1.7 0 2.5-0.5 0.9-1.4 1.5-2.4 1.5"/><path class="a" d="m139.7 152.5c0.5-0.9 1.4-1.5 2.4-1.5 0.7 0 1.5 0.4 1.9 1 0.5 0.8 0.5 1.7 0 2.5-0.5 0.9-1.4 1.5-2.4 1.5-0.8 0-1.5-0.4-1.9-1-0.6-0.7-0.7-1.7-0.3-2.5"/><path class="a" d="m157.8 173.2c0.8 0 1.5 0.4 1.9 1 0.6 0.7 0.7 1.7 0.3 2.5-0.5 0.9-1.4 1.5-2.4 1.5-0.7 0-1.5-0.4-1.9-1-0.5-0.8-0.5-1.7 0-2.5 0.5-0.8 1.4-1.4 2.4-1.4"/><path class="a" d="m151.2 170.8c-0.6-0.7-0.7-1.7-0.3-2.5 0.5-0.9 1.4-1.5 2.4-1.5 0.8 0 1.5 0.4 1.9 1 0.6 0.7 0.7 1.7 0.3 2.5-0.5 0.9-1.4 1.5-2.4 1.5-0.8 0-1.5-0.4-1.9-1z"/><path class="a" d="m165.2 181.5c0.6 0.7 0.7 1.7 0.3 2.5-0.5 0.9-1.4 1.5-2.4 1.5-0.8-0.1-1.6-0.5-2-1.2-0.5-0.7-0.5-1.6-0.2-2.3 0.5-0.9 1.4-1.5 2.4-1.5 0.8 0 1.6 0.3 1.9 1z"/><path class="a" d="m171.2 189.5c0.5 0.7 0.5 1.6 0.2 2.3-0.5 0.9-1.4 1.5-2.4 1.5-0.8 0-1.5-0.4-1.9-1-0.6-0.7-0.7-1.7-0.3-2.5 0.5-0.9 1.4-1.5 2.4-1.5 0.8 0 1.5 0.5 2 1.2z"/><path class="a" d="m156.5 164.4c-0.7 0-1.4-0.3-1.8-0.8-0.6-0.6-0.8-1.6-0.4-2.5 0.4-0.9 1.4-1.5 2.4-1.6 0.8 0 1.6 0.4 2 1.1 0.4 0.7 0.5 1.6 0.2 2.3-0.4 1-1.3 1.6-2.4 1.5z"/><path class="a" d="m151.9 159.5c-0.7 0-1.4-0.3-1.8-0.8-0.7-0.7-0.9-1.7-0.5-2.6 0.4-1 1.4-1.6 2.4-1.6 0.7 0 1.4 0.3 1.8 0.8 0.7 0.6 0.9 1.6 0.5 2.5-0.4 1-1.4 1.6-2.4 1.7z"/><path class="a" d="m148 149.9c0.7 0 1.4 0.3 1.8 0.8 0.6 0.6 0.8 1.6 0.4 2.5-0.4 1-1.4 1.6-2.4 1.6-0.7 0-1.3-0.3-1.8-0.8-0.6-0.6-0.8-1.6-0.4-2.5 0.4-0.9 1.3-1.5 2.4-1.6z"/><path class="a" d="m165.4 175.7c-0.6-0.6-0.8-1.6-0.4-2.5 0.4-0.9 1.4-1.5 2.4-1.6 0.7 0 1.4 0.3 1.8 0.8 0.7 0.6 0.9 1.6 0.5 2.5-0.4 0.9-1.4 1.5-2.4 1.6-0.7 0-1.4-0.3-1.9-0.8z"/><path class="a" d="m159.9 169.4c-0.7-0.6-0.9-1.6-0.5-2.5 0.4-1 1.4-1.6 2.4-1.6 0.8 0 1.6 0.4 2 1.1 0.4 0.6 0.5 1.5 0.2 2.2-0.4 0.9-1.4 1.5-2.4 1.6-0.7 0-1.3-0.3-1.7-0.8z"/><path class="a" d="m175.9 179.4c0.4 0.7 0.5 1.6 0.2 2.3-0.4 0.9-1.4 1.5-2.4 1.6-0.7 0-1.4-0.3-1.8-0.8-0.7-0.6-0.9-1.6-0.5-2.5 0.4-0.9 1.3-1.6 2.4-1.6 0.8 0.1 1.5 0.5 2.1 1z"/><path class="a" d="m145.9 146.6c0.7 0.6 0.9 1.6 0.5 2.5-0.4 1-1.4 1.6-2.4 1.6-0.7 0-1.4-0.3-1.8-0.8-0.7-0.6-0.8-1.6-0.4-2.5 0.4-0.9 1.4-1.5 2.4-1.6 0.7 0 1.4 0.3 1.7 0.8z"/><path class="a" d="m159 157.1c-0.6 0-1.2-0.2-1.6-0.6-0.7-0.6-1-1.7-0.6-2.6 0.4-1 1.3-1.7 2.4-1.7 0.6 0 1.2 0.2 1.6 0.6 0.7 0.6 1 1.7 0.6 2.6-0.4 1-1.3 1.7-2.4 1.7z"/><path class="a" d="m154.2 152.8c-0.6 0-1.2-0.3-1.6-0.7-0.8-0.6-1.1-1.7-0.7-2.6 0.4-1 1.3-1.7 2.4-1.7 0.8 0 1.5 0.4 2 1 0.4 0.6 0.6 1.5 0.3 2.2-0.4 1-1.4 1.7-2.4 1.8z"/><path class="a" d="m149.9 143.9c0.6 0 1.2 0.3 1.6 0.7 0.8 0.6 1.1 1.7 0.7 2.6-0.3 1-1.3 1.7-2.4 1.7-0.8-0.1-1.6-0.5-2-1.1-0.4-0.6-0.6-1.5-0.3-2.2 0.4-1 1.3-1.7 2.4-1.7z"/><path class="a" d="m168.6 166.6c-0.7-0.6-1-1.7-0.6-2.6 0.4-1 1.3-1.8 2.4-1.8 0.6 0 1.2 0.3 1.6 0.7 0.7 0.6 1 1.7 0.6 2.6-0.4 1-1.3 1.7-2.4 1.7-0.6 0-1.2-0.2-1.6-0.6z"/><path class="a" d="m162.7 161.4c-0.7-0.6-1-1.7-0.6-2.6 0.4-1 1.3-1.7 2.4-1.7 0.6 0 1.2 0.2 1.6 0.6 0.7 0.6 1 1.7 0.6 2.6-0.4 1-1.3 1.7-2.4 1.7-0.6 0-1.2-0.3-1.6-0.6z"/><path class="a" d="m179 169.4c0.4 0.6 0.6 1.5 0.3 2.2-0.4 1-1.3 1.6-2.4 1.7-0.6 0-1.2-0.3-1.6-0.7-0.7-0.6-1-1.7-0.6-2.6 0.4-1 1.3-1.7 2.4-1.7 0.8 0 1.6 0.4 1.9 1.1z"/><path class="a" d="m186.5 176c0.4 0.6 0.6 1.5 0.3 2.2-0.3 1-1.3 1.7-2.4 1.7-0.6 0-1.2-0.3-1.6-0.7-0.8-0.6-1.1-1.7-0.7-2.6 0.3-1 1.3-1.7 2.4-1.7 0.8 0.1 1.5 0.5 2 1.1z"/><path class="a" d="m149.9 61.7c-1 0-1.9-0.6-2.4-1.5-0.3-0.8-0.2-1.8 0.3-2.5 0.4-0.6 1.1-1 1.9-1 1 0 1.9 0.5 2.4 1.4 0.3 0.8 0.3 1.8-0.3 2.5-0.4 0.6-1.2 1-1.9 1.1z"/><path class="a" d="m143.5 65.3c-0.4-0.8-0.3-1.8 0.3-2.5 0.4-0.6 1.1-1 1.9-1 1 0 1.9 0.6 2.4 1.5 0.4 0.8 0.3 1.8-0.3 2.5-0.4 0.6-1.1 1-1.9 1-1 0-1.9-0.6-2.4-1.5z"/><path class="a" d="m140.1 69.9c-0.4-0.8-0.3-1.8 0.3-2.5 0.4-0.6 1.1-1 1.9-1 1 0 1.9 0.6 2.4 1.5 0.4 0.8 0.3 1.8-0.3 2.5-0.4 0.6-1.1 1-1.9 1-1 0-1.9-0.6-2.4-1.5z"/><path class="a" d="m161 46c0.3 0.8 0.2 1.8-0.3 2.5-0.4 0.6-1.1 1-1.9 1-1-0.1-1.9-0.6-2.4-1.5-0.3-0.8-0.2-1.8 0.3-2.5 0.4-0.6 1.1-1 1.9-1 1.1 0 2 0.6 2.4 1.5z"/><path class="a" d="m154.2 50.9c1 0 1.9 0.6 2.4 1.5 0.3 0.8 0.2 1.8-0.3 2.5-0.4 0.6-1.1 1-1.9 1-1.1 0-2-0.6-2.4-1.5-0.5-0.8-0.5-1.7 0-2.5 0.4-0.6 1.1-1 1.9-1"/><path class="a" d="m161.9 40.7c-0.3-0.8-0.3-1.8 0.3-2.5 0.4-0.6 1.1-1 1.9-1 1 0 1.9 0.6 2.4 1.5 0.4 0.8 0.3 1.8-0.3 2.5-0.4 0.6-1.1 1-1.9 1-1 0-1.9-0.6-2.4-1.5z"/><path class="a" d="m167.5 33c-0.3-0.8-0.2-1.8 0.3-2.5 0.4-0.6 1.1-1 1.9-1 1 0 1.9 0.6 2.4 1.5 0.3 0.8 0.2 1.8-0.3 2.5-0.4 0.6-1.1 1-1.9 1-1 0-1.9-0.6-2.4-1.5z"/><path class="a" d="m145.9 49.8c1 0.1 1.9 0.6 2.4 1.4 0.4 0.8 0.4 1.7 0 2.4-0.4 0.7-1.2 1.2-2.1 1.2-1-0.1-1.9-0.6-2.4-1.4-0.4-0.8-0.4-1.7 0-2.4 0.4-0.7 1.2-1.2 2.1-1.2z"/><path class="a" d="m142.5 60.6c-1-0.1-1.9-0.6-2.4-1.4-0.4-0.8-0.4-1.7 0-2.4 0.5-0.7 1.2-1.2 2.1-1.2 1 0.1 1.9 0.6 2.4 1.4 0.4 0.8 0.4 1.7 0 2.4-0.4 0.8-1.2 1.3-2.1 1.2z"/><path class="a" d="m139.4 65.9c-1-0.1-1.9-0.6-2.4-1.4-0.4-0.8-0.4-1.7 0-2.4 0.5-0.7 1.2-1.2 2.1-1.2 1 0.1 1.9 0.6 2.4 1.4 0.4 0.8 0.4 1.7 0 2.4-0.4 0.8-1.1 1.3-2.1 1.2z"/><path class="a" d="m154 36c1 0.1 1.9 0.6 2.4 1.4 0.4 0.8 0.4 1.7 0 2.4-0.5 0.7-1.2 1.2-2.1 1.2-1 0-1.9-0.6-2.4-1.4-0.4-0.8-0.4-1.7 0-2.4q0.8-1.2 2.1-1.2z"/><path class="a" d="m152.2 44.7c0.4 0.8 0.4 1.7 0 2.4-0.5 0.7-1.2 1.2-2.1 1.2-1-0.1-1.9-0.6-2.4-1.4-0.4-0.8-0.4-1.7 0-2.4 0.4-0.7 1.2-1.2 2-1.2 1 0 1.9 0.5 2.5 1.4z"/><path class="a" d="m156.6 31.5c-0.4-0.8-0.4-1.7 0-2.4 0.4-0.7 1.2-1.2 2-1.2 1 0.1 1.9 0.6 2.4 1.4 0.4 0.8 0.4 1.7 0 2.4-0.4 0.7-1.2 1.2-2 1.2-1.1 0-2-0.6-2.4-1.4z"/><path class="a" d="m134.4 69.2c-0.4-0.7-0.4-1.6 0-2.3 0.4-0.7 1.1-1.2 2-1.2 1 0.1 1.9 0.6 2.4 1.4 0.4 0.8 0.4 1.7 0 2.4-0.5 0.7-1.2 1.2-2.1 1.2-1 0-1.9-0.5-2.3-1.5z"/><path class="a" d="m138 49.9c0.9 0 1.8 0.4 2.3 1.2 0.4 0.7 0.4 1.5 0 2.2-0.4 0.8-1.2 1.4-2.2 1.4-0.9 0-1.8-0.5-2.3-1.2-0.4-0.7-0.4-1.6 0-2.3 0.4-0.9 1.2-1.4 2.2-1.3z"/><path class="a" d="m135.2 55.7c0.9 0 1.8 0.5 2.3 1.2 0.4 0.7 0.4 1.6 0 2.3-0.4 0.9-1.3 1.4-2.2 1.4-0.9 0-1.8-0.5-2.3-1.2-0.4-0.7-0.4-1.6 0-2.3 0.4-0.8 1.2-1.4 2.2-1.4z"/><path class="a" d="m130.7 64.7c-0.4-0.7-0.4-1.6 0-2.4 0.4-0.8 1.2-1.3 2.1-1.3 0.9 0 1.8 0.5 2.3 1.2 0.4 0.7 0.4 1.7 0 2.4-0.4 0.8-1.1 1.2-2 1.3q-1.5 0-2.4-1.2z"/><path class="a" d="m144.3 36.1c0.9 0 1.8 0.4 2.3 1.2 0.4 0.7 0.4 1.5 0 2.2-0.4 0.8-1.2 1.4-2.2 1.4-1 0-1.8-0.4-2.3-1.2-0.4-0.6-0.4-1.5 0-2.2 0.3-0.9 1.2-1.4 2.2-1.4z"/><path class="a" d="m143.3 44.5c0.4 0.7 0.4 1.6 0 2.3-0.4 0.9-1.3 1.4-2.2 1.4-0.9 0-1.8-0.5-2.3-1.2-0.4-0.7-0.4-1.6 0-2.3 0.3-0.9 1.2-1.4 2.1-1.4q1.5 0 2.4 1.2z"/><path class="a" d="m146 31.7c-0.4-0.7-0.4-1.7 0-2.4 0.4-0.8 1.1-1.2 2-1.3 0.9 0 1.8 0.4 2.3 1.2 0.4 0.6 0.4 1.5 0 2.2-0.3 0.8-1.2 1.4-2.1 1.4-0.8 0-1.7-0.5-2.2-1.1z"/><path class="a" d="m150 22.8c-0.4-0.7-0.4-1.7 0-2.4 0.4-0.8 1.1-1.2 2-1.3 0.9 0 1.8 0.4 2.3 1.2 0.4 0.6 0.4 1.5 0 2.2-0.3 0.8-1.2 1.4-2.1 1.4-0.8 0-1.7-0.5-2.2-1.1z"/><path class="a" d="m134.9 45c0.5 0.6 0.6 1.4 0.3 2.1-0.3 1.1-1.2 1.7-2.3 1.7-0.9 0-1.7-0.4-2.2-1.1-0.5-0.6-0.6-1.4-0.3-2.1 0.3-1 1.3-1.7 2.3-1.7 0.9 0 1.7 0.4 2.2 1.1z"/><path class="a" d="m130.6 50.4c0.9 0 1.7 0.4 2.2 1.1 0.5 0.8 0.5 1.7 0.1 2.5-0.4 0.8-1.2 1.3-2.1 1.3-0.8-0.1-1.7-0.4-2.2-1.1-0.5-0.7-0.6-1.5-0.3-2.2 0.3-0.9 1.3-1.6 2.3-1.6z"/><path class="a" d="m128.9 61.2c-0.8 0-1.7-0.4-2.2-1.1-0.4-0.7-0.6-1.5-0.3-2.2 0.3-1 1.3-1.7 2.3-1.7 0.9 0 1.7 0.4 2.2 1.1 0.4 0.6 0.6 1.4 0.3 2.1-0.3 1-1.3 1.7-2.3 1.8z"/><path class="a" d="m135.8 32.4c-0.4-0.6-0.6-1.4-0.3-2.1 0.3-1.1 1.2-1.7 2.3-1.7 0.8 0 1.7 0.4 2.2 1.1 0.4 0.7 0.6 1.5 0.3 2.2-0.3 1-1.3 1.7-2.3 1.7-0.8 0-1.7-0.4-2.2-1.2z"/><path class="a" d="m135.2 36.7c0.8 0 1.7 0.4 2.2 1.1 0.5 0.8 0.5 1.7 0.1 2.5-0.4 0.7-1.2 1.3-2.1 1.3-0.9 0-1.7-0.4-2.2-1.1-0.5-0.7-0.6-1.5-0.3-2.2 0.3-1 1.2-1.6 2.3-1.6z"/><path class="a" d="m138.8 23.8c-0.4-0.7-0.6-1.5-0.3-2.2 0.3-1 1.3-1.7 2.3-1.7 0.9 0 1.7 0.4 2.2 1.1 0.5 0.8 0.5 1.7 0.1 2.5-0.4 0.8-1.2 1.3-2.1 1.3-0.9 0-1.7-0.4-2.2-1z"/><path class="a" d="m124.9 65.2c-0.4-0.6-0.6-1.4-0.3-2.1 0.3-1 1.2-1.7 2.3-1.7 0.9 0 1.7 0.4 2.2 1.1 0.4 0.6 0.6 1.4 0.3 2.1-0.3 1.1-1.2 1.7-2.3 1.7-0.8 0.1-1.7-0.4-2.2-1.1z"/><path class="a" d="m123 49.2c-0.4-0.6-0.6-1.3-0.4-2 0.2-1.1 1.2-1.9 2.4-1.9 0.8 0 1.6 0.4 2.1 1 0.5 0.7 0.6 1.7 0.2 2.5-0.4 0.8-1.2 1.4-2.1 1.4-0.8 0-1.6-0.3-2.2-1z"/><path class="a" d="m123.6 51.9c0.8 0 1.6 0.3 2.1 0.9 0.4 0.5 0.6 1.3 0.4 2-0.2 1.2-1.2 1.9-2.4 1.9-0.8 0-1.6-0.3-2.1-0.9-0.4-0.6-0.6-1.3-0.4-2 0.2-1.1 1.2-2 2.4-1.9z"/><path class="a" d="m122.4 57.5c0.8 0 1.6 0.4 2.1 1 0.4 0.6 0.6 1.3 0.4 2-0.2 1.1-1.2 1.9-2.4 1.9-0.8 0-1.6-0.4-2.1-1-0.4-0.6-0.6-1.3-0.4-2 0.2-1.1 1.2-1.9 2.4-1.9z"/><path class="a" d="m126.4 34.7c-0.4-0.6-0.6-1.3-0.4-2 0.2-1.1 1.2-2 2.4-1.9 0.8 0 1.6 0.3 2.1 0.9 0.4 0.6 0.6 1.3 0.4 2-0.2 1.1-1.2 1.9-2.4 1.9-0.8 0-1.6-0.3-2.1-0.9z"/><path class="a" d="m124.8 42.4c-0.5-0.7-0.6-1.7-0.2-2.5 0.4-0.8 1.2-1.4 2.1-1.4 0.8 0 1.6 0.4 2.1 1 0.4 0.6 0.6 1.3 0.4 2-0.2 1.1-1.2 1.9-2.4 1.9-0.8 0-1.6-0.4-2-1z"/><path class="a" d="m128.3 25.9c-0.4-0.6-0.6-1.3-0.4-2 0.2-1.1 1.2-1.9 2.4-1.9 0.8 0 1.6 0.4 2.1 1 0.4 0.6 0.6 1.3 0.4 2-0.2 1.1-1.2 1.9-2.4 1.9-0.8 0-1.6-0.4-2.1-1z"/><path class="a" d="m130.2 16.9c-0.4-0.6-0.6-1.3-0.4-2 0.2-1.1 1.2-1.9 2.4-1.9 0.8 0 1.6 0.3 2.1 0.9 0.4 0.5 0.6 1.3 0.4 2-0.2 1.2-1.3 2-2.4 1.9-0.8 0-1.6-0.3-2.1-0.9z"/><path class="a" d="m116.8 44.9c-0.4-0.6-0.6-1.2-0.5-1.9 0.1-1.3 1.1-2.2 2.4-2.2 0.8 0 1.5 0.3 2 0.8 0.5 0.6 0.7 1.2 0.6 1.9-0.1 1.3-1.1 2.2-2.4 2.2-0.7 0-1.5-0.3-2.1-0.8z"/><path class="a" d="m116.2 51.7c-0.5-0.5-0.7-1.2-0.6-1.9 0.1-1.3 1.1-2.2 2.4-2.2 0.8 0 1.5 0.3 2 0.8 0.5 0.5 0.7 1.2 0.6 1.9-0.1 1.3-1.1 2.2-2.4 2.2-0.8 0-1.5-0.3-2-0.8z"/><path class="a" d="m115.5 58c-0.5-0.6-0.7-1.2-0.6-1.9 0.1-1.3 1.1-2.2 2.4-2.2 0.8-0.1 1.5 0.2 2 0.8 0.5 0.5 0.7 1.2 0.6 1.9-0.1 1.2-1.1 2.2-2.4 2.1-0.8 0-1.5-0.3-2-0.7z"/><path class="a" d="m118.7 29c-0.5-0.5-0.7-1.2-0.6-1.9 0.1-1.3 1.1-2.2 2.4-2.2 0.8 0 1.5 0.3 2 0.8 0.5 0.5 0.7 1.2 0.6 1.9-0.1 1.3-1.1 2.2-2.4 2.2-0.8 0-1.5-0.3-2-0.8z"/><path class="a" d="m117.9 37.3c-0.5-0.5-0.7-1.2-0.6-1.9 0.1-1.2 1.1-2.2 2.4-2.1 0.7 0 1.5 0.3 2 0.8 0.6 0.7 0.7 1.7 0.3 2.6-0.5 0.9-1.3 1.4-2.3 1.4-0.7 0-1.4-0.3-1.8-0.8z"/><path class="a" d="m119.7 19.8c-0.5-0.6-0.7-1.2-0.6-1.9 0.1-1.3 1.1-2.2 2.4-2.2 0.7 0 1.5 0.3 2 0.8 0.6 0.7 0.7 1.7 0.3 2.6-0.4 0.9-1.3 1.4-2.3 1.4-0.7 0-1.4-0.3-1.8-0.7z"/><path class="a" d="m114.3 61.2c0.1-1.2 1.1-2.2 2.4-2.1 0.8 0 1.5 0.3 2 0.8 0.5 0.5 0.7 1.2 0.6 1.9-0.1 1.3-1.1 2.2-2.4 2.2-0.8 0.1-1.5-0.2-2-0.8-0.5-0.5-0.7-1.2-0.6-2z"/><path class="a" d="m111.7 48.9c-0.6 0-1.3-0.2-1.8-0.7-0.8-0.8-1-1.9-0.6-2.8 0.4-1 1.4-1.6 2.4-1.5 0.6 0 1.3 0.2 1.8 0.7 0.5 0.4 0.7 1.1 0.7 1.7 0 0.7-0.2 1.3-0.7 1.8-0.5 0.5-1.1 0.7-1.8 0.7"/><path class="a" d="m109.8 54.7c-0.5-0.4-0.7-1.1-0.7-1.7 0-0.7 0.2-1.3 0.7-1.8 0.5-0.5 1.1-0.7 1.8-0.7 0.7 0 1.3 0.2 1.8 0.7 0.5 0.5 0.7 1.1 0.7 1.8 0 0.6-0.2 1.2-0.7 1.7-0.5 0.5-1.1 0.7-1.8 0.7-0.7 0-1.4-0.3-1.8-0.7z"/><path class="a" d="m109.8 60.3c-0.5-0.4-0.7-1.1-0.7-1.7 0-0.6 0.2-1.3 0.7-1.7q0.7-0.6 1.8-0.6c0.6 0 1.3 0.2 1.8 0.7 0.5 0.5 0.7 1.1 0.7 1.7 0 0.6-0.2 1.2-0.7 1.7-0.5 0.5-1.1 0.7-1.8 0.7-0.7 0-1.4-0.2-1.8-0.8z"/><path class="a" d="m109.8 33c-0.8-0.8-1-1.9-0.6-2.8 0.4-1 1.4-1.6 2.4-1.5 0.7 0 1.4 0.2 1.9 0.7 0.8 0.7 1 1.8 0.6 2.8-0.4 1-1.4 1.6-2.4 1.5-0.6 0-1.3-0.2-1.9-0.7z"/><path class="a" d="m109.9 41c-0.5-0.5-0.7-1.1-0.7-1.7 0-0.6 0.2-1.2 0.7-1.7 0.5-0.5 1.1-0.7 1.8-0.7 0.6 0 1.3 0.2 1.8 0.7 0.5 0.5 0.7 1.1 0.7 1.7 0 0.6-0.2 1.2-0.7 1.7-0.5 0.5-1.1 0.7-1.8 0.7-0.6 0-1.3-0.2-1.8-0.7z"/><path class="a" d="m109.9 24c-0.4-0.4-0.6-1.1-0.6-1.7 0-0.6 0.2-1.2 0.7-1.7 0.5-0.5 1.1-0.7 1.8-0.7 0.6 0 1.3 0.2 1.8 0.7 0.5 0.4 0.7 1.1 0.7 1.7 0 0.7-0.2 1.3-0.7 1.8-0.5 0.5-1.1 0.7-1.8 0.7-0.7 0-1.3-0.3-1.9-0.8z"/><path class="a" d="m111.9 14.7c-0.6 0-1.3-0.2-1.8-0.7-0.5-0.4-0.7-1-0.7-1.7 0-0.6 0.2-1.3 0.7-1.7q0.8-0.6 1.8-0.6c0.6 0 1.3 0.2 1.8 0.7 0.8 0.8 1 1.9 0.6 2.8-0.4 1-1.4 1.6-2.4 1.5"/><path class="a" d="m155.2 61.4c-0.5-0.8-0.3-1.8 0.4-2.5 0.5-0.5 1.1-0.8 1.8-0.8 1.1 0 2 0.6 2.4 1.6 0.4 0.8 0.2 1.8-0.5 2.5-0.5 0.5-1.1 0.8-1.8 0.8-1-0.1-1.9-0.7-2.3-1.6z"/><path class="a" d="m150.4 66.6c-0.4-0.8-0.2-1.8 0.5-2.5 0.5-0.5 1.1-0.8 1.8-0.8 1.1 0 2 0.6 2.4 1.6 0.5 0.8 0.3 1.8-0.4 2.5-0.5 0.5-1.1 0.8-1.8 0.8-1 0-2-0.7-2.5-1.6z"/><path class="a" d="m148.7 72.7c-1 0-2-0.7-2.4-1.6-0.4-0.8-0.2-1.8 0.5-2.5 0.5-0.5 1.1-0.8 1.8-0.8 1.1 0 2 0.6 2.4 1.6 0.4 0.8 0.2 1.8-0.5 2.5-0.5 0.5-1.1 0.8-1.8 0.8z"/><path class="a" d="m166.3 49.7c-0.4-0.8-0.2-1.8 0.4-2.5 0.5-0.5 1.1-0.8 1.8-0.8 1 0 2 0.7 2.4 1.6 0.4 0.8 0.2 1.8-0.5 2.5-0.5 0.5-1.1 0.8-1.8 0.8-1.1 0-2-0.7-2.3-1.6z"/><path class="a" d="m164.9 54.2c0.4 0.8 0.2 1.8-0.5 2.5-0.5 0.5-1.1 0.8-1.8 0.8-1.1 0-2-0.6-2.4-1.6-0.4-0.8-0.2-1.8 0.5-2.5 0.5-0.5 1.1-0.8 1.8-0.8 1 0 2 0.6 2.4 1.6z"/><path class="a" d="m172.7 40.3c0.5-0.5 1.1-0.8 1.8-0.8 1.1 0 2 0.6 2.4 1.6 0.5 0.8 0.3 1.8-0.4 2.5-0.5 0.5-1.1 0.8-1.8 0.8-1 0-2-0.6-2.4-1.6-0.4-0.9-0.2-1.9 0.4-2.5z"/><path class="a" d="m142.5 75.3c-0.4-0.9-0.2-1.9 0.5-2.6 0.5-0.5 1.1-0.8 1.8-0.8 1 0 2 0.7 2.4 1.6 0.4 0.8 0.3 1.8-0.4 2.5-0.5 0.5-1.1 0.8-1.8 0.8-1.1 0-2-0.6-2.5-1.5z"/><path class="a" d="m157.6 68.8c-0.3-0.9-0.1-2 0.7-2.6 0.4-0.4 1-0.7 1.6-0.7 1.1 0.1 2 0.8 2.4 1.8 0.4 0.9 0.1 2-0.7 2.6-0.4 0.4-1 0.6-1.6 0.6-1.1 0-2.1-0.7-2.4-1.7z"/><path class="a" d="m156.6 74.2c-0.4 0.4-1 0.6-1.6 0.6-1.1 0-2-0.7-2.4-1.7-0.4-0.9-0.1-2 0.7-2.6 0.5-0.3 1-0.6 1.6-0.6 1.1 0.1 2 0.8 2.4 1.8 0.4 1 0.1 2-0.7 2.5z"/><path class="a" d="m148.2 77.1c-0.4-0.9-0.1-2 0.7-2.6 0.4-0.4 1-0.7 1.6-0.7 1.1 0.1 2 0.8 2.4 1.8 0.4 0.9 0.1 2-0.7 2.6-0.4 0.4-1 0.6-1.6 0.6-1-0.1-2-0.7-2.4-1.7z"/><path class="a" d="m172.8 59.9c-0.4 0.4-1 0.7-1.6 0.7-1.1-0.1-2-0.8-2.4-1.8-0.4-0.9-0.1-2 0.7-2.6 0.4-0.4 1-0.6 1.6-0.6 1.1 0 2 0.7 2.4 1.7 0.4 0.9 0.1 2-0.7 2.6z"/><path class="a" d="m165.1 60.8c1.1 0 2 0.7 2.4 1.7 0.3 0.9 0.1 2-0.7 2.6-0.4 0.4-1 0.6-1.6 0.6-1.1 0-2-0.7-2.4-1.7-0.4-0.9-0.1-2 0.7-2.6 0.4-0.4 1-0.6 1.6-0.6z"/><path class="a" d="m180.2 51.3c0.3 0.9 0.1 2-0.7 2.6-0.4 0.4-1 0.6-1.6 0.6-1.1 0-2-0.7-2.4-1.7-0.4-0.9-0.1-2 0.7-2.6 0.4-0.4 1-0.7 1.6-0.7 1.1 0.1 2.1 0.8 2.4 1.8z"/><path class="a" d="m182.6 46.9c-0.3-0.9-0.1-2 0.7-2.6 0.4-0.4 1-0.7 1.6-0.7 1.1 0 2 0.7 2.4 1.7 0.4 0.9 0.1 2-0.7 2.6-0.4 0.4-1 0.6-1.6 0.6-1.1-0.1-2.1-0.8-2.4-1.6z"/><path fill-rule="evenodd" class="a" d="m242.8 112.1h-17.7l-3.9 9.6h-10.6l18.9-43.9h9.3l18.7 43.7h-10.8zm-8.8-21.8l-5.2 12.5h10.3z"/><path class="a" d="m278.7 122.5c-6 0.2-11.8-2.2-16.1-6.4-4.2-4.2-6.5-10-6.4-16-0.1-6 2.3-11.8 6.6-16.1 4.3-4.3 10.2-6.6 16.3-6.4 6.4-0.3 12.6 2.2 17.1 6.7l0.3 0.3-6.5 7.5-0.3-0.3c-2.8-2.9-6.7-4.6-10.8-4.7-3.3 0-6.5 1.4-8.8 3.8-2.3 2.4-3.5 5.6-3.4 8.9-0.2 3.3 1 6.6 3.3 9.1 2.3 2.5 5.5 3.9 8.9 4 4.3 0 8.3-1.8 11.1-4.9l0.3-0.3 6.6 6.6-0.3 0.3c-4.5 5.2-11.1 8.1-18 7.8"/><path class="a" d="m321.3 122.5c-6 0.2-11.8-2.2-16.1-6.4-4.2-4.2-6.5-10-6.4-16-0.1-6 2.3-11.8 6.6-16.1 4.3-4.2 10.2-6.6 16.3-6.4 6.5-0.3 12.7 2.1 17.3 6.7l0.3 0.3-6.5 7.5-0.3-0.3c-2.9-2.9-6.7-4.6-10.8-4.7-3.3 0-6.5 1.4-8.8 3.8-2.3 2.4-3.5 5.6-3.4 8.9-0.2 3.3 1 6.6 3.3 9.1 2.3 2.5 5.5 3.9 8.9 4 4.2 0 8.3-1.8 11.1-4.9l0.3-0.3 6.6 6.6-0.3 0.3c-4.5 5.2-11.1 8.1-18 7.8"/><path fill-rule="evenodd" class="a" d="m355 121.6h-10.2v-43.4h20.1c10.5 0 16.7 5.4 16.7 14.5 0.2 5.9-3.5 11.3-9.1 13.3l10.7 15.5h-12.1l-9.2-13.7h-6.9zm0-23.1h9.3c4.3 0 6.9-2.1 6.9-5.6 0-3.7-2.5-5.7-7.1-5.7h-9.1z"/><path class="a" d="m420.8 121.6h-33.7v-43.7h33.4v9.2h-23.2v7.9h20.4v9.2h-20.4v8.2h23.5z"/><path fill-rule="evenodd" class="a" d="m443.9 78c6-0.4 12 1.7 16.4 5.8 4.4 4.1 6.9 9.9 6.9 15.9 0 6-2.5 11.8-6.9 15.9-4.4 4.1-10.3 6.3-16.4 5.9h-17.1v-43.6h17.1zm-7 34.3h7c3.4 0.3 6.7-0.9 9.2-3.3 2.5-2.4 3.8-5.7 3.6-9.1 0.3-3.5-1-6.8-3.5-9.2-2.5-2.4-5.9-3.7-9.3-3.4h-7z"/><path class="a" d="m472.2 77.9h10.3v43.6h-10.3z"/><path class="a" d="m501 87.4h-13.1v-9.5h36.5v9.5h-13.1v34.2h-10.3z"/><path class="a" d="m539.6 112.4h23.4v9.1h-33.6v-43.6h33.3v9.2h-23.1v7.9h20.4v9.2h-20.4z"/><path fill-rule="evenodd" class="a" d="m586.4 78c6-0.4 12 1.7 16.4 5.8 4.4 4.1 6.9 9.9 6.9 15.9 0 6-2.5 11.8-6.9 15.9-4.4 4.2-10.3 6.3-16.4 5.9h-17.1v-43.6h17.1zm-6.9 34.3h6.9c3.4 0.3 6.7-0.9 9.2-3.3 2.5-2.4 3.8-5.7 3.6-9.1 0.3-3.5-1-6.8-3.5-9.2-2.5-2.4-5.9-3.7-9.3-3.4h-6.9z"/><path class="a" d="m213.7 130.4h10.3v43.6h-10.3z"/><path class="a" d="m259.3 130.4h10.1v43.6h-8.6l-20.4-26.5v26.5h-10.1v-43.6h9.3l0.1 0.1 19.6 25.5z"/><path class="a" d="m295.5 147.8c8.4 2.1 14 5.2 14 13.2 0 8.5-6.2 13.7-16.2 13.7-6.9 0-13.5-2.5-18.6-7l-0.3-0.3 6.1-7.3 0.3 0.3c3.4 3.1 7.9 5 12.6 5.1 3.7 0 5.9-1.4 5.9-3.7 0-2.1-1.4-3.3-8.6-5.1-8.3-2.1-14.6-4.4-14.6-13.5 0-7.8 6.4-13.3 15.5-13.3 5.9-0.1 11.7 1.9 16.3 5.5l0.3 0.3-5.4 7.7-0.3-0.3c-3.1-2.5-7-3.9-11-4.2-3.1 0-5.1 1.4-5.1 3.4 0 2.5 1.5 3.4 9 5.3"/><path class="a" d="m348.1 139.9h-13.1v34.1h-10.3v-34.1h-13.1v-9.5h36.5z"/><path fill-rule="evenodd" class="a" d="m372.9 130l18.7 43.7h-10.8l-4-9.6h-17.7l-4 9.6h-10.5v-0.5l18.6-43.2zm-5.1 12.8l-5.2 12.7h10.3z"/><path class="a" d="m405.8 164.7h21.5v9.3h-31.8v-43.6h10.3z"/><path class="a" d="m442.5 164.7h21.5v9.3h-31.9v-43.6h10.4z"/><path class="a" d="m479 164.8h23.4v9.2h-33.6v-43.7h33.3v9.3h-23.1v7.8h20.4v9.2h-20.4z"/><path fill-rule="evenodd" class="a" d="m544.4 145c0.2 6-3.4 11.5-9.1 13.5l10.7 15.5h-12.1l-9.2-13.7h-6.9v13.7h-10.3v-43.6h20.1c10.5 0 16.7 5.5 16.7 14.6zm-26.5-5.2v11.4h9.2c4.3 0 6.9-2.2 6.9-5.7 0-3.7-2.5-5.7-7.1-5.7z"/><path class="b" d="m230.1 66.3c-2 2.3-4.9 3.6-8 3.5-2.7 0-5.2-1-7.1-2.9-1.9-1.9-3-4.5-2.9-7.1-0.1-2.6 1-5.2 2.9-7.1 1.9-1.8 4.5-2.9 7.2-2.8 2.9-0.1 5.7 1 7.7 3l-2.9 3.4c-1.3-1.3-3-2.1-4.8-2.1-1.5 0-2.9 0.6-3.9 1.7-1 1.1-1.5 2.5-1.4 4-0.1 1.5 0.4 2.9 1.4 4 1 1.1 2.4 1.8 3.9 1.8 1.9-0.1 3.6-0.8 4.9-2.2z"/><path class="b" d="m246.2 69.5h-14v-19.3h4.5v15.2h9.5z"/><path class="b" d="m263.3 69.6h-14.9v-19.4h14.8v4.1h-10.2v3.5h9v4h-9v3.7h10.3z"/><path fill-rule="evenodd" class="b" d="m269.4 69.5h-4.7l8.3-19.4h4.3l8.6 19.4h-4.8l-1.8-4.2h-7.8zm8.4-8.5l-2.3-5.4-2.3 5.4z"/><path class="b" d="m292.1 69.5h-4.5v-19.3h4.2v0.1l8.6 11.2v-11.3h4.6v19.3h-3.9-0.1l-8.9-11.6z"/><path class="b" d="m319.9 54.3v3.5h9v4h-9v3.7h10.3v4.1h-14.9v-19.4h14.8v4.1z"/><path class="b" d="m337.2 69.5h-4.6v-19.3h4.2l0.1 0.1 8.6 11.2v-11.3h4.5v19.3h-3.8-0.1l-8.9-11.6z"/><path class="b" d="m357.6 54.3v3.5h9v4h-9v3.7h10.3v4.1h-14.9v-19.4h14.8v4.1z"/><path fill-rule="evenodd" class="b" d="m378.2 63.4h-2.8v6.1h-4.6v-19.3h8.9c4.6 0 7.4 2.3 7.4 6.5 0.1 2.6-1.5 5-4 5.9l4.7 6.9h-5.4zm-3-3.9h4.1c1.8 0 3-1 3-2.5 0-1.6-1.1-2.5-3.1-2.5h-4z"/><path class="b" d="m391.5 67.2c-1.9-1.9-3-4.5-2.9-7.2 0-2.7 1.1-5.2 3-7.1 1.9-1.8 4.5-2.9 7.2-2.8 2.8-0.2 5.5 0.8 7.6 2.6l-2.9 3.5c-1.3-1.2-3-1.9-4.8-1.9-3.1 0.1-5.4 2.7-5.3 5.7-0.1 1.5 0.4 3 1.5 4.1 1.1 1.1 2.6 1.7 4.1 1.7 1.3 0 2.7-0.4 3.8-1.1v-2.4h-4.3v-4h8.6v8.5c-2.3 2-5.3 3.1-8.3 3.1-2.6 0.1-5.4-0.8-7.3-2.7z"/><path class="b" d="m414.9 69.5v-7.6l-7.5-11.7h5.4l4.4 7.4 4.6-7.4h5.2l-7.5 11.6v7.7z"/><path class="b" d="m451.4 66.3c-2 2.3-4.9 3.6-8 3.5-2.7 0-5.2-1-7.1-2.9-1.9-1.9-3-4.5-2.9-7.1-0.1-2.6 1-5.2 2.9-7.1 1.9-1.8 4.5-2.9 7.2-2.8 2.9-0.1 5.7 1 7.7 3l-2.9 3.4c-1.3-1.3-3-2.1-4.8-2.1-1.5 0-2.9 0.6-3.9 1.7-1 1.1-1.5 2.5-1.4 4-0.1 1.5 0.4 2.9 1.4 4 1 1.1 2.4 1.8 3.9 1.8 1.9-0.1 3.6-0.8 4.9-2.2z"/><path fill-rule="evenodd" class="b" d="m469.7 52.6c1.9 1.8 3 4.4 3 7.1-0.1 2.7-1.2 5.3-3.1 7.2-2 1.9-4.6 3-7.3 2.9-2.7 0.1-5.4-0.9-7.3-2.8-1.9-1.9-3-4.5-3-7.2 0-2.6 1.1-5.2 3.1-7.1 2-1.9 4.6-2.9 7.3-2.8 2.7-0.2 5.4 0.9 7.3 2.7zm-11.3 11.2c1.1 1.1 2.6 1.7 4.1 1.7 1.5 0 3-0.6 4-1.7 1-1.1 1.6-2.5 1.5-4 0-3-2.5-5.5-5.6-5.5-3.1 0-5.6 2.5-5.6 5.5 0 1.4 0.5 2.9 1.6 4z"/><path class="b" d="m487.3 50.2h4.6v10.7c0.3 2.4-0.5 4.7-2.2 6.4-1.7 1.7-4 2.6-6.4 2.4-2.3 0.3-4.7-0.5-6.3-2.2-1.6-1.7-2.4-4-2.2-6.3v-11h4.6v10.8c0 2.9 1.3 4.5 3.9 4.5 2.5 0 3.9-1.4 3.9-4.2z"/><path class="b" d="m507.5 50.2h4.5v19.3h-3.9l-8.9-11.6v11.6h-4.5v-19.3h4.1l0.1 0.1 8.6 11.2z"/><path class="b" d="m532.1 66.4c-2.8 3.1-7.2 4.2-11.2 2.8-4-1.4-6.7-5.1-6.8-9.3-0.1-2.7 1-5.3 2.9-7.2 1.9-1.9 4.5-2.9 7.2-2.8 2.9-0.1 5.7 1 7.7 3l-2.9 3.4c-1.2-1.3-2.9-2.1-4.7-2.1-1.5 0-2.9 0.6-3.9 1.7-1 1.1-1.5 2.5-1.4 4-0.1 1.5 0.4 2.9 1.4 4 1 1.1 2.4 1.8 3.9 1.8 1.9 0 3.7-0.8 4.9-2.2z"/><path class="b" d="m534 50.2h4.6v19.3h-4.6z"/><path class="b" d="m555.6 65.4v4.1h-14.1v-19.3h4.6v15.2z"/></svg>