<?xml version="1.0" encoding="utf-8"?>
<!-- Generator: Adobe Illustrator 19.2.1, SVG Export Plug-In . SVG Version: 6.00 Build 0)  -->
<svg version="1.1" id="layer" xmlns="http://www.w3.org/2000/svg" xmlns:xlink="http://www.w3.org/1999/xlink" x="0px" y="0px"
	 viewBox="0 0 652 652" style="enable-background:new 0 0 652 652;" xml:space="preserve">
<style type="text/css">
	.st0{fill:#E65300;}
	.st1{fill:#3D3935;}
</style>
<g id="DesktopHD">
	<g id="CEC_DesktopHD_Homepage_1A" transform="translate(-570.000000, -988.000000)">
		<g id="Content" transform="translate(-159.000000, 0.000000)">
			<g id="Tabbed-Content" transform="translate(159.000000, 977.000000)">
				<g id="Tabs">
					<g id="logo_CEC-Installer" transform="translate(569.000000, 10.000000)">
						<g>
							<path id="Shape" class="st0" d="M115.4,415.8c-0.1-1.3-1.2-2.2-2.4-2.2c-0.4,0-0.9,0.1-1.3,0.3h-0.3c0,0,0,0-0.3,0
								c-0.4,0.4-0.6,0.9-0.6,1.4c-0.1,0.7,0.1,1.3,0.6,1.9c0.2,0.2,0.4,0.3,0.6,0.4h0.3c0.3,0,0.6,0,0.9,0c1.1,0,2-0.7,2.3-1.7
								c0.1-0.3,0.1-0.7,0-1.1"/>
							<path id="Shape_1_" class="st0" d="M104.7,419.2c0-0.1,0-0.3,0-0.4c-0.3-1.1-1.3-1.8-2.4-1.7c-0.9,0-1.7,0.4-2.1,1.1
								c0,0.1,0,0.2,0,0.3c0,0,0,0,0,0.3v0.5c-0.1,0.6,0.1,1.2,0.4,1.7c0.3,0.4,0.9,0.7,1.4,0.8h0.6c0.7,0,1.4-0.3,1.8-0.8
								c0.3-0.4,0.4-1,0.4-1.5"/>
							<path id="Shape_2_" class="st0" d="M141.2,412.3c0.8,0,1.5-0.3,2-0.8c0.4-0.5,0.6-1.2,0.6-1.9c0-0.1,0-0.2,0-0.3v-0.3
								c-0.3-1-1.2-1.6-2.3-1.6c-0.8,0-1.6,0.3-2.1,0.9c-0.4,0.5-0.6,1.1-0.5,1.7v0.4c0.2,1.1,1.2,1.9,2.4,1.9"/>
							<path id="Shape_3_" class="st0" d="M114.6,253.5c-0.4,0.5-0.6,1.2-0.6,1.8c0.1,1.3,1.2,2.3,2.5,2.2c0.7,0,1.4-0.3,2-0.8
								c0.7-0.7,0.9-1.8,0.5-2.8c-0.4-0.9-1.4-1.5-2.4-1.5c-0.7,0-1.5,0.3-2,0.8"/>
							<path id="Shape_4_" class="st0" d="M115.3,260.3c-0.4,0.5-0.6,1.2-0.6,1.9c0.1,1.3,1.2,2.2,2.4,2.2c0.7,0,1.5-0.3,2-0.8
								c0.5-0.5,0.7-1.2,0.6-1.9c-0.1-1.3-1.2-2.2-2.5-2.2C116.5,259.5,115.8,259.7,115.3,260.3"/>
							<path id="Shape_5_" class="st0" d="M115.9,266.5c-0.6,0.7-0.7,1.7-0.3,2.6c0.4,0.9,1.3,1.4,2.2,1.4c0.8,0,1.5-0.3,2-0.8
								c0.4-0.5,0.6-1.2,0.6-1.9c-0.1-1.3-1.2-2.2-2.5-2.2C117.1,265.7,116.4,265.9,115.9,266.5"/>
							<path id="Shape_6_" class="st0" d="M113,237.5c-0.4,0.5-0.6,1.2-0.6,1.9c0.1,1.3,1.2,2.2,2.5,2.2c0.7,0,1.5-0.3,2-0.8
								c0.4-0.5,0.6-1.2,0.6-1.8c-0.1-1.3-1.2-2.3-2.5-2.2C114.3,236.7,113.6,237,113,237.5"/>
							<path id="Shape_7_" class="st0" d="M113.9,245.9c-0.4,0.5-0.6,1.2-0.6,1.9c0.1,1.3,1.2,2.2,2.4,2.2c0.7,0,1.5-0.3,2-0.8
								c0.4-0.5,0.6-1.2,0.6-1.9c-0.1-1.3-1.2-2.2-2.4-2.2C115.1,245.1,114.4,245.4,113.9,245.9"/>
							<path id="Shape_8_" class="st0" d="M114,232.3c0.7,0,1.5-0.3,2-0.8c0.4-0.5,0.6-1.2,0.6-1.9c-0.1-1.3-1.2-2.2-2.4-2.2
								c-0.7,0-1.5,0.3-2,0.8c-0.5,0.5-0.7,1.2-0.6,1.8C111.7,231.3,112.7,232.3,114,232.3"/>
							<path id="Shape_9_" class="st0" d="M118.4,271c-0.7,0-1.5,0.3-2,0.8c-0.4,0.5-0.7,1.2-0.6,1.8c0.1,1.3,1.2,2.3,2.4,2.2
								c0.7,0,1.5-0.3,2-0.8c0.5-0.5,0.7-1.2,0.6-1.8C120.8,272,119.7,271,118.4,271"/>
							<path id="Shape_10_" class="st0" d="M110.3,257.2c-0.8,0-1.6,0.3-2.1,1c-0.5,0.5-0.6,1.3-0.5,2c0.2,1.2,1.2,2,2.4,2
								c0.8,0,1.6-0.3,2.1-0.9c0.6-0.7,0.7-1.7,0.3-2.6C112,257.7,111.2,257.2,110.3,257.2"/>
							<path id="Shape_11_" class="st0" d="M109.4,264.6c-0.5,0.7-0.6,1.7-0.2,2.5s1.3,1.3,2.2,1.4c0.8,0,1.6-0.3,2.1-0.9
								c0.4-0.6,0.6-1.3,0.4-2c-0.2-1.1-1.2-1.9-2.4-1.9C110.7,263.6,109.9,264,109.4,264.6"/>
							<path id="Shape_12_" class="st0" d="M112.6,274.1c0.8,0,1.6-0.4,2.1-0.9c0.6-0.7,0.7-1.7,0.3-2.6c-0.4-0.8-1.2-1.4-2.2-1.4
								c-0.8,0-1.6,0.3-2.1,0.9c-0.5,0.6-0.6,1.3-0.5,2C110.4,273.3,111.4,274.2,112.6,274.1"/>
							<path id="Shape_13_" class="st0" d="M105.1,243.4c-0.5,0.6-0.6,1.3-0.5,2c0.2,1.1,1.2,1.9,2.4,1.9c0.8,0,1.6-0.3,2.1-0.9
								c0.4-0.6,0.6-1.3,0.4-2c-0.2-1.1-1.2-1.9-2.4-1.9C106.4,242.4,105.6,242.8,105.1,243.4"/>
							<path id="Shape_14_" class="st0" d="M106.8,251.1c-0.4,0.5-0.6,1.3-0.5,2c0.2,1.2,1.2,2,2.4,2c0.8,0,1.6-0.3,2.1-0.9
								c0.6-0.7,0.7-1.7,0.3-2.6c-0.4-0.8-1.2-1.4-2.2-1.4C108,250.2,107.3,250.5,106.8,251.1"/>
							<path id="Shape_15_" class="st0" d="M103.3,234.6c-0.4,0.5-0.6,1.3-0.4,2c0.2,1.1,1.2,2,2.4,2c0.8,0,1.6-0.3,2.1-0.9
								c0.4-0.6,0.6-1.3,0.4-2c-0.2-1.1-1.2-2-2.4-1.9C104.6,233.6,103.9,234,103.3,234.6"/>
							<path id="Shape_16_" class="st0" d="M102.7,255.4c-0.9,0-1.7,0.4-2.2,1.1c-0.4,0.6-0.5,1.4-0.3,2.1c0.3,1,1.2,1.7,2.3,1.7
								c0.9,0,1.7-0.4,2.2-1.1c0.4-0.6,0.6-1.4,0.3-2.2C104.6,256.1,103.7,255.4,102.7,255.4"/>
							<path id="Shape_17_" class="st0" d="M102.5,263c-0.5,0.6-0.6,1.4-0.3,2.1c0.3,1,1.2,1.7,2.3,1.7c0.9,0,1.7-0.4,2.2-1.1
								c0.5-0.6,0.6-1.4,0.3-2.1c-0.3-1-1.2-1.7-2.3-1.7C103.9,261.9,103.1,262.3,102.5,263"/>
							<path id="Shape_18_" class="st0" d="M106.4,272.7c0.9,0,1.7-0.4,2.2-1.1c0.5-0.7,0.5-1.7,0.1-2.5c-0.4-0.8-1.2-1.3-2.1-1.3
								c-0.9,0-1.7,0.4-2.2,1.1c-0.4,0.6-0.5,1.4-0.3,2.2C104.4,272,105.3,272.7,106.4,272.7"/>
							<path id="Shape_19_" class="st0" d="M95.6,241.2c-0.4,0.6-0.5,1.4-0.3,2.1c0.3,1,1.2,1.7,2.3,1.7c0.9,0,1.7-0.4,2.2-1.1
								c0.5-0.7,0.5-1.7,0.1-2.5s-1.2-1.3-2.1-1.3C96.9,240.2,96.1,240.5,95.6,241.2"/>
							<path id="Shape_20_" class="st0" d="M98.1,249.5c-0.4,0.6-0.6,1.4-0.3,2.1c0.3,1,1.2,1.7,2.3,1.7c0.9,0,1.7-0.4,2.2-1.1
								c0.5-0.7,0.5-1.7,0.1-2.5s-1.2-1.3-2.1-1.3C99.5,248.4,98.6,248.8,98.1,249.5"/>
							<path id="Shape_21_" class="st0" d="M94.7,236.1c0.9,0,1.7-0.4,2.2-1.1c0.5-0.7,0.5-1.7,0.1-2.5c-0.4-0.8-1.2-1.3-2.1-1.3
								c-0.9,0-1.7,0.4-2.2,1.1c-0.4,0.6-0.5,1.4-0.3,2.1C92.7,235.4,93.6,236.1,94.7,236.1"/>
							<path id="Shape_22_" class="st0" d="M107.9,277.9c0.9,0,1.7-0.4,2.2-1.1c0.5-0.7,0.6-1.7,0.2-2.5c-0.4-0.8-1.2-1.3-2.2-1.3
								c-0.9,0-1.7,0.4-2.2,1.1c-0.5,0.7-0.5,1.7-0.1,2.5C106.2,277.4,107,277.9,107.9,277.9"/>
							<path id="Shape_23_" class="st0" d="M97.4,261.2c-0.9,0-1.8,0.4-2.3,1.2c-0.4,0.7-0.4,1.5,0,2.2c0.3,0.9,1.2,1.5,2.2,1.5
								c0.9,0,1.8-0.5,2.3-1.2c0.4-0.7,0.4-1.5,0-2.2C99.2,261.7,98.3,261.1,97.4,261.2"/>
							<path id="Shape_24_" class="st0" d="M97.7,268.4c-0.4,0.7-0.4,1.6,0,2.2c0.4,0.9,1.2,1.5,2.2,1.5c0.9,0,1.8-0.5,2.3-1.2
								c0.4-0.7,0.4-1.6,0-2.2c-0.4-0.9-1.2-1.5-2.2-1.4C99,267.2,98.2,267.6,97.7,268.4"/>
							<path id="Shape_25_" class="st0" d="M104.3,276.2c0.4-0.7,0.4-1.5,0-2.2c-0.3-0.9-1.2-1.5-2.2-1.4c-0.9,0-1.8,0.4-2.3,1.2
								c-0.4,0.7-0.4,1.5,0,2.2c0.3,0.9,1.2,1.5,2.1,1.4C102.9,277.4,103.8,276.9,104.3,276.2"/>
							<path id="Shape_26_" class="st0" d="M89,248.6c-0.4,0.7-0.4,1.5,0,2.2c0.4,0.9,1.2,1.5,2.2,1.4c0.9,0,1.8-0.4,2.3-1.2
								c0.4-0.7,0.4-1.6,0-2.2c-0.4-0.9-1.2-1.5-2.2-1.4C90.3,247.4,89.5,247.8,89,248.6"/>
							<path id="Shape_27_" class="st0" d="M94.5,254.6c-0.9,0-1.8,0.5-2.3,1.2c-0.5,0.7-0.5,1.7-0.1,2.4s1.2,1.2,2.1,1.3
								c0.9,0,1.8-0.5,2.3-1.2c0.4-0.8,0.4-1.7,0-2.4C96.1,255.1,95.4,254.6,94.5,254.6"/>
							<path id="Shape_28_" class="st0" d="M85.4,240.3c-0.4,0.7-0.4,1.5,0,2.2c0.4,0.9,1.2,1.5,2.2,1.4c0.9,0,1.8-0.5,2.3-1.2
								c0.4-0.7,0.4-1.5,0-2.2c-0.4-0.9-1.2-1.5-2.2-1.4C86.8,239.1,86,239.6,85.4,240.3"/>
							<path id="Shape_29_" class="st0" d="M83.5,235.1c0.9,0,1.8-0.4,2.3-1.2c0.4-0.7,0.4-1.5,0-2.2c-0.3-0.9-1.2-1.5-2.1-1.5
								c-0.9,0-1.8,0.5-2.3,1.2c-0.4,0.7-0.4,1.7,0,2.4c0.4,0.8,1.2,1.2,2,1.3"/>
							<path id="Shape_30_" class="st0" d="M103.2,229c0.9,0,1.8-0.4,2.3-1.2c0.4-0.7,0.4-1.6,0-2.2c-0.3-0.8-1-1.4-1.9-1.6
								c-0.9,0-1.8,0.5-2.3,1.2c-0.4,0.7-0.4,1.5,0,2.2c0.4,0.9,1.2,1.5,2.2,1.4"/>
							<path id="Shape_31_" class="st0" d="M89.4,261c-1,0-1.9,0.5-2.4,1.4c-0.4,0.7-0.4,1.6,0,2.3c0.4,0.8,1.2,1.2,2.1,1.2
								c1,0,1.8-0.5,2.4-1.3c0.4-0.7,0.4-1.6,0-2.4C91.1,261.5,90.3,261,89.4,261"/>
							<path id="Shape_32_" class="st0" d="M90.5,268.3c-0.4,0.7-0.4,1.6,0,2.3c0.4,0.8,1.2,1.2,2,1.2c1,0.1,2-0.4,2.5-1.2
								c0.4-0.7,0.4-1.6,0-2.4c-0.4-0.8-1.2-1.2-2-1.2c-1,0-1.9,0.5-2.4,1.4"/>
							<path id="Shape_33_" class="st0" d="M98,275.9c0.4-0.7,0.4-1.6,0-2.4c-0.4-0.8-1.2-1.2-2.1-1.2c-1,0-1.8,0.5-2.4,1.3
								c-0.4,0.7-0.4,1.6,0,2.4c0.4,0.7,1.2,1.2,2.1,1.2C96.6,277.2,97.5,276.7,98,275.9"/>
							<path id="Shape_34_" class="st0" d="M79.2,250.8c0.4,0.8,1.2,1.3,2.1,1.2c1,0,1.8-0.5,2.4-1.3c0.4-0.7,0.4-1.6,0-2.4
								c-0.4-0.8-1.2-1.2-2.1-1.2c-1,0-1.9,0.5-2.4,1.4C78.7,249.2,78.7,250.1,79.2,250.8"/>
							<path id="Shape_35_" class="st0" d="M85.7,254.5c-1,0-1.8,0.5-2.4,1.3c-0.4,0.7-0.4,1.6,0,2.4c0.4,0.8,1.2,1.3,2.1,1.2
								c1,0,1.8-0.5,2.4-1.3c0.4-0.7,0.4-1.6,0-2.4C87.3,254.9,86.5,254.5,85.7,254.5"/>
							<path id="Shape_36_" class="st0" d="M76.6,243.9c1,0,1.8-0.5,2.3-1.4c0.4-0.7,0.4-1.6,0-2.4c-0.4-0.7-1.2-1.2-2.1-1.2
								c-1,0-1.9,0.5-2.4,1.4c-0.4,0.7-0.4,1.6,0,2.3C74.9,243.4,75.7,243.9,76.6,243.9"/>
							<path id="Shape_37_" class="st0" d="M98.4,282c1,0,1.8-0.5,2.4-1.3c0.4-0.7,0.4-1.6,0-2.4c-0.4-0.8-1.2-1.3-2.1-1.2
								c-1,0-1.8,0.5-2.4,1.3c-0.4,0.7-0.4,1.6,0,2.4C96.7,281.6,97.5,282,98.4,282"/>
							<path id="Shape_38_" class="st0" d="M87.6,271.2c0.3-0.7,0.3-1.6-0.2-2.3c-0.4-0.7-1.2-1.1-2-1.2c-1,0-1.9,0.6-2.4,1.5
								c-0.5,0.8-0.5,1.7,0,2.5c0.4,0.6,1.2,1,1.9,1c1,0,1.9-0.6,2.4-1.5"/>
							<path id="Shape_39_" class="st0" d="M89,278.1c1,0,1.9-0.6,2.4-1.5c0.4-0.7,0.3-1.6-0.1-2.3c-0.4-0.7-1.2-1.1-2-1.2
								c-1,0-1.9,0.6-2.4,1.4c-0.5,0.7-0.5,1.7,0,2.5c0.4,0.6,1.1,1,1.9,1.1"/>
							<path id="Shape_40_" class="st0" d="M94.8,281.3c0.4-0.8,0.3-1.8-0.2-2.5c-0.4-0.6-1.2-1-1.9-1c-1,0-1.9,0.6-2.4,1.4
								c-0.4,0.8-0.3,1.8,0.3,2.5c0.4,0.6,1.1,1,1.9,1.1C93.4,282.8,94.3,282.2,94.8,281.3"/>
							<path id="Shape_41_" class="st0" d="M76.4,260.4c1,0,1.9-0.6,2.4-1.4c0.4-0.8,0.3-1.8-0.2-2.5c-0.4-0.7-1.1-1.1-1.9-1.1
								c-1,0-1.9,0.6-2.4,1.5c-0.4,0.8-0.3,1.8,0.3,2.5C74.9,260.1,75.6,260.4,76.4,260.4"/>
							<path id="Shape_42_" class="st0" d="M81.3,261.9c-1,0-1.9,0.6-2.4,1.4c-0.5,0.7-0.5,1.7,0,2.5c0.4,0.7,1.1,1.1,1.9,1.1
								c1,0,1.9-0.6,2.4-1.5c0.4-0.8,0.3-1.8-0.3-2.5c-0.4-0.6-1.2-1-1.9-1"/>
							<path id="Shape_43_" class="st0" d="M71.1,253.1c1,0,1.9-0.6,2.4-1.5c0.4-0.8,0.3-1.7-0.2-2.4c-0.4-0.7-1.1-1.1-1.9-1.1
								c-1,0-1.9,0.6-2.4,1.5c-0.4,0.8-0.3,1.8,0.2,2.5C69.7,252.7,70.4,253.1,71.1,253.1"/>
							<path id="Shape_44_" class="st0" d="M65.5,245.2c1,0,1.9-0.6,2.4-1.4c0.5-0.7,0.5-1.7,0-2.5c-0.4-0.6-1.1-1-1.9-1.1
								c-1,0-1.9,0.6-2.4,1.5c-0.4,0.7-0.3,1.6,0.1,2.3c0.4,0.7,1.2,1.1,2,1.2"/>
							<path id="Shape_45_" class="st0" d="M75.3,270.7c-0.4,0.8-0.2,1.8,0.4,2.5c0.4,0.5,1.1,0.9,1.8,0.8c1,0,2-0.6,2.4-1.6
								c0.4-0.9,0.3-1.9-0.4-2.5c-0.4-0.5-1.1-0.8-1.8-0.8C76.7,269.1,75.7,269.7,75.3,270.7"/>
							<path id="Shape_46_" class="st0" d="M84.5,277.7c0.3-0.7,0.2-1.6-0.2-2.3c-0.4-0.7-1.2-1.1-2-1.1c-1,0.1-2,0.7-2.4,1.6
								c-0.3,0.7-0.2,1.6,0.2,2.3c0.4,0.7,1.2,1.1,2,1.1C83.1,279.3,84.1,278.7,84.5,277.7"/>
							<path id="Shape_47_" class="st0" d="M88.6,282.3c0.4-0.8,0.2-1.8-0.4-2.5c-0.4-0.5-1.1-0.8-1.8-0.8c-1,0-2,0.6-2.4,1.6
								c-0.4,0.9-0.2,1.9,0.4,2.5c0.4,0.5,1.1,0.8,1.8,0.8C87.2,283.9,88.2,283.2,88.6,282.3"/>
							<path id="Shape_48_" class="st0" d="M67,257.2c-1,0.1-2,0.7-2.4,1.6c-0.4,0.9-0.2,1.9,0.4,2.5c0.4,0.5,1.1,0.8,1.8,0.8
								c1-0.1,2-0.7,2.4-1.6c0.4-0.9,0.2-1.9-0.4-2.5C68.3,257.5,67.7,257.2,67,257.2"/>
							<path id="Shape_49_" class="st0" d="M72.6,263.5c-1,0.1-2,0.7-2.4,1.6c-0.3,0.7-0.2,1.6,0.2,2.3c0.4,0.7,1.2,1.1,2,1.1
								c1-0.1,2-0.7,2.4-1.6c0.3-0.7,0.2-1.6-0.2-2.3C74.2,264,73.5,263.6,72.6,263.5"/>
							<path id="Shape_50_" class="st0" d="M60.6,255.2c1-0.1,2-0.7,2.4-1.6c0.3-0.7,0.2-1.6-0.2-2.3c-0.4-0.7-1.2-1.1-2-1.1
								c-1,0.1-2,0.7-2.4,1.6c-0.4,0.9-0.2,1.9,0.4,2.5C59.2,254.9,59.9,255.2,60.6,255.2"/>
							<path id="Shape_51_" class="st0" d="M89.9,288.1c1.1,0,2-0.7,2.4-1.6c0.3-0.7,0.2-1.6-0.2-2.3c-0.4-0.7-1.2-1.1-2-1.1
								c-1,0.1-2,0.7-2.4,1.6c-0.3,0.7-0.2,1.6,0.2,2.3C88.3,287.6,89.1,288,89.9,288.1"/>
							<path id="Shape_52_" class="st0" d="M72.8,278.3c-0.4,0.9-0.1,2,0.6,2.6c0.4,0.4,1,0.7,1.6,0.7c1.1-0.1,2-0.7,2.4-1.7
								c0.4-0.9,0.1-2-0.7-2.6c-0.4-0.4-1-0.7-1.6-0.7C74.1,276.6,73.1,277.3,72.8,278.3"/>
							<path id="Shape_53_" class="st0" d="M80,281.1c-1.1,0-2,0.7-2.4,1.7c-0.4,0.9-0.1,2,0.6,2.6c0.4,0.4,1,0.6,1.6,0.6
								c1.1,0,2-0.7,2.4-1.7c0.4-0.9,0.1-2-0.7-2.6C81.2,281.3,80.6,281.1,80,281.1"/>
							<path id="Shape_54_" class="st0" d="M86.5,288.2c0.4-0.9,0.1-2-0.7-2.6c-0.4-0.4-1-0.7-1.6-0.7c-1.1,0-2.1,0.7-2.4,1.7
								c-0.4,0.9-0.1,2,0.6,2.6c0.4,0.4,1,0.6,1.6,0.7C85.1,289.9,86.1,289.2,86.5,288.2"/>
							<path id="Shape_55_" class="st0" d="M61.6,268.2c-0.3,0.7-0.1,1.6,0.3,2.2c0.5,0.6,1.2,1,2,1c1.1,0,2-0.7,2.4-1.7
								c0.4-0.9,0.1-2-0.6-2.6c-0.4-0.4-1-0.7-1.6-0.7C62.9,266.5,62,267.2,61.6,268.2"/>
							<path id="Shape_56_" class="st0" d="M67.5,273.5c-0.4,0.9-0.1,2,0.6,2.6c0.4,0.4,1,0.7,1.6,0.7c1.1,0,2-0.7,2.4-1.7
								c0.4-0.9,0.1-2-0.6-2.6c-0.4-0.4-1-0.7-1.6-0.7C68.8,271.8,67.9,272.5,67.5,273.5"/>
							<path id="Shape_57_" class="st0" d="M57.2,265.4c1.1-0.1,2-0.7,2.4-1.7c0.4-0.9,0.1-2-0.7-2.6c-0.4-0.4-1-0.7-1.6-0.7
								c-1.1,0.1-2,0.7-2.4,1.7c-0.4,0.9-0.1,2,0.6,2.6C56,265.1,56.6,265.4,57.2,265.4"/>
							<path id="Shape_58_" class="st0" d="M49.9,258.8c1.1,0,2-0.7,2.4-1.7c0.4-0.9,0.1-2-0.6-2.6c-0.4-0.4-1-0.6-1.6-0.6
								c-1.1,0-2,0.7-2.4,1.7c-0.4,0.9-0.1,2,0.6,2.6C48.7,258.6,49.3,258.8,49.9,258.8"/>
							<path id="Shape_59_" class="st0" d="M66.4,284.2c0.4,0.3,0.9,0.5,1.5,0.5c1.1-0.1,2.1-0.8,2.4-1.8c0.2-0.7,0.1-1.5-0.4-2.1
								c-0.4-0.6-1.2-1-1.9-1c-1.1,0-2.1,0.8-2.4,1.8C65.1,282.5,65.5,283.6,66.4,284.2"/>
							<path id="Shape_60_" class="st0" d="M75.8,286.9c0.3-1,0-2.1-0.9-2.7c-0.4-0.3-0.9-0.5-1.5-0.5c-1.1,0.1-2.1,0.8-2.4,1.9
								c-0.3,1,0,2.1,0.9,2.7c0.4,0.3,1,0.5,1.5,0.5C74.5,288.7,75.4,288,75.8,286.9"/>
							<path id="Shape_61_" class="st0" d="M79.9,287.9c-0.4-0.3-0.9-0.5-1.5-0.5c-1.1,0.1-2.1,0.8-2.4,1.9c-0.3,1,0,2.1,0.9,2.6
								c0.4,0.3,0.9,0.5,1.5,0.5c1.1-0.1,2.1-0.8,2.4-1.8C81.1,289.6,80.7,288.5,79.9,287.9"/>
							<path id="Shape_62_" class="st0" d="M53.4,274.7c0.4,0.3,0.9,0.5,1.5,0.5c1.1-0.1,2.1-0.8,2.4-1.9c0.4-0.9,0.1-2-0.7-2.6
								c-0.4-0.3-0.9-0.5-1.5-0.5c-1.1,0-2.1,0.8-2.4,1.9c-0.3,1,0,2,0.9,2.6"/>
							<path id="Shape_63_" class="st0" d="M59.3,277c-0.3,1,0,2.1,0.9,2.7c0.4,0.3,0.9,0.5,1.5,0.5c1.1-0.1,2.1-0.8,2.4-1.9
								c0.3-1,0-2-0.9-2.6c-0.4-0.3-0.9-0.5-1.5-0.5C60.6,275.3,59.6,276,59.3,277"/>
							<path id="Shape_64_" class="st0" d="M45.8,269.1c0.4,0.3,0.9,0.5,1.5,0.5c1.1-0.1,2.1-0.8,2.4-1.8c0.3-1,0-2.1-0.9-2.7
								c-0.4-0.3-0.9-0.5-1.5-0.5c-1.1,0-2.1,0.8-2.4,1.9C44.5,267.5,44.9,268.6,45.8,269.1"/>
							<path id="Shape_65_" class="st0" d="M81.4,295.2c0.4,0.3,0.9,0.5,1.5,0.5c1.1,0,2.1-0.8,2.4-1.9c0.3-1,0-2.1-0.9-2.6
								c-0.4-0.3-0.9-0.5-1.5-0.5c-1.1,0.1-2.1,0.8-2.4,1.8C80.1,293.5,80.5,294.6,81.4,295.2"/>
							<path id="Shape_66_" class="st0" d="M65.7,291.9c0.4,0.2,0.8,0.4,1.3,0.4c1.2-0.1,2.1-0.9,2.4-2c0.3-1.1-0.2-2.2-1.2-2.7
								c-0.4-0.2-0.8-0.4-1.2-0.4c-1.2,0.1-2.1,0.9-2.4,2C64.2,290.3,64.7,291.4,65.7,291.9"/>
							<path id="Shape_67_" class="st0" d="M73.9,291.2c-0.4-0.2-0.8-0.4-1.3-0.4c-1.1,0.1-2.1,0.9-2.4,2c-0.3,1.1,0.1,2.2,1.1,2.7
								c0.4,0.2,0.8,0.3,1.3,0.3c1.1,0,2.1-0.8,2.4-2C75.3,292.8,74.8,291.7,73.9,291.2"/>
							<path id="Shape_68_" class="st0" d="M78.9,294.1c-0.4-0.2-0.8-0.4-1.3-0.4c-1.2,0.1-2.1,0.9-2.4,2c-0.3,1,0.1,2.2,1.1,2.7
								c0.4,0.2,0.8,0.4,1.3,0.4c1.2-0.1,2.1-0.9,2.4-2C80.3,295.7,79.9,294.6,78.9,294.1"/>
							<path id="Shape_69_" class="st0" d="M55.1,280.2c-0.4-0.2-0.8-0.3-1.3-0.3c-1.1,0-2.1,0.8-2.4,2c-0.3,1,0.1,2.2,1.1,2.7
								c0.4,0.2,0.8,0.4,1.3,0.4c1.1,0,2.1-0.8,2.4-2C56.6,281.8,56.1,280.7,55.1,280.2"/>
							<path id="Shape_70_" class="st0" d="M58.4,285.8c-0.3,1.1,0.2,2.2,1.2,2.7c0.4,0.2,0.8,0.4,1.2,0.4c1.2,0,2.1-0.9,2.4-2
								c0.3-1-0.1-2.2-1.1-2.7c-0.4-0.2-0.8-0.3-1.3-0.3C59.6,283.9,58.6,284.7,58.4,285.8"/>
							<path id="Shape_71_" class="st0" d="M44.8,279.9c0.4,0.2,0.8,0.4,1.2,0.4c1.1,0,2.1-0.8,2.4-2c0.3-1.1-0.1-2.2-1.1-2.7
								c-0.4-0.2-0.8-0.3-1.3-0.3c-1.1,0.1-2.1,0.9-2.4,2C43.4,278.3,43.9,279.4,44.8,279.9"/>
							<path id="Shape_72_" class="st0" d="M36.7,275.3c0.4,0.2,0.8,0.4,1.3,0.4c1.1,0,2.1-0.8,2.4-2c0.3-1.1-0.1-2.2-1.1-2.7
								c-0.4-0.2-0.8-0.3-1.3-0.3c-1.1,0.1-2.1,0.9-2.4,2C35.3,273.7,35.8,274.8,36.7,275.3"/>
							<path id="Shape_73_" class="st0" d="M59.5,296.7c0.3,0.2,0.7,0.3,1.1,0.3c1.2,0,2.2-0.9,2.4-2.1c0.3-1.1-0.3-2.3-1.4-2.7
								c-0.3-0.2-0.7-0.2-1.1-0.3c-1.2,0-2.2,0.9-2.4,2.1C57.8,295.1,58.4,296.3,59.5,296.7"/>
							<path id="Shape_74_" class="st0" d="M65.8,299.5c0.3,0.2,0.7,0.3,1.1,0.3c1.2-0.1,2.1-0.9,2.4-2.1c0.1-0.7-0.1-1.5-0.5-2
								c-0.5-0.6-1.2-0.9-1.9-0.9c-1.2,0.1-2.2,0.9-2.4,2.1C64.1,297.9,64.7,299.1,65.8,299.5"/>
							<path id="Shape_75_" class="st0" d="M72.4,302.3c1.2,0,2.2-0.9,2.4-2c0.3-1.1-0.3-2.3-1.4-2.7c-0.3-0.2-0.7-0.3-1.1-0.3
								c-1.2,0.1-2.2,0.9-2.4,2.1c-0.3,1.1,0.3,2.3,1.4,2.7C71.7,302.2,72.1,302.3,72.4,302.3"/>
							<path id="Shape_76_" class="st0" d="M44.8,290.1c0.3,0.2,0.7,0.3,1.1,0.3c1.2-0.1,2.2-0.9,2.4-2.1c0.3-1.1-0.3-2.3-1.4-2.7
								c-0.4-0.1-0.7-0.1-1.1,0c-1.2,0.1-2.1,0.9-2.4,2c-0.3,1.1,0.3,2.3,1.4,2.7"/>
							<path id="Shape_77_" class="st0" d="M52.5,293.5c0.3,0.2,0.7,0.3,1,0.3c1.2-0.1,2.2-0.9,2.4-2.1c0.3-1.1-0.3-2.3-1.4-2.7
								c-0.3-0.2-0.7-0.3-1.1-0.3c-1.2,0.1-2.2,0.9-2.4,2.1C50.9,292,51.5,293.1,52.5,293.5"/>
							<path id="Shape_78_" class="st0" d="M36.2,286.2c0.3,0.2,0.7,0.3,1.1,0.3c1.2-0.1,2.2-0.9,2.4-2.1c0.3-1.1-0.3-2.3-1.4-2.7
								c-0.3-0.2-0.7-0.2-1.1-0.3c-1.2,0.1-2.2,0.9-2.4,2.1C34.5,284.6,35.1,285.8,36.2,286.2"/>
							<path id="Shape_79_" class="st0" d="M76.4,304.4c0.3,0.2,0.7,0.3,1.1,0.3c1.2-0.1,2.2-0.9,2.4-2.1c0.3-1.1-0.3-2.3-1.4-2.7
								c-0.3-0.2-0.7-0.2-1.1-0.3c-1.2,0.1-2.2,0.9-2.4,2.1C74.8,302.8,75.4,303.9,76.4,304.4"/>
							<path id="Shape_80_" class="st0" d="M62,299.8c-0.3,0-0.6,0-0.9,0c-1.2,0.1-2.2,1-2.4,2.2c-0.2,1.2,0.5,2.4,1.6,2.7h0.9
								c1.2-0.1,2.2-1,2.4-2.2C63.9,301.3,63.2,300.2,62,299.8"/>
							<path id="Shape_81_" class="st0" d="M67.5,306.8c1.2-0.1,2.2-1,2.4-2.2c0.2-1.2-0.5-2.3-1.7-2.7c-0.3-0.1-0.6-0.1-0.9,0
								c-1.2,0.1-2.2,1-2.4,2.2c-0.3,1.2,0.5,2.4,1.6,2.7L67.5,306.8"/>
							<path id="Shape_82_" class="st0" d="M73.7,303.8c-0.3,0-0.6,0-0.9,0c-1.2,0.1-2.2,1-2.4,2.2c-0.2,1.2,0.5,2.3,1.6,2.7
								c0.3,0.1,0.6,0.1,0.9,0c1.2-0.1,2.2-1,2.4-2.2C75.5,305.2,74.8,304.1,73.7,303.8"/>
							<path id="Shape_83_" class="st0" d="M46.9,299.9c1.2-0.1,2.2-1,2.4-2.2c0.2-1.2-0.5-2.3-1.6-2.7c-0.3,0-0.6,0-0.9,0
								c-1.2,0.1-2.2,1-2.4,2.2c-0.2,1.2,0.5,2.3,1.6,2.7C46.4,300,46.7,300,46.9,299.9"/>
							<path id="Shape_84_" class="st0" d="M55.2,297.5c-0.3,0-0.6,0-0.9,0c-1.2,0.1-2.2,1-2.4,2.2c-0.2,1.2,0.5,2.3,1.6,2.7
								c0.3,0.1,0.6,0.1,0.9,0c1.2-0.1,2.2-1,2.4-2.2C57.1,299,56.4,297.8,55.2,297.5"/>
							<path id="Shape_85_" class="st0" d="M39.1,292.2h-0.9c-1.2,0.1-2.2,1-2.4,2.2c-0.2,1.2,0.5,2.3,1.6,2.7c0.3,0,0.6,0,0.9,0
								c1.2-0.1,2.2-1,2.4-2.2C41,293.6,40.3,292.5,39.1,292.2"/>
							<path id="Shape_86_" class="st0" d="M28.2,293.8c0.3,0,0.6,0,0.9,0c1.2-0.1,2.2-1,2.4-2.2c0.2-1.2-0.5-2.3-1.7-2.7
								c-0.3,0-0.5,0-0.8,0c-1.2,0-2.2,1-2.4,2.2C26.3,292.3,27,293.5,28.2,293.8"/>
							<path id="Shape_87_" class="st0" d="M56.6,305.8H56c-1.3,0.1-2.3,1-2.4,2.3c-0.2,1.2,0.6,2.4,1.9,2.7h0.6
								c1.3,0,2.3-1,2.4-2.3C58.6,307.2,57.8,306.1,56.6,305.8"/>
							<path id="Shape_88_" class="st0" d="M62.5,307.2c-1.3,0.1-2.3,1-2.4,2.3c-0.2,1.3,0.7,2.4,1.9,2.7h0.6c1.3,0,2.3-1,2.4-2.3
								c0.2-1.2-0.7-2.4-1.9-2.6L62.5,307.2"/>
							<path id="Shape_89_" class="st0" d="M71,311.2c0.2-1.2-0.6-2.4-1.9-2.7h-0.6c-1.3,0-2.3,1-2.4,2.3c-0.2,1.2,0.7,2.4,1.9,2.6
								h0.6C69.9,313.4,70.9,312.4,71,311.2"/>
							<path id="Shape_90_" class="st0" d="M40,302.4c-1.2,0-2.3,1-2.4,2.2c-0.2,1.2,0.6,2.4,1.9,2.7h0.6c1.3,0,2.3-1,2.4-2.3
								c0.2-1.2-0.7-2.4-1.9-2.6H40"/>
							<path id="Shape_91_" class="st0" d="M48,308.9h0.6c1.2,0,2.3-1,2.4-2.2c0.2-1.3-0.7-2.4-1.9-2.7h-0.6c-1.3,0-2.3,1-2.4,2.2
								C45.9,307.5,46.7,308.7,48,308.9"/>
							<path id="Shape_92_" class="st0" d="M30.9,300.4c-1.3,0-2.3,1-2.4,2.3c-0.2,1.2,0.7,2.4,1.9,2.6H31c1.3,0,2.3-1,2.4-2.3
								c0.2-1.2-0.6-2.4-1.9-2.6H30.9"/>
							<path id="Shape_93_" class="st0" d="M74.1,314.6c1.3,0,2.3-1,2.4-2.3c0.2-1.2-0.7-2.4-1.9-2.6H74c-1.2,0-2.3,1-2.4,2.2
								c-0.2,1.2,0.6,2.4,1.9,2.7H74.1"/>
							<path id="Shape_94_" class="st0" d="M55.7,315.6c-0.1,0.6,0.1,1.3,0.5,1.7c0.4,0.5,1,0.8,1.6,0.8h0.3c1.3,0,2.4-1.1,2.4-2.4
								c0.1-0.6-0.1-1.3-0.5-1.7c-0.4-0.5-1-0.8-1.6-0.8c-0.7-0.1-1.4,0.1-1.9,0.6C56.1,314.2,55.8,314.9,55.7,315.6"/>
							<path id="Shape_95_" class="st0" d="M67.2,316.5c0-1.3-1.1-2.4-2.4-2.4c-1.3,0-2.4,1.1-2.4,2.4c-0.1,0.6,0.1,1.3,0.5,1.7
								c0.4,0.5,1,0.8,1.6,0.8h0.3c1.3,0,2.4-1.1,2.4-2.4"/>
							<path id="Shape_96_" class="st0" d="M70.8,314.5c-0.7-0.1-1.4,0.1-1.9,0.6s-0.8,1.1-0.8,1.8c-0.1,0.6,0.1,1.3,0.5,1.7
								s1,0.8,1.6,0.8h0.3c1.3,0,2.4-1.1,2.4-2.4c0.1-0.6-0.1-1.3-0.5-1.7C72.1,314.9,71.5,314.6,70.8,314.5"/>
							<path id="Shape_97_" class="st0" d="M40.7,313.9c-0.1,0.6,0.1,1.3,0.5,1.8c0.4,0.5,1,0.8,1.6,0.8h0.3c1.3,0,2.4-1,2.4-2.3
								c0.1-1.3-0.8-2.5-2.2-2.6c-0.7-0.1-1.4,0.1-1.9,0.6C41,312.6,40.7,313.2,40.7,313.9"/>
							<path id="Shape_98_" class="st0" d="M48.6,314.8c-0.1,1.3,0.9,2.5,2.2,2.6h0.3c1.3,0,2.4-1.1,2.4-2.4
								c0.1-0.6-0.1-1.3-0.5-1.7c-0.4-0.5-1-0.8-1.6-0.8H51C49.7,312.4,48.6,313.5,48.6,314.8"/>
							<path id="Shape_99_" class="st0" d="M31.7,313.1c-0.1,0.6,0.1,1.2,0.5,1.7c0.4,0.5,1,0.8,1.6,0.8h0.3c1.3,0,2.4-1.1,2.4-2.4
								c0-1.3-1.1-2.4-2.4-2.4c-1.3,0-2.4,1.1-2.4,2.4"/>
							<path id="Shape_100_" class="st0" d="M24.4,314.4h0.3c1.3,0,2.4-1.1,2.4-2.4c0.1-0.6-0.1-1.3-0.5-1.7s-1-0.8-1.6-0.8
								c-0.7-0.1-1.4,0.1-1.9,0.6c-0.5,0.5-0.8,1.1-0.8,1.8c-0.1,0.6,0.1,1.3,0.5,1.7S23.8,314.4,24.4,314.4"/>
							<path id="Shape_101_" class="st0" d="M54.2,324.9c0.7,0,1.3-0.2,1.8-0.7c0.5-0.5,0.7-1.1,0.7-1.8c0-0.7-0.2-1.3-0.7-1.8
								s-1.1-0.7-1.8-0.7c-1.4,0-2.5,1.1-2.5,2.5C51.6,323.7,52.8,324.9,54.2,324.9L54.2,324.9z"/>
							<path id="Shape_102_" class="st0" d="M61,319.9c-0.7,0-1.3,0.2-1.8,0.7c-0.5,0.5-0.7,1.1-0.7,1.8c0,0.7,0.2,1.3,0.7,1.8
								c0.5,0.5,1.1,0.7,1.8,0.7c1.4,0,2.5-1.1,2.5-2.5C63.6,321,62.4,319.9,61,319.9"/>
							<path id="Shape_103_" class="st0" d="M69.7,322.4c0-1.3-1.1-2.4-2.5-2.4s-2.4,1.1-2.4,2.4c0,1.3,1.1,2.4,2.4,2.4
								c0.7,0,1.3-0.2,1.8-0.7C69.5,323.7,69.7,323.1,69.7,322.4"/>
							<path id="Shape_104_" class="st0" d="M38,319.8c-1.3,0.2-2.2,1.2-2.2,2.5s0.9,2.3,2.2,2.5c1.3-0.2,2.2-1.2,2.2-2.5
								S39.3,320,38,319.8"/>
							<path id="Shape_105_" class="st0" d="M44.1,322.3c0,0.7,0.2,1.3,0.6,1.8c0.5,0.5,1.1,0.7,1.8,0.7c1,0,2-0.6,2.4-1.5
								c0.4-0.9,0.2-2-0.5-2.8c-0.7-0.7-1.8-1-2.8-0.6C44.7,320.4,44.1,321.3,44.1,322.3"/>
							<path id="Shape_106_" class="st0" d="M28.6,319.8c-0.7,0-1.3,0.2-1.8,0.7s-0.7,1.1-0.7,1.8c0,0.7,0.2,1.3,0.6,1.8
								c0.5,0.5,1.1,0.7,1.8,0.7c0.7,0,1.3-0.2,1.8-0.7c0.5-0.5,0.7-1.1,0.7-1.8c0-0.7-0.2-1.3-0.7-1.8
								C29.9,320,29.3,319.8,28.6,319.8"/>
							<path id="Shape_107_" class="st0" d="M75.3,322.4c0-1.4-1.1-2.4-2.5-2.4c-1.4,0-2.5,1.1-2.5,2.5s1.1,2.4,2.5,2.4
								c0.7,0,1.3-0.2,1.8-0.7C75.1,323.7,75.3,323.1,75.3,322.4"/>
							<path id="Shape_108_" class="st0" d="M58,331.6h0.3c0.6,0,1.2-0.3,1.6-0.8c0.4-0.5,0.6-1.1,0.6-1.7c0-0.7-0.3-1.3-0.8-1.8
								c-0.5-0.5-1.2-0.7-1.9-0.6c-0.6,0-1.2,0.3-1.7,0.8s-0.6,1.1-0.6,1.7C55.6,330.6,56.7,331.7,58,331.6"/>
							<path id="Shape_109_" class="st0" d="M67.1,328.5c0-0.7-0.3-1.3-0.8-1.8c-0.5-0.5-1.2-0.7-1.9-0.6c-0.6,0-1.2,0.3-1.6,0.8
								c-0.4,0.5-0.6,1.1-0.5,1.7c0,1.3,1.1,2.4,2.4,2.4h0.5c0.6,0,1.2-0.3,1.6-0.8c0.4-0.5,0.6-1.1,0.5-1.7"/>
							<path id="Shape_110_" class="st0" d="M70.2,325.5c-1.3,0.2-2.2,1.2-2.2,2.5s0.9,2.3,2.2,2.5h0.3c0.6-0.1,1.2-0.4,1.6-0.8
								c0.4-0.5,0.6-1.1,0.5-1.7c0-0.7-0.3-1.3-0.8-1.8c-0.5-0.5-1.2-0.7-1.9-0.6"/>
							<path id="Shape_111_" class="st0" d="M40.5,330.8c0,1.3,1.1,2.4,2.4,2.4h0.3c0.6,0,1.2-0.3,1.6-0.8c0.4-0.5,0.6-1.1,0.5-1.8
								c0-1.3-1.1-2.4-2.4-2.4s-2.4,1.1-2.4,2.4"/>
							<path id="Shape_112_" class="st0" d="M48.5,330.1c0,1.3,1.1,2.4,2.4,2.4h0.3c0.6-0.1,1.2-0.4,1.6-0.8
								c0.4-0.5,0.6-1.1,0.5-1.7c0-0.7-0.3-1.3-0.8-1.8c-0.5-0.5-1.2-0.7-1.9-0.6c-0.6,0.1-1.2,0.4-1.6,0.8
								C48.6,328.9,48.4,329.5,48.5,330.1"/>
							<path id="Shape_113_" class="st0" d="M36.4,331.4c0-1.3-1.1-2.4-2.4-2.4h-0.3c-1.3,0.2-2.2,1.3-2.1,2.6
								c0.1,1.3,1,2.3,2.3,2.4h0.3c0.6-0.1,1.2-0.4,1.6-0.8C36.3,332.7,36.5,332,36.4,331.4"/>
							<path id="Shape_114_" class="st0" d="M23.9,330.1c-1.3,0.2-2.2,1.2-2.2,2.5s0.9,2.3,2.2,2.5h0.3c1.3-0.2,2.2-1.4,2.1-2.7
								c-0.1-1.3-1.2-2.3-2.6-2.2"/>
							<path id="Shape_115_" class="st0" d="M58,336.4c0-1.3-1.1-2.3-2.4-2.3H55c-1.2,0.2-2.1,1.4-1.9,2.6c0.1,1.3,1.1,2.3,2.4,2.3
								h0.6C57.3,338.8,58.2,337.6,58,336.4"/>
							<path id="Shape_116_" class="st0" d="M64.7,335c-0.1-1.3-1.1-2.3-2.4-2.3h-0.6c-0.6,0.1-1.2,0.4-1.5,0.9s-0.5,1.1-0.4,1.7
								c0.1,1.3,1.1,2.3,2.4,2.3h0.6c0.6-0.1,1.2-0.4,1.5-0.9S64.8,335.6,64.7,335"/>
							<path id="Shape_117_" class="st0" d="M68.4,331.4h-0.6c-1.3,0.2-2.1,1.4-1.9,2.6c0,1.3,1.1,2.3,2.4,2.3h0.6
								c1.2-0.3,2.1-1.4,1.9-2.6C70.7,332.5,69.7,331.5,68.4,331.4"/>
							<path id="Shape_118_" class="st0" d="M39.8,337.3h-0.6c-1.3,0.2-2.1,1.4-1.9,2.6c0.1,1.3,1.1,2.3,2.4,2.3h0.6
								c0.6-0.1,1.2-0.4,1.5-0.9c0.4-0.5,0.5-1.1,0.4-1.7C42.1,338.4,41.1,337.4,39.8,337.3"/>
							<path id="Shape_119_" class="st0" d="M50.5,337.9c0-1.3-1.1-2.3-2.4-2.3h-0.6c-1.3,0.2-2.1,1.4-2,2.6
								c0.1,1.3,1.1,2.3,2.4,2.3h0.6C49.8,340.3,50.7,339.1,50.5,337.9"/>
							<path id="Shape_120_" class="st0" d="M30.6,339.2H30c-1.3,0.2-2.1,1.4-1.9,2.6c0.1,1.3,1.1,2.3,2.4,2.3H31
								c0.6-0.1,1.2-0.4,1.5-0.9c0.4-0.5,0.5-1.1,0.4-1.7C32.9,340.3,31.9,339.3,30.6,339.2"/>
							<path id="Shape_121_" class="st0" d="M76.2,332.6c-0.1-1.3-1.1-2.2-2.4-2.3h-0.6c-1.2,0.2-2.1,1.4-1.9,2.6
								c0.1,1.3,1.1,2.3,2.4,2.3h0.6C75.6,335,76.4,333.8,76.2,332.6"/>
							<path id="Shape_122_" class="st0" d="M60.8,344.9c0.3,0,0.5,0,0.8,0c1.2-0.3,1.9-1.5,1.7-2.7c-0.1-1.2-1.1-2.2-2.4-2.2
								c-0.3,0-0.5,0-0.8,0c-1.2,0.3-1.9,1.5-1.7,2.7C58.6,343.9,59.6,344.8,60.8,344.9"/>
							<path id="Shape_123_" class="st0" d="M64.6,340.8c0.1,1.2,1.2,2.2,2.4,2.2c0.3,0.1,0.5,0.1,0.8,0c1.2-0.3,1.9-1.5,1.7-2.7
								c-0.1-1.2-1.2-2.1-2.4-2.2h-0.8C65.2,338.5,64.4,339.6,64.6,340.8"/>
							<path id="Shape_124_" class="st0" d="M75.1,338.4c-0.1-1.2-1.2-2.2-2.4-2.2c-0.3-0.1-0.5-0.1-0.8,0c-1.2,0.3-1.9,1.5-1.7,2.7
								c0.1,0.7,0.5,1.4,1.1,1.8s1.4,0.5,2.1,0.3c1.2-0.3,1.9-1.5,1.7-2.7"/>
							<path id="Shape_125_" class="st0" d="M46.3,349.5c0.3,0,0.6,0,0.9,0c1.2-0.3,1.9-1.5,1.6-2.7c-0.1-1.2-1.1-2.2-2.4-2.2
								c-0.3-0.1-0.5-0.1-0.8,0c-1.2,0.3-1.9,1.5-1.7,2.7C44,348.5,45,349.4,46.3,349.5"/>
							<path id="Shape_126_" class="st0" d="M56.6,344.2c-0.1-1.2-1.2-2.1-2.4-2.2h-0.8c-1.2,0.3-1.9,1.5-1.7,2.7
								c0.2,1.2,1.2,2.1,2.4,2.2h0.8C56.1,346.6,56.8,345.4,56.6,344.2"/>
							<path id="Shape_127_" class="st0" d="M37.7,347.1h-0.8c-1.2,0.3-1.9,1.5-1.7,2.7c0.1,1.2,1.2,2.2,2.4,2.2h0.8
								c1.2-0.3,1.9-1.5,1.7-2.7C40,348.1,39,347.1,37.7,347.1"/>
							<path id="Shape_128_" class="st0" d="M28.6,350.1h-0.8c-1.2,0.3-1.9,1.5-1.7,2.7c0.1,1.2,1.2,2.2,2.4,2.2h0.8
								c1.2-0.3,1.9-1.5,1.7-2.7C30.9,351.1,29.8,350.1,28.6,350.1"/>
							<path id="Shape_129_" class="st0" d="M59.8,352.7c0.4,0,0.7-0.1,1-0.3c1.1-0.4,1.7-1.6,1.4-2.7c-0.2-1.2-1.2-2-2.4-2.1
								c-0.4,0-0.7,0.1-1.1,0.3c-1.1,0.4-1.7,1.6-1.4,2.7C57.6,351.7,58.6,352.6,59.8,352.7"/>
							<path id="Shape_130_" class="st0" d="M66.1,349.9c0.4,0.1,0.7,0.1,1.1,0c1.1-0.4,1.7-1.6,1.4-2.7c-0.2-1.2-1.2-2-2.4-2.1
								c-0.3-0.1-0.7-0.1-1,0c-1.1,0.4-1.7,1.6-1.4,2.7C64,349,64.9,349.8,66.1,349.9"/>
							<path id="Shape_131_" class="st0" d="M71.8,347.4c0.7,0,1.4-0.4,1.9-0.9c0.5-0.6,0.7-1.3,0.6-2c-0.2-1.2-1.2-2.1-2.4-2.1
								c-0.4,0-0.7,0.1-1,0.3c-1.1,0.4-1.7,1.6-1.4,2.7C69.6,346.5,70.6,347.4,71.8,347.4"/>
							<path id="Shape_132_" class="st0" d="M45.1,359.1c0.4,0,0.7-0.1,1-0.2c1.1-0.4,1.7-1.6,1.4-2.7c-0.2-1.2-1.2-2.1-2.4-2.1
								c-0.7,0-1.4,0.4-1.9,0.9c-0.5,0.6-0.7,1.3-0.6,2C42.9,358.1,43.9,359,45.1,359.1"/>
							<path id="Shape_133_" class="st0" d="M52.8,355.6c0.4,0.1,0.7,0.1,1.1,0c1.1-0.4,1.7-1.6,1.4-2.7c-0.2-1.2-1.2-2.1-2.4-2.1
								c-0.7,0-1.4,0.4-1.9,0.9c-0.5,0.6-0.7,1.3-0.6,2c0.2,1.2,1.2,2,2.4,2.1"/>
							<path id="Shape_134_" class="st0" d="M36.4,362.8c0.4,0,0.7-0.1,1-0.2c1.1-0.4,1.7-1.6,1.4-2.7c-0.2-1.2-1.2-2-2.4-2.1
								c-0.4,0-0.7,0.1-1,0.2c-1.1,0.4-1.7,1.6-1.4,2.7C34.2,361.9,35.2,362.8,36.4,362.8"/>
							<path id="Shape_135_" class="st0" d="M79.3,342.3c-0.2-1.1-1.2-2-2.4-2.1c-0.4,0-0.7,0.1-1.1,0.3c-1.1,0.4-1.7,1.6-1.4,2.7
								c0.2,1.2,1.2,2,2.4,2.1c0.3,0.1,0.7,0.1,1,0c1.1-0.4,1.7-1.6,1.4-2.7"/>
							<path id="Shape_136_" class="st0" d="M66.2,357.3c0.4,0,0.9-0.1,1.2-0.3c1-0.5,1.5-1.7,1.2-2.7c-0.3-1.1-1.3-1.9-2.4-2
								c-0.4,0-0.9,0.1-1.2,0.3c-1,0.5-1.5,1.6-1.2,2.7C64,356.4,65,357.2,66.2,357.3"/>
							<path id="Shape_137_" class="st0" d="M72,349c-0.4,0-0.9,0.1-1.2,0.3c-1,0.5-1.5,1.7-1.2,2.7c0.3,1.1,1.2,1.9,2.4,2
								c0.4,0,0.9-0.1,1.2-0.4c1-0.5,1.5-1.6,1.2-2.7C74.1,349.9,73.1,349.1,72,349"/>
							<path id="Shape_138_" class="st0" d="M77,346.2c-0.4,0-0.9,0.1-1.2,0.3c-1,0.5-1.5,1.7-1.2,2.7c0.3,1.1,1.2,1.9,2.4,2
								c0.4,0,0.9-0.1,1.2-0.3c1-0.5,1.5-1.6,1.2-2.7C79.1,347,78.2,346.2,77,346.2"/>
							<path id="Shape_139_" class="st0" d="M53,364.8c0.4,0,0.9-0.1,1.2-0.4c1-0.5,1.5-1.6,1.2-2.7c-0.3-1.1-1.2-1.9-2.4-2
								c-0.4,0-0.9,0.1-1.2,0.3c-1,0.5-1.5,1.6-1.2,2.7C50.9,363.9,51.8,364.7,53,364.8"/>
							<path id="Shape_140_" class="st0" d="M59.9,360.8c0.4,0,0.9-0.1,1.2-0.3c1-0.5,1.5-1.6,1.2-2.7c-0.3-1.1-1.2-1.9-2.4-2
								c-0.4,0-0.9,0.1-1.2,0.3c-1,0.5-1.5,1.7-1.2,2.7C57.8,359.9,58.8,360.7,59.9,360.8"/>
							<path id="Shape_141_" class="st0" d="M46.4,368.8c1-0.5,1.5-1.6,1.2-2.7c-0.3-1.1-1.2-1.9-2.4-2c-0.4,0-0.9,0.1-1.3,0.3
								c-1,0.5-1.4,1.7-1.2,2.7c0.3,1.1,1.3,1.9,2.4,2C45.6,369.2,46,369,46.4,368.8"/>
							<path id="Shape_142_" class="st0" d="M36.6,369c-0.4,0-0.9,0.1-1.2,0.3c-1,0.5-1.5,1.7-1.2,2.7c0.3,1.1,1.3,1.9,2.4,2
								c0.4,0,0.9-0.1,1.2-0.3c1-0.5,1.5-1.6,1.2-2.7C38.7,369.9,37.8,369,36.6,369"/>
							<path id="Shape_143_" class="st0" d="M66.9,365.1c0.8,0,1.5-0.4,1.9-1c0.5-0.6,0.6-1.4,0.4-2.1c-0.3-1.1-1.3-1.8-2.4-1.9
								c-0.5,0-1,0.2-1.5,0.5c-0.9,0.6-1.2,1.7-0.9,2.7C64.9,364.3,65.8,365.1,66.9,365.1"/>
							<path id="Shape_144_" class="st0" d="M71.1,356.6c-0.9,0.6-1.2,1.6-0.9,2.6c0.3,1.1,1.3,1.8,2.4,1.9c0.5,0,1-0.2,1.4-0.5
								c0.9-0.6,1.2-1.7,0.9-2.7c-0.3-1.1-1.3-1.8-2.4-1.9C72,356.1,71.5,356.3,71.1,356.6"/>
							<path id="Shape_145_" class="st0" d="M77.5,352.5c-0.5,0-1,0.2-1.5,0.5c-0.9,0.6-1.3,1.7-0.9,2.7c0.3,1.1,1.3,1.8,2.4,1.9
								c0.5,0,1-0.2,1.5-0.5c0.9-0.6,1.3-1.7,0.9-2.7C79.6,353.3,78.6,352.6,77.5,352.5"/>
							<path id="Shape_146_" class="st0" d="M55.3,374c0.9-0.6,1.3-1.7,0.9-2.7c-0.3-1.1-1.3-1.8-2.4-1.9c-0.8,0-1.5,0.4-1.9,1
								c-0.4,0.6-0.6,1.4-0.4,2.1c0.3,1.1,1.3,1.8,2.4,1.8C54.4,374.4,54.9,374.3,55.3,374"/>
							<path id="Shape_147_" class="st0" d="M60.8,369.5c0.5,0,1-0.2,1.4-0.5c0.9-0.6,1.3-1.7,0.9-2.7c-0.3-1.1-1.3-1.8-2.4-1.9
								c-0.5,0-1,0.2-1.4,0.5c-0.9,0.6-1.2,1.7-0.9,2.6C58.7,368.7,59.7,369.5,60.8,369.5"/>
							<path id="Shape_148_" class="st0" d="M48.6,376.8c-0.3-1.1-1.3-1.8-2.4-1.9c-0.5,0-1,0.2-1.4,0.5c-0.9,0.6-1.2,1.7-0.9,2.7
								c0.3,1.1,1.3,1.8,2.4,1.8c0.5,0,1-0.2,1.4-0.5C48.5,378.9,48.9,377.8,48.6,376.8"/>
							<path id="Shape_149_" class="st0" d="M82.2,349.3c-0.5,0-1,0.2-1.4,0.5c-0.9,0.6-1.2,1.6-0.9,2.6c0.3,1.1,1.3,1.8,2.4,1.9
								c0.5,0,1-0.2,1.4-0.5c0.9-0.6,1.3-1.7,0.9-2.7C84.3,350.1,83.3,349.3,82.2,349.3"/>
							<path id="Shape_150_" class="st0" d="M75.8,367.7c0.8-0.6,1-1.7,0.7-2.6c-0.4-1-1.4-1.7-2.4-1.7c-0.6,0-1.2,0.2-1.6,0.6
								c-0.8,0.6-1.1,1.7-0.7,2.6c0.4,1,1.3,1.7,2.4,1.7C74.7,368.3,75.3,368.1,75.8,367.7"/>
							<path id="Shape_151_" class="st0" d="M79,359c-0.6,0-1.2,0.2-1.6,0.6c-0.8,0.6-1.1,1.7-0.7,2.6c0.4,1,1.3,1.7,2.4,1.7
								c0.6,0,1.2-0.2,1.6-0.6c0.8-0.6,1-1.7,0.7-2.6C81,359.7,80.1,359,79,359"/>
							<path id="Shape_152_" class="st0" d="M83.3,355.1c-0.6,0-1.2,0.2-1.6,0.6c-0.8,0.6-1,1.7-0.7,2.6c0.4,1,1.3,1.7,2.4,1.7
								c0.8,0,1.5-0.4,1.9-1.1c0.4-0.6,0.6-1.4,0.3-2.2C85.4,355.8,84.4,355.2,83.3,355.1"/>
							<path id="Shape_153_" class="st0" d="M62.8,378.3c0.6,0,1.2-0.2,1.6-0.6c0.8-0.6,1-1.7,0.7-2.6c-0.4-1-1.3-1.7-2.4-1.7
								c-0.6,0-1.2,0.2-1.6,0.6c-0.8,0.6-1.1,1.7-0.7,2.6C60.8,377.6,61.7,378.3,62.8,378.3"/>
							<path id="Shape_154_" class="st0" d="M68.7,373c0.6,0,1.2-0.2,1.6-0.6c0.8-0.6,1-1.7,0.7-2.6c-0.4-1-1.4-1.7-2.4-1.7
								c-0.6,0-1.2,0.2-1.6,0.6c-0.8,0.6-1.1,1.7-0.7,2.6C66.7,372.3,67.7,373,68.7,373"/>
							<path id="Shape_155_" class="st0" d="M58.4,381c-0.4-1-1.4-1.7-2.4-1.7c-0.6,0-1.2,0.2-1.6,0.6c-0.8,0.6-1.1,1.7-0.7,2.6
								c0.4,1,1.3,1.7,2.4,1.7c0.8,0,1.5-0.4,2-1.1C58.5,382.6,58.6,381.8,58.4,381"/>
							<path id="Shape_156_" class="st0" d="M49,385.5c-0.6,0-1.2,0.2-1.6,0.6c-0.8,0.6-1.1,1.7-0.7,2.6c0.3,0.8,0.9,1.4,1.7,1.6
								c0.8,0.2,1.7,0,2.3-0.5c0.8-0.6,1-1.7,0.7-2.6C51.1,386.2,50.1,385.6,49,385.5"/>
							<path id="Shape_157_" class="st0" d="M76.5,375.7c0.8,0,1.5-0.4,2-1.1c0.4-0.7,0.5-1.5,0.2-2.2c-0.4-1-1.3-1.6-2.4-1.7
								c-0.7,0-1.3,0.3-1.8,0.8c-0.6,0.7-0.8,1.7-0.4,2.5C74.5,375.1,75.4,375.7,76.5,375.7"/>
							<path id="Shape_158_" class="st0" d="M80.9,365.7c-0.8,0-1.5,0.5-2,1.1c-0.4,0.7-0.5,1.5-0.2,2.3c0.4,0.9,1.4,1.6,2.4,1.6
								c0.8,0,1.5-0.4,2-1.1s0.5-1.5,0.2-2.2C82.9,366.4,82,365.7,80.9,365.7"/>
							<path id="Shape_159_" class="st0" d="M83.3,362c-0.7,0.7-0.9,1.7-0.5,2.5c0.4,0.9,1.4,1.6,2.4,1.6c0.7,0,1.3-0.3,1.8-0.8
								c0.7-0.7,0.9-1.7,0.5-2.6c-0.4-1-1.4-1.6-2.4-1.6C84.4,361.2,83.8,361.5,83.3,362"/>
							<path id="Shape_160_" class="st0" d="M65.6,387.6c0.7,0,1.3-0.3,1.8-0.8c0.6-0.7,0.8-1.7,0.4-2.5c-0.4-1-1.3-1.6-2.4-1.7
								c-0.7,0-1.3,0.3-1.8,0.8c-0.7,0.7-0.9,1.7-0.5,2.5C63.6,386.9,64.6,387.6,65.6,387.6"/>
							<path id="Shape_161_" class="st0" d="M71.4,381.3c0.7,0,1.3-0.3,1.8-0.8c0.7-0.7,0.9-1.7,0.5-2.5c-0.4-1-1.4-1.6-2.4-1.6
								c-0.7,0-1.3,0.3-1.8,0.8c-0.7,0.7-0.9,1.7-0.5,2.5C69.4,380.7,70.3,381.3,71.4,381.3"/>
							<path id="Shape_162_" class="st0" d="M61.5,391.1c-0.4-1-1.4-1.6-2.4-1.6c-0.7,0-1.3,0.3-1.8,0.8c-0.7,0.7-0.9,1.7-0.4,2.5
								c0.4,1,1.3,1.6,2.4,1.6c0.8,0,1.5-0.4,2-1.1C61.7,392.7,61.8,391.9,61.5,391.1"/>
							<path id="Shape_163_" class="st0" d="M88.8,357.1c-0.7,0-1.3,0.3-1.8,0.8c-0.7,0.7-0.9,1.7-0.5,2.5c0.4,1,1.3,1.6,2.4,1.6
								c0.7,0,1.3-0.3,1.8-0.8c0.7-0.7,0.8-1.7,0.4-2.5C90.8,357.7,89.9,357.1,88.8,357.1"/>
							<path id="Shape_164_" class="st0" d="M82.2,373.5c-0.5,0.7-0.6,1.7-0.3,2.5c0.5,0.9,1.4,1.5,2.4,1.5c0.8,0,1.5-0.4,1.9-1
								c0.5-0.7,0.6-1.7,0.3-2.5c-0.5-0.9-1.4-1.5-2.4-1.5C83.4,372.5,82.7,372.8,82.2,373.5"/>
							<path id="Shape_165_" class="st0" d="M87.9,367.2c-0.8,0-1.5,0.4-1.9,1c-0.6,0.7-0.7,1.7-0.3,2.5c0.5,0.9,1.4,1.5,2.4,1.5
								c0.8,0,1.5-0.4,1.9-1c0.6-0.7,0.7-1.7,0.3-2.5C89.8,367.8,88.9,367.2,87.9,367.2"/>
							<path id="Shape_166_" class="st0" d="M91.3,362.5c-0.8,0-1.5,0.4-1.9,1c-0.5,0.7-0.6,1.7-0.3,2.5c0.5,0.9,1.4,1.5,2.4,1.5
								c0.8,0,1.5-0.4,1.9-1c0.6-0.7,0.7-1.7,0.3-2.5C93.3,363.1,92.3,362.5,91.3,362.5"/>
							<path id="Shape_167_" class="st0" d="M75.2,389.5c0.8,0,1.5-0.4,1.9-1c0.5-0.7,0.6-1.7,0.3-2.5c-0.5-0.9-1.4-1.5-2.4-1.5
								c-0.8,0-1.5,0.4-1.9,1c-0.5,0.7-0.6,1.7-0.3,2.5C73.3,388.9,74.2,389.5,75.2,389.5"/>
							<path id="Shape_168_" class="st0" d="M79.9,383.1c0.8,0,1.5-0.4,1.9-1c0.6-0.7,0.7-1.7,0.3-2.5c-0.5-0.9-1.4-1.5-2.4-1.5
								c-0.8,0-1.5,0.4-1.9,1c-0.6,0.7-0.7,1.7-0.3,2.5C78,382.5,78.9,383.1,79.9,383.1"/>
							<path id="Shape_169_" class="st0" d="M69.6,391.8c-0.8,0-1.5,0.4-1.9,1c-0.5,0.7-0.6,1.7-0.3,2.5c0.5,0.9,1.4,1.5,2.4,1.5
								c0.8,0,1.5-0.4,1.9-1c0.5-0.7,0.6-1.7,0.3-2.5C71.5,392.4,70.6,391.8,69.6,391.8"/>
							<path id="Shape_170_" class="st0" d="M63.8,399.7c-0.8,0-1.5,0.4-1.9,1c-0.6,0.7-0.7,1.7-0.3,2.5c0.5,0.9,1.4,1.5,2.4,1.5
								c0.8,0,1.5-0.4,1.9-1c0.6-0.7,0.7-1.7,0.3-2.5C65.7,400.3,64.8,399.7,63.8,399.7"/>
							<path id="Shape_171_" class="st0" d="M90.8,383.3c0.4-0.7,0.4-1.6,0-2.3c-0.5-0.8-1.4-1.3-2.4-1.4c-0.9,0-1.6,0.5-2.1,1.2
								c-0.4,0.7-0.4,1.6,0,2.4c0.5,0.8,1.4,1.3,2.4,1.4C89.6,384.5,90.4,384,90.8,383.3"/>
							<path id="Shape_172_" class="st0" d="M89.6,377.2c0.5,0.8,1.4,1.3,2.4,1.4c0.9,0,1.6-0.5,2.1-1.2c0.4-0.7,0.4-1.6,0-2.4
								c-0.5-0.8-1.4-1.3-2.4-1.3c-0.9,0-1.7,0.5-2.1,1.2C89.2,375.6,89.2,376.5,89.6,377.2"/>
							<path id="Shape_173_" class="st0" d="M92.7,369.5c-0.4,0.7-0.4,1.6,0,2.4c0.5,0.8,1.4,1.3,2.4,1.3c0.9,0,1.7-0.5,2.1-1.2
								c0.4-0.7,0.4-1.6,0-2.3c-0.5-0.8-1.4-1.3-2.4-1.4C93.9,368.3,93.1,368.8,92.7,369.5"/>
							<path id="Shape_174_" class="st0" d="M82.6,397.2c0.4-0.7,0.4-1.6,0-2.4c-0.5-0.8-1.4-1.3-2.4-1.4c-0.9,0-1.6,0.5-2.1,1.2
								s-0.4,1.6,0,2.4c0.5,0.8,1.4,1.3,2.4,1.4C81.3,398.4,82.1,397.9,82.6,397.2"/>
							<path id="Shape_175_" class="st0" d="M84.7,391.1c0.9,0,1.7-0.5,2.1-1.2c0.4-0.7,0.4-1.6,0-2.3c-0.5-0.8-1.4-1.3-2.4-1.4
								c-0.9,0-1.7,0.5-2.1,1.2c-0.4,0.7-0.4,1.6,0,2.4C82.9,390.6,83.8,391.1,84.7,391.1"/>
							<path id="Shape_176_" class="st0" d="M75.6,401.6c-0.9,0-1.6,0.5-2.1,1.2s-0.4,1.6,0,2.4c0.5,0.8,1.4,1.3,2.4,1.3
								c0.8,0,1.6-0.5,2.1-1.2c0.4-0.7,0.4-1.6,0-2.4C77.4,402.1,76.6,401.6,75.6,401.6"/>
							<path id="Shape_177_" class="st0" d="M97.6,363.5c-0.9,0-1.6,0.5-2.1,1.2c-0.4,0.7-0.4,1.6,0,2.4c0.5,0.8,1.4,1.3,2.4,1.3
								c0.8,0,1.6-0.5,2.1-1.2s0.4-1.6,0-2.4C99.4,364.1,98.5,363.5,97.6,363.5"/>
							<path id="Shape_178_" class="st0" d="M98.6,383c0.4-0.7,0.4-1.6,0-2.2c-0.5-0.8-1.4-1.2-2.3-1.2c-0.9,0-1.7,0.5-2.1,1.3
								c-0.4,0.8-0.4,1.7,0,2.4c0.5,0.8,1.4,1.2,2.3,1.2c1,0,1.8-0.6,2.2-1.4"/>
							<path id="Shape_179_" class="st0" d="M101.3,377.1c0.4-0.7,0.4-1.6,0-2.2c-0.5-0.7-1.4-1.2-2.3-1.2c-1,0-1.8,0.6-2.2,1.4
								c-0.4,0.7-0.4,1.5,0,2.2c0.5,0.7,1.4,1.2,2.3,1.2C100.1,378.5,100.9,377.9,101.3,377.1"/>
							<path id="Shape_180_" class="st0" d="M101.2,368.3c-1,0-1.8,0.6-2.2,1.4c-0.4,0.7-0.4,1.6,0,2.2c0.5,0.7,1.4,1.2,2.3,1.2
								c1,0,1.8-0.6,2.2-1.4c0.4-0.7,0.4-1.5,0-2.2C102.9,368.8,102.1,368.3,101.2,368.3"/>
							<path id="Shape_181_" class="st0" d="M92.4,396.8c0.4-0.7,0.4-1.5,0-2.2c-0.5-0.8-1.4-1.2-2.3-1.2c-0.9,0-1.8,0.6-2.1,1.4
								c-0.4,0.7-0.4,1.5,0,2.2c0.5,0.7,1.4,1.2,2.3,1.2C91.2,398.3,92.1,397.7,92.4,396.8"/>
							<path id="Shape_182_" class="st0" d="M93.5,391c1,0,1.8-0.6,2.2-1.4c0.4-0.7,0.4-1.5,0-2.2c-0.5-0.7-1.4-1.2-2.3-1.2
								c-1,0-1.8,0.6-2.2,1.4c-0.4,0.7-0.4,1.6,0,2.2C91.7,390.5,92.5,391,93.5,391"/>
							<path id="Shape_183_" class="st0" d="M86.5,401.5c-0.9,0-1.8,0.6-2.1,1.4c-0.4,0.7-0.4,1.6,0,2.2c0.5,0.7,1.4,1.2,2.3,1.2
								c1,0,1.8-0.6,2.2-1.4c0.4-0.7,0.4-1.5,0-2.2C88.3,402,87.4,401.6,86.5,401.5"/>
							<path id="Shape_184_" class="st0" d="M82.2,410.5c-1,0-1.8,0.6-2.2,1.4c-0.4,0.7-0.4,1.5,0,2.2c0.5,0.8,1.4,1.2,2.3,1.2
								c0.9,0,1.8-0.6,2.1-1.4c0.4-0.7,0.4-1.5,0-2.2C84,410.9,83.1,410.5,82.2,410.5"/>
							<path id="Shape_185_" class="st0" d="M101.6,390.3c1.1,0,2-0.7,2.3-1.7c0.3-0.7,0.1-1.5-0.3-2.2c-0.5-0.7-1.4-1.1-2.2-1.1
								c-0.9,0-1.7,0.5-2.1,1.3c-0.4,0.8-0.4,1.7,0.1,2.5C99.9,389.9,100.7,390.3,101.6,390.3"/>
							<path id="Shape_186_" class="st0" d="M106,382.1c0.3-0.7,0.1-1.5-0.3-2.1c-0.5-0.7-1.3-1.1-2.2-1.1c-0.9,0-1.7,0.5-2.1,1.3
								c-0.4,0.8-0.4,1.7,0.1,2.5c0.5,0.7,1.3,1.1,2.2,1.1C104.8,383.8,105.7,383.1,106,382.1"/>
							<path id="Shape_187_" class="st0" d="M103.1,374.8c-0.3,0.7-0.2,1.5,0.3,2.1c0.5,0.7,1.4,1,2.2,1.1c1.1,0,2-0.7,2.3-1.7
								c0.3-0.7,0.2-1.5-0.3-2.1c-0.5-0.7-1.3-1.1-2.2-1.1C104.3,373.1,103.4,373.8,103.1,374.8"/>
							<path id="Shape_188_" class="st0" d="M96.4,400.7c-1,0-2,0.7-2.3,1.7c-0.3,0.7-0.1,1.5,0.3,2.2c0.5,0.7,1.4,1.1,2.2,1.1
								c0.9,0,1.7-0.5,2.1-1.3c0.4-0.8,0.4-1.7-0.1-2.5C98.1,401,97.3,400.6,96.4,400.7"/>
							<path id="Shape_189_" class="st0" d="M101.5,395.9c0.3-0.7,0.1-1.5-0.3-2.2c-0.5-0.7-1.4-1.1-2.2-1.1c-0.9,0-1.7,0.5-2.1,1.3
								c-0.4,0.8-0.4,1.7,0.1,2.5c0.5,0.7,1.3,1.1,2.2,1.1C100.3,397.5,101.2,396.9,101.5,395.9"/>
							<path id="Shape_190_" class="st0" d="M93.5,409.6c-1.1,0-2,0.7-2.3,1.7c-0.2,0.7-0.1,1.5,0.3,2.1c0.5,0.7,1.3,1.1,2.2,1.1
								c0.9,0,1.7-0.5,2.1-1.3s0.4-1.7-0.1-2.5C95.2,410,94.4,409.6,93.5,409.6"/>
							<path id="Shape_191_" class="st0" d="M107.1,367.8c-1.1,0-2,0.7-2.3,1.7c-0.3,0.7-0.2,1.5,0.3,2.1c0.5,0.7,1.3,1.1,2.2,1.1
								c1,0,2-0.7,2.3-1.7c0.3-0.7,0.2-1.5-0.3-2.2C108.8,368.2,108,367.8,107.1,367.8"/>
							<path id="Shape_192_" class="st0" d="M106.7,385.7c-0.2,0.7,0,1.4,0.4,2c0.5,0.6,1.3,0.9,2.1,0.9c1.2,0.1,2.2-0.8,2.4-1.9
								c0.2-0.7,0-1.4-0.4-2c-0.5-0.6-1.3-0.9-2.1-0.9C107.9,383.8,106.9,384.6,106.7,385.7"/>
							<path id="Shape_193_" class="st0" d="M113,380.4c0.2-0.7,0-1.5-0.4-2c-0.5-0.6-1.3-0.9-2.1-0.9c-1.2,0-2.2,0.8-2.4,1.9
								c-0.2,0.7,0,1.4,0.5,2c0.5,0.6,1.3,1,2.1,1C111.8,382.3,112.9,381.5,113,380.4"/>
							<path id="Shape_194_" class="st0" d="M114.2,374.7c0.2-0.7,0-1.4-0.4-2c-0.5-0.6-1.3-1-2.1-1c-0.9,0-1.8,0.6-2.2,1.4
								c-0.4,0.8-0.3,1.8,0.3,2.6c0.5,0.6,1.3,0.9,2.1,0.9C113,376.6,114,375.8,114.2,374.7"/>
							<path id="Shape_195_" class="st0" d="M105.9,398.5c-0.9,0-1.7,0.6-2.1,1.4s-0.3,1.8,0.2,2.5c0.5,0.6,1.3,0.9,2.1,0.9
								c0.9,0,1.8-0.5,2.2-1.4s0.3-1.8-0.2-2.5C107.5,398.9,106.8,398.5,105.9,398.5"/>
							<path id="Shape_196_" class="st0" d="M107.6,390.8c-1.2,0-2.2,0.8-2.4,1.9c-0.2,0.7,0,1.5,0.4,2c0.5,0.6,1.3,0.9,2.1,0.9
								c1.2,0,2.2-0.8,2.4-1.9c0.2-0.7,0-1.4-0.4-2C109.2,391.1,108.4,390.7,107.6,390.8"/>
							<path id="Shape_197_" class="st0" d="M104.1,407.3c-0.9,0-1.7,0.6-2.1,1.4c-0.4,0.8-0.3,1.8,0.2,2.5c0.5,0.6,1.3,0.9,2.1,0.9
								c0.9,0,1.7-0.6,2.1-1.4c0.4-0.8,0.3-1.8-0.2-2.5C105.6,407.6,104.9,407.3,104.1,407.3"/>
							<path id="Shape_198_" class="st0" d="M115.5,388.4c-1-0.1-2,0.5-2.4,1.5s-0.2,2.1,0.6,2.8c0.5,0.5,1.3,0.8,2,0.8
								c1.3,0,2.3-0.9,2.4-2.2c0.1-0.7-0.1-1.3-0.6-1.8c-0.5-0.6-1.2-0.9-2-0.8"/>
							<path id="Shape_199_" class="st0" d="M116.4,381.6c-1.3-0.1-2.4,0.9-2.5,2.2c-0.1,0.7,0.1,1.4,0.6,1.9c0.5,0.5,1.2,0.8,2,0.8
								c1.3,0,2.4-0.9,2.4-2.2c0.1-0.7-0.1-1.3-0.6-1.8C117.9,381.9,117.2,381.6,116.4,381.6"/>
							<path id="Shape_200_" class="st0" d="M116.9,375.5c-1,0-1.9,0.5-2.3,1.4c-0.4,0.9-0.3,1.9,0.4,2.6c0.5,0.5,1.2,0.8,2,0.8
								c1.3,0,2.3-0.9,2.4-2.2c0.1-0.7-0.1-1.3-0.6-1.8C118.3,375.8,117.6,375.5,116.9,375.5"/>
							<path id="Shape_201_" class="st0" d="M113.9,404.3c-1.3,0-2.4,0.9-2.4,2.2c-0.1,0.7,0.1,1.3,0.6,1.8c0.5,0.5,1.2,0.8,2,0.8
								c1.3,0,2.4-0.9,2.4-2.2c0.1-0.7-0.1-1.3-0.6-1.8C115.3,404.7,114.6,404.3,113.9,404.3"/>
							<path id="Shape_202_" class="st0" d="M114.7,396c-1.3,0-2.3,0.9-2.4,2.2c-0.1,0.7,0.1,1.3,0.6,1.9c0.5,0.5,1.2,0.8,2,0.8
								c1.3,0.1,2.4-0.9,2.5-2.2c0.1-0.7-0.1-1.3-0.6-1.8C116.2,396.3,115.5,396,114.7,396"/>
							<path id="Shape_203_" class="st0" d="M117.4,370.1c-0.6,0-1.2,0.2-1.7,0.6c-0.5,0.4-0.7,1-0.8,1.6c-0.1,0.7,0.1,1.3,0.6,1.8
								c0.5,0.6,1.2,0.9,2,0.8c1.3,0,2.3-0.9,2.4-2.2c0.1-0.7-0.1-1.3-0.6-1.9C118.9,370.3,118.1,370,117.4,370.1"/>
							<path id="Shape_204_" class="st0" d="M122.7,385.3c-1-0.1-1.9,0.3-2.4,1.1c-0.5,0.8-0.5,1.8,0,2.6c0.5,0.8,1.5,1.2,2.4,1.1
								c0.7,0,1.3-0.3,1.8-0.7c0.4-0.5,0.7-1.1,0.6-1.7c0-0.7-0.2-1.3-0.7-1.8C124,385.5,123.3,385.3,122.7,385.3"/>
							<path id="Shape_205_" class="st0" d="M122.8,378.7c-0.7,0-1.4,0.2-1.8,0.7c-0.5,0.4-0.7,1.1-0.7,1.7c0,0.7,0.2,1.3,0.7,1.8
								c0.5,0.5,1.1,0.7,1.8,0.6c0.7,0,1.3-0.3,1.8-0.7c0.8-0.7,1-1.8,0.6-2.8c-0.4-0.9-1.4-1.5-2.4-1.5"/>
							<path id="Shape_206_" class="st0" d="M122.7,377.8c0.7,0,1.4-0.2,1.9-0.7c0.8-0.7,1-1.8,0.6-2.8s-1.4-1.5-2.4-1.5
								c-0.6,0-1.3,0.2-1.8,0.6c-0.7,0.7-1,1.8-0.6,2.7s1.3,1.5,2.3,1.5"/>
							<path id="Shape_207_" class="st0" d="M122.8,400.3c-0.7,0-1.3,0.3-1.8,0.7c-0.4,0.5-0.7,1.1-0.6,1.7c0,0.7,0.2,1.3,0.7,1.8
								c0.5,0.5,1.1,0.7,1.8,0.7c0.7,0,1.3-0.3,1.8-0.7c0.4-0.5,0.7-1.1,0.7-1.7c0-0.7-0.3-1.3-0.7-1.8S123.4,400.3,122.8,400.3"/>
							<path id="Shape_208_" class="st0" d="M122.7,397.3c0.7,0,1.3-0.3,1.8-0.7c0.4-0.5,0.7-1.1,0.7-1.7c0-0.7-0.3-1.3-0.7-1.8
								c-0.5-0.5-1.1-0.7-1.8-0.7c-0.7,0-1.3,0.3-1.8,0.7c-0.4,0.5-0.7,1.1-0.7,1.7c0,0.7,0.3,1.3,0.7,1.8
								C121.4,397.1,122,397.3,122.7,397.3"/>
							<path id="Shape_209_" class="st0" d="M121.2,413.6h0.3h0.2c0.3,0.1,0.7,0.1,1,0c0.7,0,1.5-0.3,2-0.8c0.4-0.5,0.6-1.2,0.6-1.9
								c-0.1-1.3-1.2-2.2-2.4-2.2c-0.7,0-1.3,0.2-1.8,0.7c-0.4,0.5-0.7,1.1-0.7,1.7c0,0.6,0.2,1.2,0.7,1.7c0,0,0,0,0.3,0"/>
							<path id="Shape_210_" class="st0" d="M122.8,418.8c-0.7,0-1.3,0.3-1.8,0.7c-0.5,0.4-0.7,1.1-0.7,1.7c0,0.7,0.2,1.3,0.7,1.8
								c0.5,0.5,1.1,0.7,1.8,0.6c0.7,0,1.3-0.2,1.8-0.7c0.4-0.5,0.7-1.1,0.6-1.7c0-0.7-0.2-1.3-0.7-1.8
								C124.1,419,123.5,418.8,122.8,418.8"/>
							<path id="Shape_211_" class="st0" d="M120.2,370.1c0,0.7,0.2,1.3,0.7,1.8c0.5,0.5,1.1,0.7,1.8,0.7c0.7,0,1.4-0.2,1.9-0.7
								c0.4-0.5,0.7-1.1,0.6-1.7c-0.6,0.3-1.3,0.2-1.8-0.2c-0.5-0.4-0.6-1.1-0.4-1.7s0.8-1,1.5-1c0.4-0.5,0.7-1.1,0.6-1.7
								c0-0.2,0-0.4,0-0.6c0.3,0.3,0.7,0.5,1.2,0.6c-0.3,0.1-0.6,0.3-0.8,0.6c-0.5,0.5-0.7,1.2-0.6,1.9c0.1,1.3,1.2,2.2,2.5,2.2
								c0.7,0,1.5-0.3,2-0.8c0.5-0.5,0.7-1.2,0.6-1.9c-0.1-1-0.8-1.9-1.9-2.1c0.3-0.1,0.6-0.3,0.9-0.6v-0.3c0,0.2,0,0.5,0,0.7
								c0.2,1.1,1.2,1.9,2.4,1.9c-0.3,0.2-0.6,0.4-0.9,0.7c-0.5,0.7-0.6,1.7-0.2,2.5c0.4,0.8,1.3,1.3,2.2,1.4c0.8,0,1.6-0.3,2.1-0.9
								c0.5-0.7,0.6-1.7,0.2-2.5c-0.4-0.8-1.2-1.3-2.1-1.4c0.3-0.2,0.7-0.4,0.9-0.7c0.4-0.6,0.6-1.3,0.4-2c0-0.2-0.1-0.4-0.2-0.6
								c0.4,0.3,0.9,0.4,1.3,0.4c-0.2,0.1-0.4,0.3-0.6,0.5c-0.4,0.6-0.5,1.4-0.3,2.1c0.3,1,1.2,1.7,2.3,1.7c0.9,0,1.7-0.4,2.2-1.1
								c0.5-0.7,0.5-1.7,0.1-2.5c-0.4-0.8-1.2-1.3-2.1-1.3c0.2-0.1,0.4-0.3,0.6-0.5l0.3-0.5c0,0.2,0,0.4,0,0.6
								c0.4,0.9,1.2,1.4,2.2,1.4h0.6c-0.3,0.2-0.5,0.4-0.7,0.7c-0.4,0.7-0.4,1.5,0,2.2c0.4,0.9,1.2,1.5,2.2,1.4
								c0.9,0,1.8-0.4,2.3-1.2c0.4-0.7,0.4-1.6,0-2.3c-0.4-0.9-1.2-1.4-2.1-1.4h-0.6c0.3-0.2,0.5-0.4,0.7-0.6c0.4-0.7,0.4-1.6,0-2.3
								c-0.1-0.2-0.2-0.3-0.3-0.5c0.3,0,0.5,0,0.8,0h0.6c-0.1,0.1-0.3,0.3-0.3,0.5c-0.4,0.7-0.4,1.6,0,2.3c0.4,0.8,1.2,1.2,2.1,1.2
								c1,0,1.8-0.5,2.3-1.4c0.4-0.7,0.4-1.6,0-2.3c-0.4-0.7-1.2-1.2-2-1.2c-0.2,0-0.4,0-0.6,0c0.1-0.1,0.2-0.3,0.3-0.5
								c0.1-0.2,0.2-0.5,0.3-0.8c0.1,0.2,0.2,0.4,0.3,0.6c0.7,1,1.9,1.3,3,0.8c-0.2,0.2-0.3,0.3-0.4,0.6c-0.5,0.8-0.5,1.7,0,2.5
								c0.4,0.6,1.2,1,1.9,1c1,0,1.9-0.6,2.4-1.4c0.4-0.8,0.3-1.8-0.3-2.5c-0.4-0.6-1.2-1-1.9-1c-0.4,0-0.7,0.1-1,0.3l0.4-0.6
								c0.4-0.8,0.3-1.8-0.3-2.5l-0.3-0.3c0.3,0.1,0.7,0.1,1,0v0.3c-0.4,0.9-0.2,1.9,0.5,2.5c0.4,0.5,1.1,0.8,1.8,0.8
								c1,0,2-0.6,2.4-1.6c0.4-0.9,0.2-1.9-0.4-2.6c-0.4-0.5-1.1-0.8-1.8-0.8c-0.3,0-0.7,0.1-1,0.2v-0.3c0.1-0.3,0.1-0.7,0-1
								l0.4,0.5c0.4,0.4,1,0.6,1.6,0.6c0.5,0,1-0.2,1.4-0.4v0.3c-0.4,0.9-0.1,2,0.6,2.6c0.4,0.4,1,0.6,1.6,0.6
								c1.1-0.1,2-0.7,2.4-1.7c0.2-0.7,0.1-1.6-0.3-2.2c-0.5-0.6-1.2-1-2-1c-0.5,0-1,0.2-1.4,0.5v-0.3c0.4-0.9,0.1-2-0.7-2.6
								c-0.4-0.4-1-0.7-1.6-0.7c-0.2,0-0.4,0-0.6,0c0.2-0.6,0.2-1.3,0-1.9c-0.2-0.4-0.4-0.7-0.7-0.9c-0.5-0.5-1.2-0.8-2-0.8
								c-0.6,0-1.2,0.2-1.7,0.6c-0.2,0.1-0.3,0.2-0.5,0.4l-0.4,0.5c-11.2,11.2-28.6,13.6-42.4,5.8c-13.8-7.8-20.6-23.9-16.6-39.2
								c4-15.3,17.9-25.9,33.8-26h2.4h1.3h0.6h1.2h0.8l1,0.2h0.7h1h0.6l1.2,0.3l0.7,0.3l1,0.3l0.8,0.3l0.9,0.4l0.8,0.4
								c0.3,0.1,0.6,0.2,0.8,0.4l0.8,0.4l0.8,0.4l0.9,0.5l0.7,0.4l0.9,0.6l0.6,0.4l0.9,0.7l0.5,0.4l0.8,0.7l0.6,0.5l0.8,0.7l0.6,0.5
								l0.7,0.7l0.6,0.6c0.1,0.1,0.2,0.3,0.3,0.4c0,0.1,0,0.2,0,0.3l0.6,0.5c0.5,0.3,1,0.5,1.6,0.5c0.7,0,1.4-0.3,1.9-0.8
								c0.3-0.3,0.5-0.6,0.7-0.9c0.3-0.5,0.4-1.2,0.2-1.8h1.4c0.8,0,1.5-0.4,2-1c0.5-0.6,0.6-1.5,0.3-2.2v-0.3
								c0.4,0.3,0.9,0.5,1.5,0.5c0.6,0,1.2-0.2,1.6-0.6c0.8-0.6,1.1-1.7,0.7-2.6c-0.4-1-1.3-1.7-2.4-1.8c-0.6,0-1.2,0.3-1.6,0.7
								c-0.8,0.6-1.1,1.7-0.7,2.6c0,0.1,0,0.2,0,0.3c-0.4-0.3-0.9-0.5-1.5-0.5c-0.6,0-1.2,0.2-1.6,0.6l-0.5,0.5
								c0.1-0.3,0.1-0.7,0-1.1c0.3,0.1,0.7,0.1,1,0c0.8,0,1.5-0.4,2-1.1c0.4-0.7,0.5-1.5,0.2-2.2c-0.4-1-1.3-1.6-2.4-1.6
								c-0.7,0-1.3,0.3-1.8,0.8c-0.7,0.7-0.9,1.7-0.5,2.5c-0.3-0.1-0.7-0.1-1,0l0.3-0.3c0.6-0.7,0.7-1.7,0.3-2.5
								c-0.2-0.1-0.4-0.2-0.4-0.5c0-0.2,0.1-0.5,0.3-0.6c0.2-0.1,0.5-0.1,0.6,0.1c0.2,0.2,0.2,0.4,0.2,0.6c0.8,0,1.5-0.4,1.9-1
								c0.6-0.7,0.7-1.7,0.3-2.5c-0.5-0.9-1.4-1.5-2.4-1.5c-0.8,0-1.5,0.4-1.9,1c-0.6,0.7-0.7,1.7-0.3,2.5c0.1,0.2,0.3,0.4,0.4,0.6
								c-0.3-0.2-0.7-0.3-1.1-0.3c-0.8,0-1.5,0.4-1.9,1c-0.1,0.2-0.2,0.3-0.3,0.5c0-0.3-0.1-0.5-0.3-0.8c-0.1-0.2-0.2-0.3-0.3-0.4
								h0.7c0.9,0,1.6-0.5,2.1-1.2c0.4-0.7,0.4-1.6,0-2.4c-0.5-0.8-1.4-1.3-2.4-1.4c-0.9,0-1.7,0.5-2.1,1.2c-0.4,0.7-0.4,1.6,0,2.4
								l0.3,0.4h-0.6c-0.3-0.1-0.5-0.1-0.8,0c0.2-0.2,0.3-0.4,0.4-0.6c0.4-0.7,0.4-1.5,0-2.2c-0.2-0.3-0.4-0.5-0.7-0.7h0.6
								c0.9,0,1.8-0.5,2.2-1.4c0.4-0.7,0.4-1.6,0-2.3c-0.5-0.8-1.4-1.2-2.3-1.2c-0.9,0-1.8,0.5-2.1,1.4c-0.4,0.7-0.4,1.6,0,2.3
								c0.2,0.3,0.4,0.5,0.7,0.7h-0.6c-0.9,0-1.8,0.6-2.1,1.4c0,0.2,0,0.4,0,0.6c-0.1-0.2-0.1-0.4-0.3-0.5l-0.6-0.6
								c1.1,0,2-0.6,2.3-1.7c0.3-0.7,0.2-1.5-0.3-2.1c-0.5-0.7-1.3-1.1-2.2-1.1c-0.9,0-1.7,0.6-2.1,1.3c-0.4,0.8-0.4,1.7,0.1,2.5
								c0.2,0.2,0.4,0.4,0.6,0.5c-0.5,0-0.9,0.1-1.3,0.4l0.3-0.6c0.2-0.7,0-1.4-0.4-2c-0.3-0.3-0.6-0.6-0.9-0.7
								c0.9,0,1.7-0.6,2.1-1.4c0.4-0.8,0.3-1.8-0.2-2.5c-0.5-0.6-1.3-0.9-2.1-0.9c-1.1-0.1-2.2,0.7-2.4,1.9c-0.2,0.7,0,1.5,0.4,2
								c0.3,0.3,0.6,0.5,0.9,0.7c-1.1,0-2.1,0.8-2.4,1.9c0,0.2,0,0.4,0,0.6c0-0.1,0-0.2,0-0.3c-0.3-0.2-0.5-0.4-0.9-0.6
								c1-0.2,1.8-1,1.9-2.1c0.1-0.7-0.1-1.4-0.6-1.9c-0.5-0.6-1.2-0.9-2-0.8c-1.3,0-2.3,0.9-2.4,2.2c-0.1,0.7,0.1,1.4,0.6,1.9
								c0.2,0.2,0.5,0.4,0.8,0.6c-0.4,0.1-0.8,0.3-1.2,0.6c0-0.2,0-0.5,0-0.7c0-0.6-0.2-1.2-0.7-1.7c-0.3-0.3-0.8-0.6-1.2-0.7
								c1.1-0.2,1.9-1.2,1.9-2.3c0-0.6-0.2-1.2-0.7-1.7c-0.5-0.5-1.2-0.7-1.8-0.7c-1.1-0.1-2.1,0.5-2.5,1.5c-0.4,1-0.2,2.1,0.7,2.8
								c0.3,0.3,0.8,0.6,1.2,0.6c-1.1,0.2-1.9,1.2-1.9,2.3c0,0.2,0,0.4,0,0.6c-0.3-0.3-0.7-0.5-1.2-0.6c0.3-0.1,0.6-0.3,0.9-0.6
								c0.8-0.7,1-1.8,0.6-2.8c-0.4-1-1.4-1.5-2.4-1.5c-0.7,0-1.5,0.3-2,0.8c-0.5,0.5-0.7,1.2-0.6,1.9c0.1,1,0.8,1.9,1.9,2.1
								c-0.3,0.1-0.6,0.3-0.9,0.6v0.3c0-0.2,0-0.4,0-0.6c-0.2-1.1-1.2-2-2.4-2c0.3-0.2,0.7-0.4,0.9-0.7c0.5-0.6,0.6-1.3,0.5-2
								c-0.2-1.2-1.2-2-2.4-2c-0.8,0-1.6,0.4-2.1,1c-0.5,0.7-0.6,1.7-0.2,2.5c0.4,0.8,1.2,1.3,2.1,1.4c-0.4,0.2-0.7,0.4-0.9,0.7
								c-0.4,0.6-0.6,1.3-0.4,2c0,0.2,0,0.4,0,0.6c-0.4-0.2-0.8-0.4-1.2-0.4c0.2-0.1,0.4-0.3,0.6-0.5c0.4-0.6,0.5-1.4,0.3-2.1
								c-0.3-1-1.2-1.7-2.3-1.7c-0.9,0-1.7,0.4-2.2,1.1c-0.4,0.6-0.5,1.4-0.3,2.1c0.3,1,1.2,1.7,2.3,1.7c-0.2,0.2-0.4,0.3-0.6,0.6
								c-0.1,0.1-0.2,0.3-0.3,0.5c-0.1-0.2-0.1-0.4-0.2-0.6c-0.3-0.9-1.2-1.5-2.2-1.4h-0.6c0.3-0.2,0.5-0.4,0.7-0.7
								c0.4-0.7,0.4-1.5,0-2.2c-0.3-0.9-1.2-1.5-2.2-1.5c-0.9,0-1.8,0.4-2.3,1.2c-0.4,0.7-0.4,1.6,0,2.3c0.4,0.9,1.2,1.5,2.2,1.4
								h0.6c-0.3,0.2-0.5,0.4-0.7,0.7c-0.4,0.7-0.4,1.5,0,2.2c0,0,0,0.4,0.3,0.6c-0.3-0.1-0.6-0.1-0.9,0h-0.5l0.3-0.4
								c0.4-0.7,0.4-1.6,0-2.4c-0.4-0.7-1.2-1.2-2.1-1.2c-1,0-1.8,0.5-2.4,1.3c-0.4,0.7-0.4,1.6,0,2.4c0.4,0.8,1.2,1.2,2.1,1.2
								c0.2,0,0.4,0,0.6,0l-0.4,0.5c-0.1,0.2-0.2,0.5-0.3,0.8c-0.1-0.2-0.2-0.4-0.3-0.6c-0.4-0.7-1.1-1.1-1.9-1.1
								c-0.4,0-0.7,0.1-1.1,0.3c0.2-0.2,0.3-0.4,0.4-0.6c0.5-0.7,0.5-1.7,0-2.5c-0.4-0.6-1.1-1-1.9-1.1c-1,0-1.9,0.6-2.4,1.5
								c-0.5,0.7-0.5,1.7,0,2.5c0.4,0.6,1.2,1,1.9,1c0.4,0,0.7-0.1,1.1-0.2c-0.2,0.2-0.3,0.4-0.4,0.6c-0.5,0.7-0.5,1.7,0,2.5
								l0.4,0.4H97c-0.3-0.1-0.7-0.1-1,0c0.4-0.9,0.3-1.9-0.4-2.5c-0.4-0.5-1.1-0.8-1.8-0.8c-1,0-2,0.6-2.4,1.6
								c-0.4,0.9-0.2,1.9,0.4,2.6c0.5,0.5,1.1,0.8,1.8,0.8c0.3,0,0.7-0.1,1-0.2c0,0.1,0,0.2,0,0.3c-0.1,0.3-0.1,0.7,0,1.1
								c-0.1-0.2-0.3-0.4-0.4-0.6c-0.4-0.4-1-0.6-1.6-0.6c-0.5,0-1,0.2-1.4,0.4v-0.3c0.4-0.9,0.1-2-0.7-2.6c-0.4-0.4-1-0.7-1.6-0.7
								c-1.1,0.1-2,0.7-2.4,1.7c-0.4,0.9-0.1,2,0.6,2.6c0.4,0.4,1,0.7,1.6,0.7c0.5,0,1-0.2,1.4-0.5v0.3c-0.4,0.9-0.1,2,0.7,2.6
								l0.5,0.3c-0.5,0-0.9,0.2-1.3,0.5c0.4-1,0-2.1-0.9-2.7c-0.4-0.3-0.9-0.5-1.5-0.5c-1.1,0.1-2.1,0.8-2.4,1.9
								c-0.3,1,0,2.1,0.9,2.7c0.4,0.3,0.9,0.5,1.5,0.5c0.5,0,1-0.2,1.4-0.4c-0.1,0.4-0.1,0.9,0,1.3l-0.6-0.4
								c-0.4-0.2-0.8-0.4-1.3-0.4c-0.7,0-1.3,0.3-1.7,0.8c0.3-1.1-0.2-2.2-1.2-2.7c-0.4-0.2-0.8-0.3-1.2-0.3c-1.2,0-2.2,0.8-2.4,2
								c-0.3,1.1,0.2,2.2,1.2,2.7c0.4,0.2,0.8,0.4,1.2,0.4c0.7,0,1.3-0.3,1.8-0.8c-0.3,1.1,0.2,2.2,1.2,2.7h0.5
								c-0.4,0.1-0.8,0.4-1.1,0.7c0.2-1-0.4-2-1.4-2.4c-0.3-0.2-0.7-0.3-1.1-0.3c-1.2,0.1-2.2,0.9-2.4,2.1c-0.3,1.1,0.3,2.2,1.4,2.7
								c0.3,0.2,0.7,0.3,1,0.3c0.6,0,1.2-0.3,1.7-0.8c-0.1,0.4-0.1,0.9,0,1.3c-0.2-0.1-0.4-0.2-0.6-0.3c-0.3,0-0.5,0-0.8,0
								c-0.9,0-1.6,0.5-2.1,1.2c0.2-1.1-0.5-2.2-1.6-2.5c-0.3,0-0.6,0-0.9,0c-1.2,0.1-2.2,1-2.4,2.2c-0.2,1.2,0.5,2.3,1.7,2.7
								c0.3,0,0.5,0,0.8,0c0.9,0,1.6-0.5,2.1-1.2c-0.2,1.1,0.5,2.2,1.6,2.5c0.3,0,0.6,0,0.9,0c-0.6,0.1-1.2,0.5-1.5,1.1
								c-0.1-1-0.9-1.9-1.9-2.1h-0.6c-1.3,0-2.3,1-2.4,2.3c-0.2,1.3,0.7,2.4,1.9,2.7h0.6c0.8,0,1.6-0.5,2-1.2
								c0.1,0.4,0.2,0.9,0.5,1.2h-0.6c-1.1-0.2-2.3,0.5-2.6,1.6c-0.1-1.1-1-2-2.2-2.1c-0.7-0.1-1.4,0.1-1.9,0.6
								c-0.5,0.5-0.8,1.1-0.8,1.8c-0.1,0.6,0.1,1.3,0.5,1.7s1,0.8,1.6,0.8h0.3c0.4-0.9,1.3-1.5,2.3-1.4c1,0.1,1.8,0.9,2,1.9h0.6
								c-0.3,0.3-0.6,0.7-0.7,1.1c-0.3-1-1.2-1.7-2.3-1.6c-0.7,0-1.3,0.2-1.8,0.7s-0.7,1.1-0.7,1.8c-0.1,0.7,0.2,1.3,0.6,1.8
								c0.5,0.5,1.1,0.7,1.8,0.7c1,0,2-0.6,2.3-1.6c0.1,0.4,0.4,0.8,0.7,1.1h-0.6c-0.2,1-1,1.7-2,1.8c-1,0.1-1.9-0.4-2.3-1.3h-0.3
								c-1.3,0.2-2.2,1.3-2.1,2.6s1,2.3,2.3,2.4h0.3c1.2-0.1,2.1-1,2.2-2.2c0.3,1,1.2,1.7,2.3,1.7H81c0.2,0,0.4,0,0.6,0
								c-0.3,0.4-0.5,0.8-0.6,1.2c-0.4-0.7-1.2-1.2-2-1.2h-0.6c-0.6,0.1-1.2,0.4-1.5,0.9s-0.5,1.1-0.4,1.7c0.1,1.3,1.1,2.3,2.4,2.3
								h0.6c1-0.2,1.8-1,1.9-2.1c0.2,0.4,0.5,0.7,0.9,0.9c-0.2,0-0.5,0-0.7,0c-1.1,0.3-1.8,1.4-1.7,2.5c-0.7-0.4-1.5-0.4-2.1-0.1
								c-0.3,0-0.5,0-0.8,0c-1.2,0.3-1.9,1.5-1.7,2.7c0.1,1.2,1.1,2.2,2.4,2.2c0.3,0,0.6,0,0.9,0c1.1-0.3,1.8-1.4,1.7-2.5
								c0.4,0.7,1.2,1.2,2,1.2c0.3,0.1,0.5,0.1,0.8,0l0.5-0.2c0.2,0.4,0.2,0.8-0.1,1.2s-0.7,0.4-1.1,0.3c-0.4-0.2-0.7-0.5-0.7-1
								c-0.4,0-0.7,0.1-1,0.2c-1.1,0.4-1.7,1.6-1.4,2.7c0.2,1.1,1.2,2,2.4,2.1c0.4,0,0.7-0.1,1.1-0.2c1-0.4,1.6-1.4,1.5-2.4
								c0.3,0.3,0.6,0.6,1.1,0.7c-0.2,0-0.4,0.1-0.6,0.3c-1,0.5-1.5,1.6-1.2,2.7c-0.4-0.5-1.1-0.8-1.8-0.8c-0.4,0-0.9,0.1-1.2,0.3
								c-1,0.5-1.5,1.7-1.2,2.7c0.3,1.1,1.2,1.9,2.4,2c0.4,0,0.9-0.1,1.2-0.3c1-0.5,1.5-1.6,1.2-2.7c0.4,0.5,1.1,0.8,1.8,0.8
								c0.4,0,0.9-0.1,1.2-0.3l0.5-0.4c-0.1,0.4-0.1,0.9,0,1.4c-0.4-0.3-0.9-0.5-1.4-0.5c-0.5,0-1,0.2-1.4,0.5
								c-0.9,0.6-1.3,1.7-0.9,2.7c0.3,1.1,1.3,1.8,2.4,1.9c0.5,0,1-0.2,1.5-0.5c0.8-0.6,1.2-1.7,0.9-2.6c0.4,0.3,0.8,0.4,1.2,0.5
								c-0.2,0.1-0.4,0.2-0.6,0.4c-0.8,0.6-1.1,1.7-0.7,2.6c0,0.1,0,0.3,0,0.4c-0.4-0.3-0.9-0.5-1.4-0.5c-0.6,0-1.2,0.2-1.6,0.6
								c-0.8,0.6-1,1.7-0.7,2.6c0.4,1,1.4,1.7,2.4,1.7c0.6,0,1.2-0.2,1.6-0.6c0.8-0.6,1.1-1.7,0.7-2.6c0-0.1,0-0.3,0-0.4
								c0.4,0.3,0.9,0.5,1.4,0.5c0.6,0,1.2-0.2,1.6-0.6c0.2-0.1,0.3-0.3,0.4-0.5c-0.1,0.4-0.1,0.7,0,1.1v0.3c-0.3-0.2-0.6-0.3-1-0.3
								c-0.8,0-1.5,0.5-2,1.1c-0.4,0.7-0.5,1.5-0.2,2.3c0.4,0.9,1.4,1.6,2.4,1.6c0.7,0,1.3-0.3,1.8-0.8c0.7-0.7,0.8-1.7,0.4-2.5
								c0,0,0,0,0-0.3c0.3,0.1,0.6,0.2,1,0.3h0.3c-0.2,0.1-0.3,0.3-0.5,0.5c-0.5,0.7-0.6,1.7-0.3,2.5c0.1,0.2,0.3,0.4,0.4,0.6
								c-0.3-0.2-0.7-0.3-1.1-0.3c-0.8,0-1.5,0.4-1.9,1c-0.6,0.7-0.7,1.7-0.3,2.5c0.5,0.9,1.4,1.5,2.4,1.5c0.8,0,1.5-0.4,1.9-1
								c0.6-0.7,0.7-1.7,0.3-2.5c-0.1-0.2-0.2-0.4-0.4-0.6c0.3,0.2,0.7,0.3,1,0.3c0.8,0,1.5-0.4,1.9-1c0.6-0.7,0.6-1.7,0.2-2.5h0.6
								c0.2,0,0.5,0,0.7,0c-0.2,0.2-0.4,0.4-0.5,0.6c-0.4,0.7-0.4,1.6,0,2.4c0.1,0.2,0.2,0.3,0.3,0.4h-0.6c-0.9,0-1.6,0.5-2.1,1.2
								c-0.4,0.7-0.4,1.6,0,2.4c0.5,0.8,1.4,1.3,2.4,1.4c0.9,0,1.7-0.5,2.1-1.3c0.4-0.7,0.4-1.6,0-2.3c-0.1-0.2-0.2-0.3-0.3-0.4h0.6
								c0.3,0,0.5,0,0.8,0c-0.2,0.2-0.3,0.4-0.4,0.6c-0.4,0.7-0.4,1.5,0,2.2c0.2,0.3,0.4,0.5,0.7,0.7h-0.6c-1,0-1.8,0.6-2.2,1.4
								c-0.4,0.7-0.4,1.5,0,2.2c0.5,0.8,1.4,1.2,2.3,1.2c1,0,1.8-0.6,2.1-1.5c0.4-0.7,0.4-1.5,0-2.2c-0.2-0.3-0.4-0.5-0.7-0.7h0.6
								c0.9,0,1.8-0.6,2.1-1.4c0-0.2,0-0.4,0-0.6c0.1,0.2,0.2,0.3,0.3,0.5c0.1,0.2,0.3,0.4,0.5,0.6c-1.1,0-2,0.6-2.3,1.7
								c-0.2,0.7-0.1,1.5,0.3,2.1c0.5,0.7,1.4,1.1,2.2,1.1c1.1,0,2-0.7,2.3-1.7c0.3-0.7,0.2-1.5-0.3-2.1c-0.2-0.2-0.3-0.4-0.6-0.6
								c0.4,0,0.9-0.1,1.3-0.3c-0.1,0.2-0.2,0.4-0.2,0.6c1,0.5,1.6,1.6,1.4,2.7s-1.2,1.9-2.3,1.9c-0.2,0.7,0,1.4,0.4,2
								c0.5,0.6,1.3,1,2.1,1c0.9,0,1.8-0.6,2.2-1.4c0.4-0.8,0.3-1.8-0.3-2.6c-0.3-0.3-0.6-0.5-0.9-0.7c1.1,0,2.1-0.8,2.4-1.9
								c0-0.2,0-0.4,0-0.6v0.3c0.2,0.2,0.5,0.4,0.8,0.6c-1,0.2-1.8,1-1.8,2.1c-0.1,0.7,0.1,1.4,0.6,1.9c0.5,0.5,1.2,0.8,2,0.8
								c0.6,0,1.2-0.2,1.7-0.6c0.5-0.4,0.7-1,0.8-1.6c0.1-0.7-0.1-1.3-0.6-1.8c-0.3,0.1-0.7-0.1-0.8-0.4c-0.1-0.3,0-0.7,0.2-0.9
								c0.3-0.2,0.7-0.2,0.9,0.1c0,0.2,0,0.5,0,0.7c-0.1,1.2,0.8,2.2,1.9,2.3c-0.4,0.1-0.8,0.3-1.1,0.6c-0.5,0.5-0.8,1.1-0.8,1.8
								L120.2,370.1z M129.8,283.4l0.4,0.4c-0.2,0-0.4,0.1-0.6,0.2c0-0.2,0-0.3,0-0.5c0-0.1,0-0.2,0-0.3L129.8,283.4z M147.9,291.7
								c-0.1,0.1-0.2,0.3-0.3,0.4c0-0.2,0-0.3,0-0.5h0.6L147.9,291.7z M141.1,287.4c0,0.1,0,0.3,0,0.4l-0.2-0.4c0-0.1,0-0.2,0-0.3
								c0.3,0,0.6,0,0.9,0c-0.1,0.1-0.2,0.2-0.3,0.4L141.1,287.4z M133.6,284.4c0,0.2,0,0.3,0,0.5l-0.4-0.4c0.3,0,0.6-0.1,0.9-0.3
								c-0.1,0.1-0.2,0.2-0.2,0.4L133.6,284.4z M122.6,283.3l-0.6,0.3v-0.4c0-0.1,0-0.2,0-0.3C122.2,283,122.4,283.2,122.6,283.3
								L122.6,283.3z M114.1,284.2l-0.5,0.4c0-0.2,0-0.3,0-0.5c0-0.1,0-0.2,0-0.3c0.2,0.1,0.5,0.2,0.7,0.3L114.1,284.2z
								 M106.1,287.2c0,0,0,0,0,0.3c-0.1-0.2-0.1-0.3-0.2-0.5l-0.3-0.4c0.3,0.1,0.6,0.2,0.9,0.2l-0.3,0.3H106.1z M88.1,303.7
								c0,0.2,0,0.4,0,0.6l-0.4-0.2h-0.3L88.1,303.7L88.1,303.7z M85.6,308.8h0.5c-0.2,0.1-0.4,0.2-0.6,0.4c0-0.3,0-0.5,0-0.8
								l0.3,0.2L85.6,308.8z M84.1,317.1c-0.2,0.2-0.4,0.3-0.5,0.6c-0.1-0.3-0.2-0.5-0.4-0.8h0.4h0.5V317.1z M83.8,328.6h-0.5h-0.4
								c0.2-0.2,0.4-0.4,0.4-0.7c0.1,0.2,0.3,0.4,0.4,0.6V328.6z M85.3,336.1c0.2,0.2,0.3,0.3,0.5,0.4h-0.4H85c0-0.2,0-0.5,0-0.7
								L85.3,336.1z M87.1,340.9c0.2,0,0.3-0.1,0.4-0.2c0,0.3,0,0.5,0,0.8c-0.2-0.2-0.5-0.3-0.8-0.4h0.4L87.1,340.9z M92.2,347.9
								c-0.1,0.3-0.1,0.5,0,0.8c-0.3-0.1-0.6-0.1-0.9,0l0.4-0.2l0.4-0.3L92.2,347.9z M152.9,295.2h-0.2l0.2-0.3
								C152.9,294.9,152.9,295.1,152.9,295.2L152.9,295.2z M146.4,290.1h-0.6c0,0,0-0.2,0.3-0.3c0-0.1,0-0.2,0-0.3
								C146.1,289.7,146.2,289.9,146.4,290.1L146.4,290.1z M138.7,285.9v0.3h-0.7c0-0.1,0-0.3,0-0.4c0-0.1,0-0.3,0-0.4
								c0.1,0.2,0.2,0.3,0.3,0.5L138.7,285.9z M124.9,282.8v0.6c-0.2-0.2-0.4-0.3-0.6-0.4c0.3-0.1,0.5-0.3,0.7-0.5
								c0,0.1,0,0.3,0,0.4L124.9,282.8z M116.4,283.4c0,0.2,0,0.3,0,0.5C116.4,283.7,116.4,283.6,116.4,283.4l0.5-0.4v0.4
								L116.4,283.4z M108.7,285.5c0,0.1,0,0.3,0,0.4c-0.3,0-0.5,0-0.8,0l0.3-0.3v-0.4c0,0.2,0,0.3,0,0.5L108.7,285.5z M100.6,289.4
								c0.1,0.1,0.2,0.3,0.3,0.4h-0.3h-0.5c0-0.2,0-0.5,0-0.7v0.4L100.6,289.4z M97.4,291.2h0.5l0,0c0,0.2,0,0.3,0,0.5l-0.3-0.4
								l-0.3-0.3h0.3L97.4,291.2z M93.8,294.6l0.3,0.3c-0.3-0.1-0.5-0.1-0.8,0c0.1-0.3,0.1-0.6,0-0.9c0.1,0.2,0.2,0.3,0.3,0.4
								L93.8,294.6z M91.8,296.6c0,0.2,0,0.5,0,0.7c-0.1-0.1-0.2-0.2-0.3-0.3h-0.3c0.3,0,0.6,0,0.9,0L91.8,296.6z M88.5,301.2
								l0.4,0.3l-0.7,0.3c0.1-0.3,0.1-0.6,0-0.8L88.5,301.2L88.5,301.2z M82,319.8c0.1,0.2,0.2,0.4,0.3,0.6h-0.1
								c0.2-0.2,0.4-0.4,0.5-0.6H82z M82.7,325.3h0.5c-0.2,0.2-0.3,0.4-0.3,0.7c-0.1-0.3-0.3-0.5-0.6-0.7H82.7z M84,333.8h0.5
								c-0.1,0.2-0.2,0.5-0.2,0.8c-0.2-0.2-0.4-0.4-0.7-0.6H84V333.8z M88.3,344.3c0.2,0.1,0.4,0.3,0.6,0.3c-0.2,0-0.3,0.1-0.4,0.3
								h-0.3c0.1-0.3,0.1-0.5,0-0.8L88.3,344.3z M93.2,350.8c0.2,0,0.5,0,0.7,0l-0.3,0.3v0.3c0-0.3,0-0.6,0-0.8L93.2,350.8z
								 M97.7,354.5l0.3-0.4c0,0.2,0,0.5,0,0.7h-0.6H97l0.3-0.3L97.7,354.5z M104.8,359.2c0-0.1,0-0.3,0-0.4V359.2l0.3,0.2
								c-0.3,0-0.6,0-0.9,0c0.1-0.1,0.2-0.2,0.3-0.4L104.8,359.2z M112.3,362c0-0.2,0-0.3,0-0.5c0.1,0.2,0.3,0.3,0.4,0.4
								c-0.3,0-0.6,0.1-0.8,0.3c0-0.1,0-0.3,0-0.4L112.3,362z M131.6,361.9c0.2-0.1,0.4-0.3,0.5-0.5c0,0.2,0,0.3,0,0.5v0.4
								c-0.2-0.2-0.5-0.3-0.8-0.3L131.6,361.9z M139.3,359.1c0.1-0.1,0.2-0.2,0.3-0.3v-0.3c0,0.1,0,0.3,0,0.4v0.3h-0.8L139.3,359.1z
								 M146.5,355H146v-0.4c0.1,0.1,0.1,0.2,0.2,0.3L146.5,355z M122.1,363.2c0.2-0.1,0.4-0.2,0.6-0.4v0.5c0,0.1,0,0.2,0,0.3
								C122.5,363.5,122.2,363.3,122.1,363.2L122.1,363.2z M127.6,362.8v-0.5c0.2,0.2,0.5,0.3,0.7,0.3l-0.5,0.5v-0.4L127.6,362.8z
								 M136,360.4c0-0.2-0.1-0.3-0.2-0.5c0.3,0,0.5,0,0.8,0l-0.3,0.3c0,0.1,0,0.3,0,0.4c0-0.1,0-0.3,0-0.4L136,360.4z M143.8,356.5
								c-0.1-0.2-0.2-0.3-0.3-0.4h0.3h0.5c0,0.2,0,0.5,0,0.7v-0.4L143.8,356.5z M150.9,351.1h0.3c0,0.1,0,0.3,0,0.4L150.9,351.1
								L150.9,351.1z M106.8,360v-0.3h0.6c0,0.1,0,0.3,0,0.4c0,0.1,0,0.2,0,0.3l-0.2-0.4L106.8,360z M115.5,362.6l-0.4-0.4h0.7
								c0,0.1,0,0.3,0,0.4c0,0.1,0,0.3,0,0.4L115.5,362.6z M120.9,363.4c0-0.2,0-0.3,0-0.5c0.2,0.2,0.4,0.3,0.6,0.4
								c-0.3,0.1-0.5,0.3-0.7,0.5C120.8,363.6,120.8,363.5,120.9,363.4L120.9,363.4z M84.2,311.2c0,0.3,0.1,0.6,0.3,0.9l-0.6-0.3H83
								C83.5,311.7,83.9,311.5,84.2,311.2L84.2,311.2z"/>
							<path id="Shape_212_" class="st0" d="M131.8,392.5c0.8-0.7,1-1.8,0.6-2.8c-0.4-1-1.4-1.5-2.4-1.5c-0.8,0-1.5,0.3-2,0.8
								c-0.4,0.5-0.6,1.2-0.6,1.9c0.1,1.3,1.2,2.2,2.5,2.2c0.7,0,1.5-0.3,2-0.8"/>
							<path id="Shape_213_" class="st0" d="M131.1,385.7c0.4-0.5,0.6-1.2,0.6-1.9c-0.1-1.3-1.2-2.2-2.5-2.2c-0.7,0-1.5,0.3-2,0.8
								c-0.4,0.5-0.6,1.2-0.6,1.9c0.1,1.2,1.2,2.2,2.4,2.2C129.8,386.6,130.6,386.3,131.1,385.7"/>
							<path id="Shape_214_" class="st0" d="M130.4,379.6c0.5-0.5,0.7-1.2,0.6-1.9c-0.1-1.2-1.2-2.2-2.4-2.1c-0.7,0-1.5,0.3-2,0.8
								c-0.5,0.5-0.7,1.2-0.6,1.9c0.1,1.3,1.2,2.2,2.4,2.2C129.2,380.5,129.9,380.2,130.4,379.6"/>
							<path id="Shape_215_" class="st0" d="M133.5,408.4c0.5-0.5,0.7-1.2,0.6-1.9c-0.1-1.2-1.2-2.2-2.4-2.2c-0.8,0-1.5,0.3-2,0.8
								c-0.4,0.5-0.6,1.2-0.6,1.9c0.1,1.2,1.2,2.2,2.4,2.2C132.3,409.3,133,409,133.5,408.4"/>
							<path id="Shape_216_" class="st0" d="M130.6,400.9c0.8,0,1.5-0.3,2-0.8c0.4-0.5,0.6-1.2,0.6-1.9c-0.1-1.2-1.2-2.2-2.4-2.2
								c-0.8,0-1.5,0.3-2,0.8c-0.5,0.5-0.7,1.2-0.6,1.9C128.3,400,129.4,400.9,130.6,400.9"/>
							<path id="Shape_217_" class="st0" d="M135.1,415.9c-0.1-1.3-1.2-2.2-2.4-2.2c-0.7,0-1.5,0.3-2,0.8l-0.3,0.5
								c-0.3,0.4-0.4,0.9-0.3,1.4c0.1,1.3,1.2,2.2,2.5,2.2c0.7,0,1.4-0.3,2-0.8c0.2-0.2,0.4-0.5,0.5-0.8
								C135,416.6,135,416.2,135.1,415.9"/>
							<path id="Shape_218_" class="st0" d="M129.8,374.1c0.5-0.5,0.7-1.2,0.6-1.9c-0.1-1.3-1.2-2.2-2.5-2.2c-0.7,0-1.5,0.3-2,0.8
								c-0.4,0.5-0.6,1.2-0.6,1.9c0.1,1.3,1.2,2.2,2.4,2.2C128.6,374.9,129.3,374.7,129.8,374.1"/>
							<path id="Shape_219_" class="st0" d="M136.1,388.8c0.8,0,1.6-0.3,2.1-1c0.4-0.5,0.6-1.3,0.4-2c-0.2-1.2-1.2-2-2.4-2
								c-0.8,0-1.6,0.4-2.1,1c-0.5,0.7-0.6,1.7-0.2,2.5C134.4,388.2,135.2,388.7,136.1,388.8"/>
							<path id="Shape_220_" class="st0" d="M134.9,382.3c0.8,0,1.6-0.3,2.1-0.9c0.4-0.6,0.6-1.3,0.4-2c-0.2-1.1-1.2-1.9-2.4-1.9
								c-0.8,0-1.6,0.3-2.1,0.9c-0.4,0.6-0.6,1.3-0.4,2C132.7,381.6,133.7,382.4,134.9,382.3"/>
							<path id="Shape_221_" class="st0" d="M133.7,371.8c-0.8,0-1.6,0.3-2.1,0.9c-0.4,0.6-0.6,1.3-0.4,2c0.2,1.1,1.2,2,2.4,1.9
								c0.8,0,1.6-0.3,2.1-0.9c0.4-0.6,0.6-1.3,0.4-2C135.9,372.6,134.9,371.8,133.7,371.8"/>
							<path id="Shape_222_" class="st0" d="M139.3,403.5c0.8,0,1.6-0.4,2.1-1c0.5-0.7,0.6-1.7,0.2-2.5s-1.2-1.3-2.1-1.4
								c-0.8,0-1.6,0.3-2.1,0.9c-0.4,0.6-0.6,1.3-0.4,2C137.2,402.7,138.2,403.5,139.3,403.5"/>
							<path id="Shape_223_" class="st0" d="M139.7,394.8c0.5-0.7,0.6-1.7,0.2-2.5s-1.2-1.3-2.1-1.4c-0.8,0-1.6,0.3-2.1,0.9
								c-0.4,0.6-0.6,1.3-0.4,2c0.2,1.1,1.2,2,2.4,1.9C138.4,395.7,139.2,395.4,139.7,394.8"/>
							<path id="Shape_224_" class="st0" d="M143.4,417c-0.8,0-1.6,0.3-2.1,0.9c-0.5,0.6-0.6,1.3-0.4,2c0.2,1.1,1.2,1.9,2.4,1.9
								c0.8,0,1.6-0.3,2.1-0.9c0.4-0.6,0.6-1.3,0.4-2C145.6,417.7,144.6,416.9,143.4,417"/>
							<path id="Shape_225_" class="st0" d="M143.9,390.4c0.9,0,1.7-0.4,2.2-1.1c0.5-0.6,0.6-1.4,0.3-2.2c-0.3-1-1.2-1.7-2.3-1.7
								c-0.9,0-1.7,0.4-2.2,1.1c-0.4,0.6-0.5,1.4-0.3,2.1C141.9,389.8,142.8,390.5,143.9,390.4"/>
							<path id="Shape_226_" class="st0" d="M141.7,383.9c0.9,0,1.7-0.4,2.2-1.1c0.4-0.6,0.6-1.4,0.3-2.2c-0.3-1-1.2-1.7-2.3-1.7
								c-0.9,0-1.7,0.4-2.2,1.1c-0.4,0.6-0.5,1.4-0.3,2.1C139.8,383.3,140.7,384,141.7,383.9"/>
							<path id="Shape_227_" class="st0" d="M142.1,377c0.4-0.6,0.6-1.4,0.3-2.1c-0.3-1-1.2-1.7-2.3-1.7c-0.9,0-1.7,0.4-2.2,1.1
								c-0.4,0.6-0.5,1.4-0.3,2.1c0.3,1,1.2,1.7,2.3,1.7C140.8,378.1,141.6,377.7,142.1,377"/>
							<path id="Shape_228_" class="st0" d="M151.1,404.6c0.5-0.8,0.5-1.7,0.1-2.5c-0.4-0.8-1.2-1.3-2.1-1.3c-0.9,0-1.7,0.4-2.2,1.1
								c-0.5,0.6-0.6,1.4-0.3,2.1c0.3,1,1.2,1.7,2.3,1.7C149.8,405.7,150.6,405.2,151.1,404.6"/>
							<path id="Shape_229_" class="st0" d="M148.5,396.5c0.5-0.7,0.6-1.7,0.1-2.5c-0.4-0.8-1.2-1.3-2.1-1.3c-0.9,0-1.7,0.4-2.2,1.1
								c-0.5,0.6-0.6,1.4-0.3,2.2c0.3,1,1.2,1.7,2.3,1.7C147.1,397.6,147.9,397.2,148.5,396.5"/>
							<path id="Shape_230_" class="st0" d="M152,409.7c-0.7,0-1.5,0.3-2,0.8c-0.4,0.5-0.7,1.2-0.6,1.8c0.1,1.3,1.2,2.3,2.4,2.2
								c0.7,0,1.5-0.3,2-0.8c0.1-0.1,0.2-0.3,0.3-0.4c0.5-0.6,0.6-1.4,0.3-2.1c-0.3-1-1.2-1.7-2.3-1.7"/>
							<path id="Shape_231_" class="st0" d="M138.1,372.9c0.9,0,1.7-0.4,2.2-1.1c0.4-0.6,0.5-1.4,0.3-2.2c-0.3-1-1.2-1.7-2.3-1.7
								c-0.9,0-1.7,0.4-2.2,1.1c-0.5,0.6-0.6,1.4-0.3,2.2C136.1,372.2,137,372.9,138.1,372.9"/>
							<path id="Shape_232_" class="st0" d="M149.1,384.7c0.9,0,1.8-0.5,2.3-1.2c0.4-0.7,0.4-1.7,0-2.4s-1.2-1.2-2.1-1.3
								c-0.9,0-1.8,0.5-2.3,1.2c-0.4,0.7-0.4,1.7,0,2.4C147.5,384.1,148.2,384.6,149.1,384.7"/>
							<path id="Shape_233_" class="st0" d="M148.8,377.4c0.4-0.7,0.4-1.5,0-2.2c-0.4-0.9-1.2-1.5-2.2-1.4c-0.9,0-1.8,0.4-2.3,1.2
								c-0.4,0.7-0.4,1.5,0,2.2c0.3,0.9,1.2,1.4,2.1,1.4C147.4,378.6,148.2,378.2,148.8,377.4"/>
							<path id="Shape_234_" class="st0" d="M142.1,369.7c-0.4,0.7-0.4,1.6,0,2.2c0.3,0.9,1.2,1.5,2.1,1.4c0.9,0,1.8-0.5,2.3-1.2
								c0.4-0.7,0.4-1.6,0-2.3c-0.4-0.9-1.2-1.4-2.2-1.4C143.4,368.5,142.6,368.9,142.1,369.7"/>
							<path id="Shape_235_" class="st0" d="M157.6,397.2c0.4-0.7,0.4-1.5,0-2.2c-0.4-0.9-1.2-1.5-2.2-1.4c-0.9,0-1.8,0.5-2.3,1.2
								c-0.4,0.7-0.4,1.6,0,2.2c0.3,0.9,1.2,1.5,2.1,1.4C156.2,398.4,157.1,397.9,157.6,397.2"/>
							<path id="Shape_236_" class="st0" d="M152,391.2c0.9,0,1.8-0.5,2.3-1.2c0.4-0.7,0.4-1.5,0-2.2c-0.4-0.9-1.2-1.5-2.2-1.4
								c-0.9,0-1.8,0.5-2.3,1.2c-0.4,0.7-0.4,1.6,0,2.2C150.2,390.6,151.1,391.2,152,391.2"/>
							<path id="Shape_237_" class="st0" d="M161.2,405.4c0.4-0.7,0.4-1.7,0-2.4c-0.4-0.8-1.2-1.2-2-1.3c-0.9,0-1.8,0.5-2.3,1.2
								c-0.4,0.7-0.4,1.5,0,2.2c0.4,0.9,1.2,1.5,2.2,1.4c0.9,0,1.8-0.5,2.3-1.2"/>
							<path id="Shape_238_" class="st0" d="M163.1,410.1c-0.9,0-1.8,0.5-2.3,1.2c-0.4,0.7-0.4,1.7,0,2.4s1.2,1.2,2.1,1.3
								c0.9,0,1.8-0.5,2.3-1.2c0.4-0.7,0.4-1.6,0-2.2c-0.3-0.9-1.2-1.4-2.1-1.4"/>
							<path id="Shape_239_" class="st0" d="M157,384.7c1,0,1.9-0.5,2.4-1.4c0.4-0.7,0.4-1.6,0-2.4s-1.2-1.2-2.1-1.2
								c-1,0-1.9,0.5-2.4,1.4c-0.4,0.7-0.4,1.6,0,2.4C155.3,384.3,156.1,384.7,157,384.7"/>
							<path id="Shape_240_" class="st0" d="M153.8,373.9c-1,0-1.9,0.5-2.4,1.4c-0.4,0.7-0.4,1.6,0,2.4c0.4,0.7,1.2,1.2,2.1,1.2
								c1,0,1.8-0.5,2.4-1.3c0.4-0.7,0.4-1.6,0-2.4C155.3,374.4,154.6,373.9,153.8,373.9"/>
							<path id="Shape_241_" class="st0" d="M148.3,369.9c-0.4,0.7-0.4,1.6,0,2.4c0.4,0.7,1.2,1.2,2.1,1.2c1,0,1.8-0.5,2.4-1.4
								c0.4-0.7,0.4-1.6,0-2.3c-0.4-0.8-1.2-1.2-2-1.2C149.8,368.6,148.9,369.1,148.3,369.9"/>
							<path id="Shape_242_" class="st0" d="M167.4,394.8c-0.4-0.7-1.2-1.2-2.1-1.2c-1,0-1.8,0.5-2.4,1.3c-0.4,0.7-0.4,1.6,0,2.4
								s1.2,1.2,2.1,1.2c1,0,1.9-0.5,2.4-1.4C167.8,396.5,167.8,395.6,167.4,394.8"/>
							<path id="Shape_243_" class="st0" d="M160.8,391.3c1,0,1.9-0.5,2.4-1.4c0.4-0.7,0.4-1.6,0-2.3c-0.4-0.8-1.2-1.2-2.1-1.2
								c-1,0-1.8,0.5-2.4,1.4c-0.4,0.7-0.4,1.6,0,2.3C159.1,390.8,159.9,391.3,160.8,391.3"/>
							<path id="Shape_244_" class="st0" d="M170,401.7c-1,0-1.9,0.5-2.4,1.4c-0.4,0.7-0.4,1.6,0,2.4s1.2,1.2,2.1,1.2
								c1,0,1.9-0.5,2.4-1.4c0.4-0.7,0.4-1.6,0-2.4C171.8,402.2,171,401.7,170,401.7"/>
							<path id="Shape_245_" class="st0" d="M147.9,363.8c-1,0-1.8,0.5-2.4,1.4c-0.4,0.7-0.4,1.6,0,2.4c0.4,0.7,1.2,1.2,2,1.2
								c1,0,1.8-0.5,2.4-1.3c0.4-0.7,0.4-1.6,0-2.4S148.6,363.8,147.9,363.8"/>
							<path id="Shape_246_" class="st0" d="M160.9,378c1,0,1.9-0.6,2.4-1.5c0.4-0.8,0.3-1.8-0.3-2.5c-0.4-0.6-1.1-1-1.9-1
								c-1,0-1.9,0.6-2.4,1.5c-0.4,0.8-0.3,1.8,0.3,2.5C159.4,377.6,160.1,378,160.9,378"/>
							<path id="Shape_247_" class="st0" d="M157,372.6c1,0,1.9-0.6,2.4-1.5c0.5-0.8,0.5-1.7,0-2.5c-0.4-0.6-1.2-1-1.9-1
								c-1,0-1.9,0.6-2.4,1.5c-0.4,0.8-0.3,1.8,0.3,2.5c0.4,0.6,1.1,1,1.9,1"/>
							<path id="Shape_248_" class="st0" d="M151.4,364.5c-0.4,0.8-0.3,1.8,0.3,2.5c0.4,0.6,1.1,1,1.9,1c1,0,1.9-0.6,2.4-1.5
								c0.5-0.8,0.5-1.7,0-2.5c-0.4-0.6-1.2-1-1.9-1c-1,0-1.9,0.6-2.4,1.5"/>
							<path id="Shape_249_" class="st0" d="M170.1,385.3c-1,0-1.9,0.6-2.4,1.4c-0.5,0.8-0.5,1.7,0,2.5c0.4,0.6,1.2,1,1.9,1
								c1,0,1.9-0.6,2.4-1.5c0.4-0.8,0.3-1.8-0.3-2.5c-0.4-0.6-1.1-1-1.9-1"/>
							<path id="Shape_250_" class="st0" d="M165.1,383.8c1,0,1.9-0.6,2.4-1.5c0.4-0.8,0.3-1.8-0.3-2.5c-0.4-0.6-1.1-1-1.9-1
								c-1,0-1.9,0.6-2.4,1.5c-0.4,0.8-0.3,1.8,0.3,2.5C163.6,383.4,164.3,383.8,165.1,383.8"/>
							<path id="Shape_251_" class="st0" d="M175.3,392.5c-1,0-1.9,0.6-2.4,1.5c-0.3,0.7-0.3,1.6,0.2,2.3c0.4,0.7,1.2,1.1,2,1.2
								c1,0,1.9-0.6,2.4-1.5c0.4-0.8,0.3-1.8-0.3-2.5C176.9,392.8,176.1,392.5,175.3,392.5"/>
							<path id="Shape_252_" class="st0" d="M181.2,400.3c-1,0-1.9,0.6-2.4,1.5c-0.4,0.8-0.3,1.8,0.3,2.5c0.4,0.6,1.1,1,1.9,1
								c1,0,1.9-0.6,2.4-1.5c0.3-0.7,0.3-1.6-0.2-2.3S182,400.3,181.2,400.3"/>
							<path id="Shape_253_" class="st0" d="M170.9,374.9c0.3-0.7,0.2-1.6-0.2-2.3c-0.4-0.7-1.2-1.1-2-1.1c-1,0.1-2,0.7-2.4,1.6
								c-0.4,0.9-0.2,1.9,0.4,2.5c0.4,0.5,1.1,0.8,1.8,0.8C169.6,376.5,170.5,375.9,170.9,374.9"/>
							<path id="Shape_254_" class="st0" d="M166.3,369.8c0.4-0.9,0.2-1.9-0.5-2.5c-0.4-0.5-1.1-0.8-1.8-0.8c-1,0-2,0.6-2.4,1.6
								c-0.4,0.9-0.2,1.9,0.5,2.6c0.4,0.5,1.1,0.8,1.8,0.8C164.9,371.4,165.9,370.8,166.3,369.8"/>
							<path id="Shape_255_" class="st0" d="M157.6,363.5c-0.4,0.9-0.2,1.9,0.4,2.5c0.5,0.5,1.1,0.8,1.8,0.8c1,0,2-0.6,2.4-1.6
								c0.4-0.9,0.2-1.9-0.4-2.5c-0.4-0.5-1.1-0.8-1.8-0.8C158.9,362,158,362.6,157.6,363.5"/>
							<path id="Shape_256_" class="st0" d="M179.3,388.5c1-0.1,2-0.7,2.4-1.6c0.4-0.9,0.2-1.9-0.5-2.5c-0.4-0.5-1.1-0.8-1.8-0.8
								c-1,0.1-2,0.7-2.4,1.6c-0.4,0.9-0.2,1.9,0.4,2.5C177.9,388.2,178.6,388.5,179.3,388.5"/>
							<path id="Shape_257_" class="st0" d="M173.6,382.2c1-0.1,2-0.7,2.4-1.6c0.3-0.7,0.2-1.6-0.2-2.2c-0.4-0.7-1.2-1.1-2-1.1
								c-1,0-2,0.6-2.4,1.6c-0.4,0.9-0.2,1.9,0.5,2.5C172.3,381.9,172.9,382.2,173.6,382.2"/>
							<path id="Shape_258_" class="st0" d="M185.8,390.4c-1.1,0-2,0.7-2.4,1.6c-0.4,0.9-0.2,1.9,0.5,2.5c0.4,0.5,1.1,0.8,1.8,0.8
								c1-0.1,2-0.7,2.4-1.6c0.3-0.7,0.2-1.6-0.2-2.3C187.3,390.9,186.6,390.5,185.8,390.4"/>
							<path id="Shape_259_" class="st0" d="M156.2,357.8c-1,0.1-2,0.7-2.4,1.6c-0.4,0.9-0.3,1.9,0.4,2.5c0.4,0.5,1.1,0.8,1.8,0.8
								c1,0,2-0.6,2.4-1.6c0.4-0.9,0.2-1.9-0.5-2.5C157.6,358.1,156.9,357.8,156.2,357.8"/>
							<path id="Shape_260_" class="st0" d="M173.4,367.4c0.4-0.9,0.1-2-0.6-2.6c-0.4-0.4-1-0.6-1.6-0.6c-1.1,0-2,0.7-2.4,1.7
								c-0.4,0.9-0.1,2,0.6,2.6c0.4,0.4,1,0.6,1.6,0.6C172.1,369.1,173,368.4,173.4,367.4"/>
							<path id="Shape_261_" class="st0" d="M168.6,363c0.3-0.7,0.1-1.6-0.3-2.2c-0.5-0.6-1.2-1-2-1c-1.1,0-2,0.7-2.4,1.7
								c-0.4,0.9-0.1,2,0.7,2.6c0.4,0.4,1,0.7,1.6,0.7C167.2,364.7,168.2,364,168.6,363"/>
							<path id="Shape_262_" class="st0" d="M159.5,357.6c-0.3,0.7-0.1,1.6,0.3,2.2c0.4,0.6,1.2,1,2,1.1c1.1,0,2.1-0.7,2.4-1.7
								c0.4-0.9,0.1-2-0.7-2.6c-0.4-0.4-1-0.7-1.6-0.7C160.8,355.9,159.9,356.6,159.5,357.6"/>
							<path id="Shape_263_" class="st0" d="M182.2,379.2c1.1,0,2-0.7,2.4-1.7c0.4-0.9,0.1-2-0.6-2.6c-0.4-0.4-1-0.7-1.6-0.7
								c-1.1,0-2,0.8-2.4,1.8c-0.4,0.9-0.1,2,0.6,2.6C181,379,181.6,379.2,182.2,379.2"/>
							<path id="Shape_264_" class="st0" d="M176.3,374c1.1,0,2-0.7,2.4-1.7c0.4-0.9,0.1-2-0.6-2.6c-0.4-0.4-1-0.6-1.6-0.6
								c-1.1,0-2,0.7-2.4,1.7c-0.4,0.9-0.1,2,0.6,2.6C175.1,373.7,175.7,374,176.3,374"/>
							<path id="Shape_265_" class="st0" d="M189.1,380.3c-1.1,0-2,0.7-2.4,1.7c-0.4,0.9-0.1,2,0.6,2.6c0.4,0.4,1,0.7,1.6,0.7
								c1.1-0.1,2-0.7,2.4-1.7c0.3-0.7,0.1-1.6-0.3-2.2C190.7,380.7,189.9,380.3,189.1,380.3"/>
							<path id="Shape_266_" class="st0" d="M196.5,386.9c-1.1,0-2.1,0.7-2.4,1.7c-0.4,0.9-0.1,2,0.7,2.6c0.4,0.4,1,0.7,1.6,0.7
								c1.1,0,2.1-0.7,2.4-1.7c0.3-0.7,0.1-1.6-0.3-2.2C198,387.4,197.3,387,196.5,386.9"/>
							<path id="Shape_267_" class="st0" d="M163.8,272.6c0.6-0.7,0.6-1.7,0.3-2.5c-0.5-0.9-1.4-1.4-2.4-1.4c-0.8,0-1.5,0.4-1.9,1
								c-0.5,0.7-0.6,1.7-0.3,2.5c0.5,0.9,1.4,1.5,2.4,1.5C162.6,273.6,163.4,273.2,163.8,272.6"/>
							<path id="Shape_268_" class="st0" d="M157.9,278.8c0.8,0,1.5-0.4,1.9-1c0.6-0.7,0.7-1.7,0.3-2.5c-0.5-0.9-1.4-1.5-2.4-1.5
								c-0.8,0-1.5,0.4-1.9,1c-0.6,0.7-0.7,1.7-0.3,2.5C156,278.2,156.9,278.8,157.9,278.8"/>
							<path id="Shape_269_" class="st0" d="M154.5,283.4c0.8,0,1.5-0.4,1.9-1c0.6-0.7,0.7-1.7,0.3-2.5c-0.5-0.9-1.4-1.5-2.4-1.5
								c-0.8,0-1.5,0.4-1.9,1c-0.6,0.7-0.7,1.7-0.3,2.5C152.6,282.8,153.5,283.4,154.5,283.4"/>
							<path id="Shape_270_" class="st0" d="M170.6,256.5c-0.8,0-1.5,0.4-1.9,1c-0.5,0.7-0.6,1.7-0.3,2.5c0.5,0.9,1.4,1.4,2.4,1.5
								c0.8,0,1.5-0.4,1.9-1c0.5-0.7,0.6-1.7,0.3-2.5C172.6,257.1,171.7,256.5,170.6,256.5"/>
							<path id="Shape_271_" class="st0" d="M165.9,262.9c-0.8,0-1.5,0.4-1.9,1c-0.5,0.8-0.5,1.7,0,2.5c0.4,0.9,1.3,1.5,2.4,1.5
								c0.8,0,1.5-0.4,1.9-1c0.5-0.7,0.6-1.7,0.3-2.5c-0.5-0.9-1.4-1.5-2.4-1.5"/>
							<path id="Shape_272_" class="st0" d="M176.3,254.2c0.8,0,1.5-0.4,1.9-1c0.6-0.7,0.7-1.7,0.3-2.5c-0.5-0.9-1.4-1.5-2.4-1.5
								c-0.8,0-1.5,0.4-1.9,1c-0.6,0.7-0.6,1.7-0.3,2.5C174.4,253.6,175.3,254.2,176.3,254.2"/>
							<path id="Shape_273_" class="st0" d="M181.9,246.5c0.8,0,1.5-0.4,1.9-1c0.5-0.7,0.6-1.7,0.3-2.5c-0.5-0.9-1.4-1.5-2.4-1.5
								c-0.8,0-1.5,0.4-1.9,1c-0.5,0.7-0.6,1.7-0.3,2.5C180,245.9,180.9,246.5,181.9,246.5"/>
							<path id="Shape_274_" class="st0" d="M155.8,263c-0.4,0.7-0.4,1.6,0,2.4c0.5,0.8,1.4,1.3,2.4,1.4c0.9,0,1.7-0.5,2.1-1.2
								c0.4-0.7,0.4-1.6,0-2.4c-0.5-0.8-1.4-1.3-2.4-1.4C157,261.8,156.2,262.3,155.8,263"/>
							<path id="Shape_275_" class="st0" d="M156.6,271.4c0.4-0.7,0.4-1.6,0-2.4c-0.5-0.8-1.4-1.3-2.4-1.4c-0.9,0-1.6,0.5-2.1,1.2
								c-0.4,0.7-0.4,1.6,0,2.4c0.5,0.8,1.4,1.3,2.4,1.4C155.4,272.7,156.2,272.2,156.6,271.4"/>
							<path id="Shape_276_" class="st0" d="M153.5,276.7c0.4-0.7,0.4-1.6,0-2.4c-0.5-0.8-1.4-1.3-2.4-1.4c-0.9,0-1.6,0.5-2.1,1.2
								c-0.4,0.7-0.4,1.6,0,2.4c0.5,0.8,1.4,1.3,2.4,1.4C152.4,278,153.1,277.5,153.5,276.7"/>
							<path id="Shape_277_" class="st0" d="M163.9,249.2c-0.4,0.7-0.4,1.6,0,2.4c0.5,0.8,1.4,1.4,2.4,1.4c0.9,0,1.6-0.5,2.1-1.2
								c0.4-0.7,0.4-1.6,0-2.4c-0.5-0.8-1.4-1.3-2.4-1.4C165.1,248,164.4,248.4,163.9,249.2"/>
							<path id="Shape_278_" class="st0" d="M161.7,255.3c-0.8,0-1.6,0.5-2,1.2c-0.4,0.7-0.4,1.6,0,2.4c0.5,0.8,1.4,1.3,2.4,1.4
								c0.9,0,1.6-0.5,2.1-1.2c0.4-0.7,0.4-1.6,0-2.4C163.6,255.8,162.7,255.3,161.7,255.3"/>
							<path id="Shape_279_" class="st0" d="M171,244.9c0.8,0,1.6-0.5,2-1.2c0.4-0.7,0.4-1.6,0-2.4c-0.5-0.8-1.4-1.3-2.4-1.4
								c-0.8,0-1.6,0.5-2,1.2c-0.4,0.7-0.4,1.6,0,2.4C169,244.3,169.9,244.9,171,244.9"/>
							<path id="Shape_280_" class="st0" d="M148.7,282.7c0.9,0,1.6-0.5,2.1-1.2c0.4-0.7,0.4-1.6,0-2.4c-0.5-0.8-1.4-1.3-2.4-1.4
								c-0.9,0-1.6,0.5-2,1.2c-0.4,0.7-0.4,1.6,0,2.3C146.8,282.2,147.7,282.7,148.7,282.7"/>
							<path id="Shape_281_" class="st0" d="M147.8,263.2c-0.4,0.7-0.4,1.6,0,2.3c0.5,0.7,1.4,1.2,2.3,1.2c1,0,1.8-0.6,2.2-1.4
								c0.4-0.7,0.4-1.5,0-2.2c-0.5-0.8-1.4-1.2-2.3-1.2C149,261.8,148.2,262.3,147.8,263.2"/>
							<path id="Shape_282_" class="st0" d="M145,269.1c-0.4,0.7-0.4,1.6,0,2.3c0.5,0.7,1.4,1.2,2.3,1.2c0.9,0,1.8-0.5,2.2-1.4
								c0.4-0.7,0.4-1.6,0-2.3c-0.5-0.7-1.4-1.2-2.3-1.2C146.2,267.7,145.4,268.3,145,269.1"/>
							<path id="Shape_283_" class="st0" d="M145.1,277.9c0.9-0.1,1.6-0.5,2-1.3c0.4-0.7,0.4-1.7,0-2.4c-0.5-0.7-1.4-1.2-2.3-1.2
								c-0.9,0-1.7,0.5-2.1,1.3c-0.4,0.8-0.4,1.7,0,2.4C143.3,277.5,144.1,277.9,145.1,277.9"/>
							<path id="Shape_284_" class="st0" d="M154.1,249.5c-0.4,0.7-0.4,1.6,0,2.2c0.5,0.8,1.3,1.2,2.3,1.2c1,0,1.8-0.6,2.2-1.4
								c0.4-0.7,0.4-1.5,0-2.2c-0.5-0.8-1.4-1.2-2.3-1.2C155.3,248.1,154.4,248.6,154.1,249.5"/>
							<path id="Shape_285_" class="st0" d="M152.9,255.3c-0.9,0-1.8,0.5-2.1,1.4c-0.4,0.7-0.4,1.6,0,2.3c0.5,0.7,1.4,1.2,2.3,1.2
								c0.9,0,1.8-0.5,2.2-1.4c0.4-0.7,0.4-1.6,0-2.3C154.7,255.7,153.9,255.3,152.9,255.3"/>
							<path id="Shape_286_" class="st0" d="M160.2,244.8c0.9,0,1.8-0.6,2.1-1.4c0.4-0.7,0.4-1.6,0-2.2c-0.5-0.8-1.4-1.2-2.3-1.2
								c-0.9,0.1-1.6,0.5-2,1.3c-0.4,0.7-0.4,1.7,0,2.4C158.5,244.3,159.4,244.8,160.2,244.8"/>
							<path id="Shape_287_" class="st0" d="M164.2,235.9c0.9,0,1.8-0.6,2.1-1.4c0.4-0.7,0.4-1.6,0-2.2c-0.5-0.8-1.4-1.2-2.3-1.2
								c-0.9,0.1-1.6,0.5-2,1.3c-0.4,0.7-0.4,1.7,0,2.4C162.5,235.4,163.4,235.9,164.2,235.9"/>
							<path id="Shape_288_" class="st0" d="M144.7,255.9c-1,0-2,0.7-2.3,1.7c-0.3,0.7-0.2,1.5,0.3,2.1c0.5,0.7,1.3,1.1,2.2,1.1
								c1.1,0,2-0.6,2.3-1.7c0.3-0.7,0.2-1.5-0.3-2.1C146.4,256.3,145.6,255.9,144.7,255.9"/>
							<path id="Shape_289_" class="st0" d="M140.3,264c-0.3,0.7-0.2,1.5,0.3,2.2c0.5,0.7,1.4,1,2.2,1.1c0.9,0,1.7-0.5,2.1-1.3
								c0.4-0.8,0.4-1.7-0.1-2.5c-0.5-0.7-1.3-1.1-2.2-1.1C141.6,262.4,140.6,263.1,140.3,264"/>
							<path id="Shape_290_" class="st0" d="M143.2,271.4c0.3-0.7,0.1-1.5-0.3-2.1c-0.5-0.7-1.3-1.1-2.2-1.1c-1,0-2,0.7-2.3,1.7
								c-0.3,0.7-0.1,1.5,0.3,2.2c0.5,0.7,1.4,1.1,2.2,1.1C141.9,273.1,142.9,272.4,143.2,271.4"/>
							<path id="Shape_291_" class="st0" d="M150,245.6c1,0,2-0.7,2.3-1.7c0.3-0.7,0.1-1.5-0.3-2.2c-0.5-0.7-1.4-1.1-2.2-1.1
								c-1.1,0-2,0.6-2.3,1.7c-0.3,0.7-0.1,1.5,0.3,2.1C148.3,245.2,149.2,245.6,150,245.6"/>
							<path id="Shape_292_" class="st0" d="M144.9,250.3c-0.3,0.7-0.2,1.5,0.3,2.2c0.5,0.7,1.3,1.1,2.2,1.1c0.9,0,1.7-0.6,2.1-1.3
								c0.4-0.8,0.4-1.7-0.1-2.5c-0.5-0.7-1.4-1.1-2.2-1.1C146.1,248.7,145.2,249.3,144.9,250.3"/>
							<path id="Shape_293_" class="st0" d="M153,236.8c0.9,0,1.7-0.5,2.1-1.3c0.4-0.8,0.4-1.7-0.1-2.5c-0.5-0.7-1.3-1.1-2.2-1.1
								c-1,0-2,0.7-2.3,1.7c-0.3,0.7-0.1,1.5,0.3,2.2C151.3,236.4,152.1,236.8,153,236.8"/>
							<path id="Shape_294_" class="st0" d="M139.1,278.3c1.1,0,2-0.6,2.3-1.7c0.3-0.7,0.1-1.5-0.3-2.1c-0.5-0.7-1.3-1.1-2.2-1.1
								c-1.1,0-2,0.7-2.3,1.7c-0.3,0.7-0.1,1.5,0.3,2.1C137.4,277.9,138.3,278.4,139.1,278.3"/>
							<path id="Shape_295_" class="st0" d="M137.2,262.2c0.9,0,1.7-0.6,2.1-1.4c0.4-0.8,0.3-1.8-0.2-2.5c-0.5-0.6-1.3-1-2.1-1
								c-1.2,0-2.2,0.8-2.4,1.9c-0.2,0.7,0,1.4,0.4,2C135.6,261.9,136.4,262.2,137.2,262.2"/>
							<path id="Shape_296_" class="st0" d="M133.2,265.8c-0.2,0.7,0,1.4,0.4,2c0.5,0.6,1.3,0.9,2.1,0.9c1.2,0,2.2-0.7,2.4-1.9
								c0.2-0.7,0-1.5-0.4-2c-0.5-0.6-1.3-0.9-2.1-0.9C134.4,263.8,133.4,264.7,133.2,265.8"/>
							<path id="Shape_297_" class="st0" d="M132,271.4c-0.2,0.7,0,1.4,0.4,2c0.5,0.6,1.3,1,2.1,1c1.2,0,2.2-0.8,2.4-1.9
								c0.2-0.7,0-1.4-0.4-2c-0.5-0.6-1.3-1-2.1-1C133.2,269.5,132.2,270.3,132,271.4"/>
							<path id="Shape_298_" class="st0" d="M140.5,247.6c1.2,0,2.2-0.8,2.4-1.9c0.2-0.7,0-1.4-0.4-2c-0.5-0.6-1.3-0.9-2.1-0.9
								c-1.2-0.1-2.2,0.8-2.4,1.9c-0.2,0.7,0,1.4,0.4,2C138.9,247.3,139.7,247.6,140.5,247.6"/>
							<path id="Shape_299_" class="st0" d="M138.8,255.4c1.2,0,2.2-0.8,2.4-1.9c0.2-0.7,0-1.4-0.4-2c-0.5-0.6-1.3-1-2.1-1
								c-0.9,0-1.7,0.6-2.1,1.4c-0.4,0.8-0.3,1.8,0.2,2.5C137.2,255,138,255.4,138.8,255.4"/>
							<path id="Shape_300_" class="st0" d="M142.4,238.9c1.2,0,2.2-0.8,2.4-1.9c0.2-0.7,0-1.4-0.4-2c-0.5-0.6-1.3-1-2.1-1
								c-1.2,0-2.2,0.8-2.4,1.9c-0.2,0.7,0,1.4,0.4,2C140.8,238.5,141.6,238.9,142.4,238.9"/>
							<path id="Shape_301_" class="st0" d="M144.3,229.8c1.1,0.1,2.2-0.7,2.4-1.9c0.2-0.7,0-1.5-0.4-2c-0.5-0.6-1.3-0.9-2.1-0.9
								c-1.2,0-2.2,0.8-2.4,1.9c-0.2,0.7,0,1.4,0.4,2C142.7,229.5,143.5,229.8,144.3,229.8"/>
							<path id="Shape_302_" class="st0" d="M130.9,257.7c1.3,0,2.3-0.9,2.4-2.2c0.1-0.7-0.1-1.3-0.6-1.9c-0.5-0.5-1.2-0.8-2-0.8
								c-1.3,0-2.3,0.9-2.4,2.2c-0.1,0.7,0.1,1.3,0.5,1.9C129.4,257.4,130.2,257.7,130.9,257.7"/>
							<path id="Shape_303_" class="st0" d="M130.2,264.5c1.3,0,2.3-0.9,2.4-2.2c0.1-0.7-0.1-1.4-0.6-1.9c-0.5-0.5-1.2-0.8-2-0.8
								c-1.3,0-2.3,0.9-2.4,2.2c-0.1,0.7,0.1,1.4,0.6,1.9C128.7,264.2,129.4,264.5,130.2,264.5"/>
							<path id="Shape_304_" class="st0" d="M129.5,270.7c1.3,0.1,2.3-0.9,2.4-2.1c0.1-0.7-0.1-1.4-0.6-1.9c-0.5-0.6-1.2-0.9-2-0.8
								c-1.3,0-2.3,0.9-2.4,2.2c-0.1,0.7,0.1,1.3,0.6,1.9C128,270.4,128.7,270.7,129.5,270.7"/>
							<path id="Shape_305_" class="st0" d="M132.7,241.8c1.3,0,2.3-0.9,2.4-2.2c0.1-0.7-0.1-1.4-0.6-1.9c-0.5-0.5-1.2-0.8-2-0.8
								c-1.3,0-2.3,0.9-2.4,2.2c-0.1,0.7,0.1,1.4,0.6,1.9C131.2,241.5,131.9,241.8,132.7,241.8"/>
							<path id="Shape_306_" class="st0" d="M131.7,250.1c1,0,1.8-0.5,2.3-1.4c0.4-0.9,0.3-1.9-0.3-2.6c-0.5-0.5-1.3-0.8-2-0.8
								c-1.3-0.1-2.3,0.9-2.4,2.1c-0.1,0.7,0.1,1.4,0.6,1.9C130.3,249.8,131,250.1,131.7,250.1"/>
							<path id="Shape_307_" class="st0" d="M133.5,232.5c1,0,1.9-0.5,2.3-1.4s0.3-1.9-0.3-2.6c-0.5-0.5-1.3-0.8-2-0.8
								c-1.3,0-2.3,0.9-2.4,2.2c-0.1,0.7,0.1,1.3,0.6,1.9C132.1,232.2,132.8,232.5,133.5,232.5"/>
							<path id="Shape_308_" class="st0" d="M126.9,275.2c0.5,0.6,1.2,0.9,2,0.8c1.3,0,2.3-0.9,2.4-2.2c0.1-0.7-0.1-1.4-0.6-1.9
								c-0.5-0.5-1.2-0.8-2-0.8c-1.3-0.1-2.3,0.9-2.4,2.1C126.2,274,126.4,274.7,126.9,275.2"/>
							<path id="Shape_309_" class="st0" d="M123.7,260.8c0.7,0,1.3-0.2,1.8-0.7s0.7-1.1,0.7-1.8c0-0.6-0.2-1.3-0.7-1.7
								c-0.5-0.5-1.2-0.7-1.8-0.7c-1-0.1-2,0.5-2.4,1.5c-0.4,0.9-0.2,2,0.6,2.8c0.5,0.5,1.2,0.7,1.8,0.7"/>
							<path id="Shape_310_" class="st0" d="M123.6,267.4c0.7,0,1.3-0.2,1.8-0.7s0.7-1.1,0.7-1.7c0-0.7-0.2-1.3-0.7-1.8
								c-0.5-0.5-1.1-0.7-1.8-0.7c-0.7,0-1.3,0.2-1.8,0.7c-0.5,0.5-0.7,1.1-0.7,1.8c0,0.6,0.2,1.3,0.7,1.7
								C122.2,267.1,122.9,267.4,123.6,267.4"/>
							<path id="Shape_311_" class="st0" d="M123.6,273.1c0.7,0,1.3-0.2,1.8-0.7s0.7-1.1,0.7-1.7c0-0.6-0.2-1.2-0.7-1.7
								c-0.5-0.5-1.2-0.7-1.8-0.7c-0.7,0-1.3,0.2-1.8,0.6c-0.5,0.4-0.7,1.1-0.7,1.7c0,0.6,0.2,1.3,0.7,1.7
								C122.2,272.9,122.9,273.1,123.6,273.1"/>
							<path id="Shape_312_" class="st0" d="M123.7,245.7c1,0.1,2-0.5,2.4-1.5c0.4-1,0.2-2.1-0.6-2.8c-0.5-0.5-1.2-0.7-1.9-0.7
								c-1-0.1-2,0.5-2.4,1.5c-0.4,0.9-0.2,2,0.6,2.8C122.4,245.5,123.1,245.7,123.7,245.7"/>
							<path id="Shape_313_" class="st0" d="M123.7,253.7c0.7,0,1.3-0.2,1.8-0.7s0.7-1.1,0.7-1.7c0-0.6-0.2-1.2-0.7-1.7
								c-0.5-0.5-1.2-0.7-1.8-0.7c-0.7,0-1.3,0.2-1.8,0.7c-0.5,0.5-0.7,1.1-0.7,1.7c0,0.6,0.2,1.2,0.7,1.7
								C122.4,253.5,123.1,253.7,123.7,253.7"/>
							<path id="Shape_314_" class="st0" d="M123.8,236.8c0.7,0,1.3-0.2,1.8-0.7c0.5-0.5,0.7-1.1,0.7-1.8c0-0.6-0.2-1.3-0.7-1.7
								c-0.5-0.5-1.2-0.7-1.8-0.7c-0.7,0-1.3,0.2-1.8,0.7s-0.7,1.1-0.7,1.7c0,0.6,0.2,1.3,0.6,1.7
								C122.5,236.5,123.1,236.8,123.8,236.8"/>
							<path id="Shape_315_" class="st0" d="M123.9,227c1,0.1,2-0.5,2.4-1.5c0.4-0.9,0.2-2-0.6-2.8c-0.5-0.5-1.2-0.7-1.8-0.7
								c-0.7,0-1.3,0.2-1.8,0.6c-0.5,0.4-0.7,1.1-0.7,1.7c0,0.7,0.2,1.3,0.7,1.7c0.5,0.5,1.2,0.7,1.8,0.7"/>
							<path id="Shape_316_" class="st0" d="M169.5,275c0.7,0,1.3-0.3,1.8-0.8c0.7-0.7,0.9-1.7,0.5-2.5c-0.4-1-1.3-1.6-2.4-1.6
								c-0.7,0-1.3,0.3-1.8,0.8c-0.7,0.7-0.9,1.7-0.4,2.5C167.6,274.3,168.5,274.9,169.5,275"/>
							<path id="Shape_317_" class="st0" d="M164.9,280.2c0.7,0,1.3-0.3,1.8-0.8c0.7-0.7,0.9-1.7,0.4-2.5c-0.4-1-1.3-1.6-2.4-1.6
								c-0.7,0-1.3,0.3-1.8,0.8c-0.7,0.7-0.9,1.7-0.5,2.5C162.9,279.5,163.9,280.2,164.9,280.2"/>
							<path id="Shape_318_" class="st0" d="M162.5,283.9c0.7-0.7,0.9-1.7,0.5-2.5c-0.4-1-1.3-1.6-2.4-1.6c-0.7,0-1.3,0.3-1.8,0.8
								c-0.7,0.7-0.9,1.7-0.5,2.5c0.4,0.9,1.4,1.6,2.4,1.6C161.4,284.7,162,284.4,162.5,283.9"/>
							<path id="Shape_319_" class="st0" d="M180.6,263.3c0.7,0,1.3-0.3,1.8-0.8c0.7-0.7,0.9-1.7,0.5-2.5c-0.4-0.9-1.4-1.6-2.4-1.6
								c-0.7,0-1.3,0.3-1.8,0.8c-0.6,0.7-0.8,1.7-0.4,2.5C178.6,262.6,179.5,263.3,180.6,263.3"/>
							<path id="Shape_320_" class="st0" d="M174.5,264.6c-0.7,0-1.3,0.3-1.8,0.8c-0.7,0.7-0.9,1.7-0.5,2.5c0.4,1,1.3,1.6,2.4,1.6
								c0.7,0,1.3-0.3,1.8-0.8c0.7-0.7,0.9-1.7,0.5-2.5C176.5,265.2,175.5,264.6,174.5,264.6"/>
							<path id="Shape_321_" class="st0" d="M184.3,254.8c0.4,1,1.4,1.6,2.4,1.6c0.7,0,1.3-0.3,1.8-0.8c0.7-0.7,0.9-1.7,0.4-2.5
								c-0.4-1-1.3-1.6-2.4-1.6c-0.7,0-1.3,0.3-1.8,0.8C184.1,252.9,183.9,253.9,184.3,254.8"/>
							<path id="Shape_322_" class="st0" d="M157,288.8c0.7,0,1.3-0.3,1.8-0.8c0.7-0.7,0.8-1.7,0.4-2.5c-0.4-0.9-1.4-1.6-2.4-1.6
								c-0.7,0-1.3,0.3-1.8,0.8c-0.7,0.7-0.9,1.7-0.5,2.6C155,288.2,155.9,288.8,157,288.8"/>
							<path id="Shape_323_" class="st0" d="M172,282.5c0.6,0,1.2-0.2,1.6-0.6c0.8-0.6,1.1-1.7,0.7-2.6c-0.4-1-1.3-1.7-2.4-1.8
								c-0.6,0-1.2,0.3-1.6,0.7c-0.8,0.6-1,1.7-0.7,2.6C169.9,281.8,170.9,282.5,172,282.5"/>
							<path id="Shape_324_" class="st0" d="M169.3,283.7c-0.4-1-1.3-1.7-2.4-1.8c-0.6,0-1.1,0.3-1.6,0.6c-0.8,0.6-1.1,1.7-0.7,2.6
								c0.4,1,1.3,1.7,2.4,1.7c0.6,0,1.2-0.2,1.6-0.6C169.4,285.7,169.7,284.7,169.3,283.7"/>
							<path id="Shape_325_" class="st0" d="M162.6,290.8c0.6,0,1.2-0.2,1.6-0.6c0.8-0.6,1.1-1.7,0.7-2.6c-0.4-1-1.3-1.7-2.4-1.8
								c-0.6,0-1.2,0.3-1.6,0.7c-0.8,0.6-1.1,1.7-0.7,2.6C160.6,290.1,161.6,290.7,162.6,290.8"/>
							<path id="Shape_326_" class="st0" d="M185.5,269.3c-0.4-1-1.3-1.7-2.4-1.7c-0.6,0-1.2,0.2-1.6,0.6c-0.8,0.6-1.1,1.7-0.7,2.6
								c0.4,1,1.3,1.7,2.4,1.8c0.6,0,1.2-0.3,1.6-0.7C185.6,271.3,185.9,270.2,185.5,269.3"/>
							<path id="Shape_327_" class="st0" d="M175.5,273.4c-0.8,0.6-1.1,1.7-0.7,2.6c0.4,1,1.3,1.7,2.4,1.7c0.6,0,1.2-0.2,1.6-0.6
								c0.8-0.6,1-1.7,0.7-2.6c-0.4-1-1.3-1.7-2.4-1.7C176.5,272.8,175.9,273,175.5,273.4"/>
							<path id="Shape_328_" class="st0" d="M189.8,261.5c-0.6,0-1.2,0.3-1.6,0.7c-0.8,0.6-1.1,1.7-0.7,2.6c0.4,1,1.3,1.7,2.4,1.7
								c0.6,0,1.2-0.2,1.6-0.6c0.8-0.6,1-1.7,0.7-2.6C191.9,262.3,190.9,261.6,189.8,261.5"/>
							<path id="Shape_329_" class="st0" d="M197,260.5c0.6,0,1.2-0.2,1.6-0.6c0.8-0.6,1.1-1.7,0.7-2.6c-0.4-1-1.3-1.7-2.4-1.7
								c-0.6,0-1.2,0.3-1.6,0.7c-0.8,0.6-1,1.7-0.7,2.6C194.9,259.7,195.9,260.4,197,260.5"/>
							<path id="Shape_330_" class="st0" d="M258.7,333.5h10.8l-18.7-43.7h-9.3l-18.9,43.9h10.6l3.9-9.6h17.7L258.7,333.5z
								 M251.1,314.8h-10.3l5.2-12.5L251.1,314.8z"/>
							<path id="Shape_331_" class="st0" d="M290.6,334.4c6.9,0.3,13.5-2.6,18-7.8l0.3-0.3l-6.6-6.6L302,320
								c-2.8,3.1-6.8,4.9-11.1,4.9c-3.4-0.1-6.6-1.5-8.9-4c-2.3-2.5-3.5-5.8-3.3-9.1c-0.1-3.3,1.1-6.5,3.4-8.9s5.5-3.8,8.8-3.8
								c4.1,0.1,8,1.8,10.8,4.7l0.3,0.3l6.5-7.5l-0.3-0.3c-4.5-4.5-10.7-7-17.1-6.7c-6.1-0.2-12,2.1-16.3,6.4
								c-4.3,4.3-6.7,10.1-6.6,16.1c-0.1,6,2.2,11.8,6.4,16c4.3,4.2,10.1,6.6,16.1,6.4"/>
							<path id="Shape_332_" class="st0" d="M333.4,334.4c6.9,0.3,13.5-2.6,18-7.8l0.3-0.3l-6.6-6.6l-0.3,0.3
								c-2.8,3.1-6.9,4.9-11.1,4.9c-3.4-0.1-6.6-1.5-8.9-4c-2.3-2.5-3.5-5.8-3.3-9.1c-0.1-3.3,1.1-6.5,3.4-8.9s5.5-3.8,8.8-3.8
								c4.1,0.1,7.9,1.8,10.8,4.7l0.3,0.3l6.5-7.5l-0.3-0.3c-4.6-4.6-10.8-7-17.3-6.7c-6.1-0.2-12,2.2-16.3,6.4
								c-4.3,4.3-6.7,10.1-6.6,16.1c-0.1,6,2.2,11.8,6.4,16c4.3,4.2,10.1,6.6,16.1,6.4"/>
							<path id="Shape_333_" class="st0" d="M367,319.8h6.9l9.2,13.7h12.1L384.5,318c5.6-2,9.3-7.4,9.1-13.3
								c0-9.1-6.2-14.5-16.7-14.5h-20.1v43.4H367V319.8z M367,299.2h9.1c4.6,0,7.1,2,7.1,5.7c0,3.5-2.6,5.6-6.9,5.6H367V299.2z"/>
							<polygon id="Shape_334_" class="st0" points="432.8,324.4 409.3,324.4 409.3,316.2 429.7,316.2 429.7,307 409.3,307 
								409.3,299.1 432.5,299.1 432.5,289.9 399.1,289.9 399.1,333.6 432.8,333.6 							"/>
							<path id="Shape_335_" class="st0" d="M455.9,289.9h-17.1v43.6h17.1c6.1,0.4,12-1.8,16.4-5.9c4.4-4.1,6.9-9.9,6.9-15.9
								c0-6-2.5-11.8-6.9-15.9c-4.4-4.1-10.4-6.2-16.4-5.8V289.9z M448.9,299.3h7c3.4-0.3,6.8,1,9.3,3.4c2.5,2.4,3.8,5.7,3.5,9.2
								c0.2,3.4-1.1,6.7-3.6,9.1c-2.5,2.4-5.8,3.6-9.2,3.3h-7V299.3z"/>
							<rect id="Rectangle-path" x="484.2" y="289.9" class="st0" width="10.3" height="43.6"/>
							<polygon id="Shape_336_" class="st0" points="513,333.6 523.3,333.6 523.3,299.4 536.4,299.4 536.4,289.9 499.9,289.9 
								499.9,299.4 513,299.4 							"/>
							<polygon id="Shape_337_" class="st0" points="551.6,316.2 572,316.2 572,307 551.6,307 551.6,299.1 574.7,299.1 574.7,289.9 
								541.4,289.9 541.4,333.5 575,333.5 575,324.4 551.6,324.4 							"/>
							<path id="Shape_338_" class="st0" d="M598.4,289.9h-17.1v43.6h17.1c6.1,0.4,12-1.7,16.4-5.9c4.4-4.1,6.9-9.9,6.9-15.9
								c0-6-2.5-11.8-6.9-15.9s-10.4-6.2-16.4-5.8V289.9z M591.5,299.3h6.9c3.4-0.3,6.8,1,9.3,3.4c2.5,2.4,3.8,5.7,3.5,9.2
								c0.2,3.4-1.1,6.7-3.6,9.1c-2.5,2.4-5.8,3.6-9.2,3.3h-6.9V299.3z"/>
							<rect id="Rectangle-path_1_" x="225.7" y="342.4" class="st0" width="10.3" height="43.6"/>
							<polygon id="Shape_339_" class="st0" points="271.3,368 251.7,342.5 251.6,342.4 242.3,342.4 242.3,386 252.4,386 
								252.4,359.5 272.8,386 281.4,386 281.4,342.4 271.3,342.4 							"/>
							<path id="Shape_340_" class="st0" d="M307.4,359.6c-7.5-1.9-9-2.8-9-5.3c0-2,2-3.4,5.1-3.4c4,0.3,7.9,1.7,11,4.2l0.3,0.3
								l5.4-7.7l-0.3-0.3c-4.6-3.6-10.4-5.6-16.3-5.5c-9.1,0-15.5,5.5-15.5,13.3c0,9.1,6.3,11.4,14.6,13.5c7.2,1.8,8.6,3,8.6,5.1
								c0,2.3-2.2,3.7-5.9,3.7c-4.7-0.1-9.2-2-12.6-5.1l-0.3-0.3l-6.1,7.3l0.3,0.3c5.1,4.5,11.7,7,18.6,7c10,0,16.2-5.2,16.2-13.7
								c0-8-5.6-11.1-14-13.2"/>
							<polygon id="Shape_341_" class="st0" points="360.1,342.4 323.6,342.4 323.6,351.9 336.7,351.9 336.7,386 347,386 347,351.9 
								360.1,351.9 							"/>
							<path id="Shape_342_" class="st0" d="M384.5,342h-9.3l-18.6,43.2v0.5h10.5l4-9.6h17.7l4,9.6h10.8l-18.7-43.7L384.5,342z
								 M384.9,367.5h-10.3l5.2-12.7L384.9,367.5z"/>
							<polygon id="Shape_343_" class="st0" points="417.8,342.4 407.5,342.4 407.5,386 439.3,386 439.3,376.7 417.8,376.7 							
								"/>
							<polygon id="Shape_344_" class="st0" points="454.5,342.4 444.1,342.4 444.1,386 476,386 476,376.7 454.5,376.7 							"/>
							<polygon id="Shape_345_" class="st0" points="491,368.6 511.4,368.6 511.4,359.4 491,359.4 491,351.6 514.1,351.6 
								514.1,342.3 480.8,342.3 480.8,386 514.4,386 514.4,376.8 491,376.8 							"/>
							<path id="Shape_346_" class="st0" d="M556.3,357c0-9.1-6.2-14.6-16.7-14.6h-20.1v43.6h10.3v-13.7h6.9l9.2,13.7h12.1
								l-10.7-15.5c5.7-2,9.3-7.5,9.1-13.5V357z M529.8,351.8h9.1c4.6,0,7.1,2,7.1,5.7c0,3.5-2.6,5.7-6.9,5.7h-9.2V351.8z"/>
							<path id="Shape_347_" class="st1" d="M239.1,275.5c-1.3,1.4-3,2.1-4.9,2.2c-1.5,0-2.9-0.7-3.9-1.8c-1-1.1-1.5-2.5-1.4-4
								c-0.1-1.5,0.4-2.9,1.4-4c1-1.1,2.4-1.7,3.9-1.7c1.8,0,3.5,0.8,4.8,2.1l2.9-3.4c-2-2-4.8-3.1-7.7-3c-2.7-0.1-5.3,1-7.2,2.8
								c-1.9,1.9-3,4.5-2.9,7.1c-0.1,2.6,1,5.2,2.9,7.1c1.9,1.9,4.4,2.9,7.1,2.9c3.1,0.1,6-1.2,8-3.5L239.1,275.5L239.1,275.5z"/>
							<polygon id="Shape_348_" class="st1" points="258.2,277.4 248.7,277.4 248.7,262.2 244.2,262.2 244.2,281.5 258.2,281.5 
															"/>
							<polygon id="Shape_349_" class="st1" points="275.3,277.5 265,277.5 265,273.8 274,273.8 274,269.8 265,269.8 265,266.3 
								275.2,266.3 275.2,262.2 260.4,262.2 260.4,281.6 275.3,281.6 							"/>
							<path id="Shape_350_" class="st1" d="M283.5,277.3h7.8l1.8,4.2h4.8l-8.6-19.4h-4.3l-8.3,19.4h4.7L283.5,277.3z M285.2,273
								l2.3-5.4l2.3,5.4H285.2z"/>
							<polygon id="Shape_351_" class="st1" points="304.1,269.9 313,281.5 313.1,281.5 317,281.5 317,262.2 312.4,262.2 
								312.4,273.5 303.8,262.3 303.8,262.2 299.6,262.2 299.6,281.5 304.1,281.5 							"/>
							<polygon id="Shape_352_" class="st1" points="342.1,266.3 342.1,262.2 327.3,262.2 327.3,281.6 342.2,281.6 342.2,277.5 
								331.9,277.5 331.9,273.8 340.9,273.8 340.9,269.8 331.9,269.8 331.9,266.3 							"/>
							<polygon id="Shape_353_" class="st1" points="349.2,269.9 358.1,281.5 358.2,281.5 362,281.5 362,262.2 357.5,262.2 
								357.5,273.5 348.9,262.3 348.8,262.2 344.6,262.2 344.6,281.5 349.2,281.5 							"/>
							<polygon id="Shape_354_" class="st1" points="379.8,266.3 379.8,262.2 365,262.2 365,281.6 379.9,281.6 379.9,277.5 
								369.6,277.5 369.6,273.8 378.6,273.8 378.6,269.8 369.6,269.8 369.6,266.3 							"/>
							<path id="Shape_355_" class="st1" d="M394.4,281.5h5.4l-4.7-6.9c2.5-0.9,4.1-3.3,4-5.9c0-4.2-2.8-6.5-7.4-6.5h-8.9v19.3h4.6
								v-6.1h2.8L394.4,281.5z M387.2,266.5h4c2,0,3.1,0.9,3.1,2.5c0,1.5-1.2,2.5-3,2.5h-4.1V266.5z"/>
							<path id="Shape_356_" class="st1" d="M410.8,281.9c3,0,6-1.1,8.3-3.1v-8.5h-8.6v4h4.3v2.4c-1.1,0.7-2.5,1.1-3.8,1.1
								c-1.5,0-3-0.6-4.1-1.7c-1.1-1.1-1.6-2.6-1.5-4.1c-0.1-3,2.2-5.6,5.3-5.7c1.8,0,3.5,0.7,4.8,1.9l2.9-3.5
								c-2.1-1.8-4.8-2.8-7.6-2.6c-2.7-0.1-5.3,1-7.2,2.8c-1.9,1.9-3,4.4-3,7.1c-0.1,2.7,1,5.3,2.9,7.2S408.2,282,410.8,281.9"/>
							<polygon id="Shape_357_" class="st1" points="431.5,281.5 431.5,273.8 439,262.2 433.8,262.2 429.2,269.6 424.8,262.2 
								419.4,262.2 426.9,273.9 426.9,281.5 							"/>
							<path id="Shape_358_" class="st1" d="M460.4,275.5c-1.3,1.4-3,2.1-4.9,2.2c-1.5,0-2.9-0.7-3.9-1.8c-1-1.1-1.5-2.5-1.4-4
								c-0.1-1.5,0.4-2.9,1.4-4c1-1.1,2.4-1.7,3.9-1.7c1.8,0,3.5,0.8,4.8,2.1l2.9-3.4c-2-2-4.8-3.1-7.7-3c-2.7-0.1-5.3,1-7.2,2.8
								c-1.9,1.9-3,4.5-2.9,7.1c-0.1,2.6,1,5.2,2.9,7.1c1.9,1.9,4.4,2.9,7.1,2.9c3.1,0.1,6-1.2,8-3.5L460.4,275.5L460.4,275.5z"/>
							<path id="Shape_359_" class="st1" d="M474.4,261.9c-2.7-0.1-5.3,0.9-7.3,2.8c-2,1.9-3.1,4.5-3.1,7.1c0,2.7,1.1,5.3,3,7.2
								s4.6,2.9,7.3,2.8c2.7,0.1,5.3-1,7.3-2.9c1.9-1.9,3-4.5,3.1-7.2c0-2.7-1.1-5.3-3-7.1C479.8,262.8,477.1,261.7,474.4,261.9
								L474.4,261.9z M468.8,271.8c0-3,2.5-5.5,5.6-5.5c3.1,0,5.6,2.5,5.6,5.5c0.1,1.5-0.5,2.9-1.5,4c-1,1.1-2.5,1.7-4,1.7
								c-1.5,0-3-0.6-4.1-1.7C469.3,274.7,468.8,273.2,468.8,271.8L468.8,271.8z"/>
							<path id="Shape_360_" class="st1" d="M499.2,273.3c0,2.8-1.4,4.2-3.9,4.2c-2.6,0-3.9-1.6-3.9-4.5v-10.8h-4.6v11
								c-0.2,2.3,0.6,4.6,2.2,6.3s4,2.5,6.3,2.2c2.4,0.2,4.7-0.7,6.4-2.4c1.7-1.7,2.5-4,2.2-6.4v-10.7h-4.6L499.2,273.3z"/>
							<polygon id="Shape_361_" class="st1" points="519.5,273.5 510.9,262.3 510.8,262.2 506.7,262.2 506.7,281.5 511.2,281.5 
								511.2,269.9 520.1,281.5 524,281.5 524,262.2 519.5,262.2 							"/>
							<path id="Shape_362_" class="st1" d="M541.2,275.5c-1.2,1.4-3,2.2-4.9,2.2c-1.5,0-2.9-0.7-3.9-1.8c-1-1.1-1.5-2.5-1.4-4
								c-0.1-1.5,0.4-2.9,1.4-4c1-1.1,2.4-1.7,3.9-1.7c1.8,0,3.5,0.8,4.7,2.1l2.9-3.4c-2-2-4.8-3.1-7.7-3c-2.7-0.1-5.3,0.9-7.2,2.8
								s-3,4.5-2.9,7.2c0.1,4.2,2.8,7.9,6.8,9.3s8.4,0.3,11.2-2.8L541.2,275.5L541.2,275.5z"/>
							<rect id="Rectangle-path_2_" x="546" y="262.2" class="st1" width="4.6" height="19.3"/>
							<polygon id="Shape_363_" class="st1" points="558.1,277.4 558.1,262.2 553.5,262.2 553.5,281.5 567.6,281.5 567.6,277.4 
															"/>
						</g>
					</g>
				</g>
			</g>
		</g>
	</g>
</g>
</svg>
